<mxfile host="app.diagrams.net" modified="2021-10-19T16:17:42.342Z" agent="5.0 (Macintosh; Intel Mac OS X 10_15_7) AppleWebKit/605.1.15 (KHTML, like Gecko) Version/15.0 Safari/605.1.15" etag="Uj9Qh-o4yGW6Q9nA7LhU" version="15.5.5" type="github">
  <diagram id="hIrUgfv-aaXzq0vj4ftV" name="Page-1">
    <mxGraphModel dx="2013" dy="1895" grid="1" gridSize="10" guides="1" tooltips="1" connect="1" arrows="1" fold="1" page="1" pageScale="1" pageWidth="827" pageHeight="1169" math="1" shadow="0">
      <root>
        <mxCell id="0" />
        <mxCell id="1" parent="0" />
        <mxCell id="SDUCGOUq9v9T7dZsSmm8-4" style="edgeStyle=orthogonalEdgeStyle;rounded=0;orthogonalLoop=1;jettySize=auto;html=1;entryX=0.5;entryY=1;entryDx=0;entryDy=0;fontSize=14;targetPerimeterSpacing=6;" edge="1" parent="1" source="SDUCGOUq9v9T7dZsSmm8-1" target="SDUCGOUq9v9T7dZsSmm8-3">
          <mxGeometry relative="1" as="geometry" />
        </mxCell>
        <mxCell id="SDUCGOUq9v9T7dZsSmm8-22" style="edgeStyle=orthogonalEdgeStyle;rounded=0;orthogonalLoop=1;jettySize=auto;html=1;exitX=1;exitY=0.5;exitDx=0;exitDy=0;entryX=0;entryY=0.5;entryDx=0;entryDy=0;fontSize=14;targetPerimeterSpacing=6;" edge="1" parent="1" source="SDUCGOUq9v9T7dZsSmm8-1" target="SDUCGOUq9v9T7dZsSmm8-21">
          <mxGeometry relative="1" as="geometry" />
        </mxCell>
        <mxCell id="SDUCGOUq9v9T7dZsSmm8-33" style="edgeStyle=orthogonalEdgeStyle;rounded=0;orthogonalLoop=1;jettySize=auto;html=1;exitX=0;exitY=0.5;exitDx=0;exitDy=0;entryX=1;entryY=0.5;entryDx=0;entryDy=0;fontSize=14;targetPerimeterSpacing=6;" edge="1" parent="1" source="SDUCGOUq9v9T7dZsSmm8-1" target="SDUCGOUq9v9T7dZsSmm8-32">
          <mxGeometry relative="1" as="geometry" />
        </mxCell>
        <mxCell id="SDUCGOUq9v9T7dZsSmm8-58" style="edgeStyle=orthogonalEdgeStyle;rounded=0;orthogonalLoop=1;jettySize=auto;html=1;exitX=1;exitY=0;exitDx=0;exitDy=0;entryX=0;entryY=0.5;entryDx=0;entryDy=0;fontSize=14;targetPerimeterSpacing=6;" edge="1" parent="1" source="SDUCGOUq9v9T7dZsSmm8-1" target="SDUCGOUq9v9T7dZsSmm8-57">
          <mxGeometry relative="1" as="geometry">
            <Array as="points">
              <mxPoint x="435" y="320" />
              <mxPoint x="710" y="320" />
              <mxPoint x="710" y="175" />
            </Array>
          </mxGeometry>
        </mxCell>
        <mxCell id="SDUCGOUq9v9T7dZsSmm8-1" value="Decision Making" style="ellipse;whiteSpace=wrap;html=1;fontSize=14;align=center;opacity=80;fontStyle=1;fillColor=#f8cecc;strokeColor=#b85450;" vertex="1" parent="1">
          <mxGeometry x="350" y="330" width="100" height="80" as="geometry" />
        </mxCell>
        <mxCell id="SDUCGOUq9v9T7dZsSmm8-2" value="i.e. Selecting a response among several options" style="text;html=1;strokeColor=none;fillColor=none;align=center;verticalAlign=middle;whiteSpace=wrap;rounded=0;fontSize=14;opacity=80;" vertex="1" parent="1">
          <mxGeometry x="320" y="413" width="160" height="30" as="geometry" />
        </mxCell>
        <mxCell id="SDUCGOUq9v9T7dZsSmm8-10" style="edgeStyle=orthogonalEdgeStyle;rounded=0;orthogonalLoop=1;jettySize=auto;html=1;entryX=0;entryY=0.5;entryDx=0;entryDy=0;fontSize=14;targetPerimeterSpacing=6;" edge="1" parent="1" source="SDUCGOUq9v9T7dZsSmm8-3" target="SDUCGOUq9v9T7dZsSmm8-9">
          <mxGeometry relative="1" as="geometry" />
        </mxCell>
        <mxCell id="SDUCGOUq9v9T7dZsSmm8-11" style="edgeStyle=orthogonalEdgeStyle;rounded=0;orthogonalLoop=1;jettySize=auto;html=1;entryX=0.5;entryY=1;entryDx=0;entryDy=0;fontSize=14;targetPerimeterSpacing=6;" edge="1" parent="1" source="SDUCGOUq9v9T7dZsSmm8-3" target="SDUCGOUq9v9T7dZsSmm8-8">
          <mxGeometry relative="1" as="geometry" />
        </mxCell>
        <mxCell id="SDUCGOUq9v9T7dZsSmm8-12" style="edgeStyle=orthogonalEdgeStyle;rounded=0;orthogonalLoop=1;jettySize=auto;html=1;exitX=0;exitY=0.5;exitDx=0;exitDy=0;entryX=1;entryY=0.5;entryDx=0;entryDy=0;fontSize=14;targetPerimeterSpacing=6;" edge="1" parent="1" source="SDUCGOUq9v9T7dZsSmm8-3" target="SDUCGOUq9v9T7dZsSmm8-7">
          <mxGeometry relative="1" as="geometry" />
        </mxCell>
        <mxCell id="SDUCGOUq9v9T7dZsSmm8-3" value="3 types" style="rounded=1;whiteSpace=wrap;html=1;fontSize=14;align=center;opacity=80;fillColor=#dae8fc;strokeColor=#6c8ebf;" vertex="1" parent="1">
          <mxGeometry x="365" y="200" width="70" height="30" as="geometry" />
        </mxCell>
        <mxCell id="SDUCGOUq9v9T7dZsSmm8-19" style="edgeStyle=orthogonalEdgeStyle;rounded=0;orthogonalLoop=1;jettySize=auto;html=1;exitX=0.5;exitY=0;exitDx=0;exitDy=0;entryX=0.5;entryY=1;entryDx=0;entryDy=0;fontSize=14;targetPerimeterSpacing=6;" edge="1" parent="1" source="SDUCGOUq9v9T7dZsSmm8-7" target="SDUCGOUq9v9T7dZsSmm8-16">
          <mxGeometry relative="1" as="geometry" />
        </mxCell>
        <mxCell id="SDUCGOUq9v9T7dZsSmm8-7" value="Under risk" style="rounded=1;whiteSpace=wrap;html=1;fontSize=14;align=center;opacity=80;fillColor=#fff2cc;strokeColor=#d6b656;" vertex="1" parent="1">
          <mxGeometry x="170" y="200" width="110" height="30" as="geometry" />
        </mxCell>
        <mxCell id="SDUCGOUq9v9T7dZsSmm8-18" style="edgeStyle=orthogonalEdgeStyle;rounded=0;orthogonalLoop=1;jettySize=auto;html=1;exitX=0;exitY=0.5;exitDx=0;exitDy=0;entryX=1;entryY=0.5;entryDx=0;entryDy=0;fontSize=14;targetPerimeterSpacing=6;" edge="1" parent="1" source="SDUCGOUq9v9T7dZsSmm8-8" target="SDUCGOUq9v9T7dZsSmm8-16">
          <mxGeometry relative="1" as="geometry" />
        </mxCell>
        <mxCell id="SDUCGOUq9v9T7dZsSmm8-8" value="Under uncertainty" style="rounded=1;whiteSpace=wrap;html=1;fontSize=14;align=center;opacity=80;fillColor=#fff2cc;strokeColor=#d6b656;" vertex="1" parent="1">
          <mxGeometry x="345" y="130" width="110" height="40" as="geometry" />
        </mxCell>
        <mxCell id="SDUCGOUq9v9T7dZsSmm8-9" value="Under certainty" style="rounded=1;whiteSpace=wrap;html=1;fontSize=14;align=center;opacity=80;fillColor=#fff2cc;strokeColor=#d6b656;" vertex="1" parent="1">
          <mxGeometry x="530" y="200" width="110" height="30" as="geometry" />
        </mxCell>
        <mxCell id="SDUCGOUq9v9T7dZsSmm8-13" value="We know the probabilities" style="text;html=1;strokeColor=none;fillColor=none;align=center;verticalAlign=middle;whiteSpace=wrap;rounded=0;fontSize=14;opacity=80;" vertex="1" parent="1">
          <mxGeometry x="135" y="230" width="180" height="20" as="geometry" />
        </mxCell>
        <mxCell id="SDUCGOUq9v9T7dZsSmm8-14" value="We know nothing" style="text;html=1;strokeColor=none;fillColor=none;align=center;verticalAlign=middle;whiteSpace=wrap;rounded=0;fontSize=14;opacity=80;" vertex="1" parent="1">
          <mxGeometry x="310" y="110" width="180" height="20" as="geometry" />
        </mxCell>
        <mxCell id="SDUCGOUq9v9T7dZsSmm8-15" value="We know the outcome" style="text;html=1;strokeColor=none;fillColor=none;align=center;verticalAlign=middle;whiteSpace=wrap;rounded=0;fontSize=14;opacity=80;" vertex="1" parent="1">
          <mxGeometry x="505" y="225" width="160" height="30" as="geometry" />
        </mxCell>
        <mxCell id="SDUCGOUq9v9T7dZsSmm8-16" value="Differ in the magnitude of uncertainty" style="text;html=1;strokeColor=none;fillColor=none;align=center;verticalAlign=middle;whiteSpace=wrap;rounded=0;fontSize=14;opacity=80;" vertex="1" parent="1">
          <mxGeometry x="150" y="132.5" width="150" height="35" as="geometry" />
        </mxCell>
        <mxCell id="SDUCGOUq9v9T7dZsSmm8-25" style="edgeStyle=orthogonalEdgeStyle;rounded=0;orthogonalLoop=1;jettySize=auto;html=1;entryX=0;entryY=0.5;entryDx=0;entryDy=0;fontSize=14;targetPerimeterSpacing=6;" edge="1" parent="1" source="SDUCGOUq9v9T7dZsSmm8-21" target="SDUCGOUq9v9T7dZsSmm8-24">
          <mxGeometry relative="1" as="geometry" />
        </mxCell>
        <mxCell id="SDUCGOUq9v9T7dZsSmm8-21" value="Expected value" style="ellipse;whiteSpace=wrap;html=1;fontSize=14;align=center;opacity=80;fillColor=#d5e8d4;strokeColor=#82b366;" vertex="1" parent="1">
          <mxGeometry x="545" y="345" width="120" height="50" as="geometry" />
        </mxCell>
        <mxCell id="SDUCGOUq9v9T7dZsSmm8-23" value="return&lt;br&gt;x&lt;br&gt;probability" style="text;html=1;strokeColor=none;fillColor=none;align=center;verticalAlign=middle;whiteSpace=wrap;rounded=0;fontSize=14;opacity=80;" vertex="1" parent="1">
          <mxGeometry x="568.75" y="384" width="72.5" height="70" as="geometry" />
        </mxCell>
        <mxCell id="SDUCGOUq9v9T7dZsSmm8-27" style="edgeStyle=orthogonalEdgeStyle;rounded=0;orthogonalLoop=1;jettySize=auto;html=1;exitX=0.5;exitY=1;exitDx=0;exitDy=0;entryX=0.5;entryY=0;entryDx=0;entryDy=0;fontSize=14;targetPerimeterSpacing=6;" edge="1" parent="1" source="SDUCGOUq9v9T7dZsSmm8-24" target="SDUCGOUq9v9T7dZsSmm8-26">
          <mxGeometry relative="1" as="geometry" />
        </mxCell>
        <mxCell id="SDUCGOUq9v9T7dZsSmm8-24" value="Doesn&#39;t really make a difference" style="text;html=1;strokeColor=none;fillColor=none;align=center;verticalAlign=middle;whiteSpace=wrap;rounded=0;fontSize=14;opacity=80;" vertex="1" parent="1">
          <mxGeometry x="710" y="350" width="160" height="40" as="geometry" />
        </mxCell>
        <mxCell id="SDUCGOUq9v9T7dZsSmm8-26" value="Utility" style="ellipse;whiteSpace=wrap;html=1;fontSize=14;align=center;opacity=80;fillColor=#dae8fc;strokeColor=#6c8ebf;fontStyle=1" vertex="1" parent="1">
          <mxGeometry x="740" y="460" width="100" height="40" as="geometry" />
        </mxCell>
        <mxCell id="SDUCGOUq9v9T7dZsSmm8-30" style="edgeStyle=orthogonalEdgeStyle;rounded=0;orthogonalLoop=1;jettySize=auto;html=1;exitX=0.5;exitY=1;exitDx=0;exitDy=0;entryX=0.5;entryY=0;entryDx=0;entryDy=0;fontSize=14;targetPerimeterSpacing=6;" edge="1" parent="1" source="SDUCGOUq9v9T7dZsSmm8-28" target="SDUCGOUq9v9T7dZsSmm8-29">
          <mxGeometry relative="1" as="geometry" />
        </mxCell>
        <mxCell id="SDUCGOUq9v9T7dZsSmm8-28" value="is relative!" style="text;html=1;strokeColor=none;fillColor=none;align=center;verticalAlign=middle;whiteSpace=wrap;rounded=0;fontSize=14;opacity=80;" vertex="1" parent="1">
          <mxGeometry x="745" y="494" width="90" height="30" as="geometry" />
        </mxCell>
        <mxCell id="SDUCGOUq9v9T7dZsSmm8-29" value="Not a linear function" style="text;html=1;strokeColor=none;fillColor=none;align=center;verticalAlign=middle;whiteSpace=wrap;rounded=0;fontSize=14;opacity=80;" vertex="1" parent="1">
          <mxGeometry x="715" y="580" width="150" height="30" as="geometry" />
        </mxCell>
        <mxCell id="SDUCGOUq9v9T7dZsSmm8-31" value="" style="shape=image;verticalLabelPosition=bottom;labelBackgroundColor=#ffffff;verticalAlign=top;aspect=fixed;imageAspect=0;image=data:image/png,iVBORw0KGgoAAAANSUhEUgAABCIAAAMMCAYAAACG0AabAAAMaGlDQ1BJQ0MgUHJvZmlsZQAASImVVwdYU8kWnltSSWiBCEgJvQnSq5QQWgABqYKNkAQSSowJQcVeFhVcu4hgRVdFFF1dAbEh9rIo9r5YUFHWxYKiqLwJCei6r3zvfN/c+XPmzH9KZu6dAUCrhyeV5qHaAORLCmQJESGs0WnpLFI7IANTQAEWAOfx5VJ2fHwMgDLQ/13e3wCIsr/qpOT65/h/FV2BUM4HABkLcaZAzs+HuAkAfB1fKisAgKjUW04ukCrxbIj1ZDBAiFcpcbYK71DiTBU+3G+TlMCB+DIAZBqPJ8sGQPMe1LMK+dmQR/MzxC4SgVgCgNYwiAP5Ip4AYmXsw/LzJypxOcR20F4KMYwH+GR+x5n9N/7MQX4eL3sQq/LqF3KoWC7N4039P0vzvyU/TzHgwwY2mkgWmaDMH9bwVu7EaCWmQdwpyYyNU9Ya4h6xQFV3AFCqSBGZrLJHjflyDqwfYELsIuCFRkNsDHG4JC82Rq3PzBKHcyGGqwWdIi7gJkFsAPFCoTwsUW2zSTYxQe0LrcuScdhq/VmerN+v0tcDRW4yW83/RiTkqvkxzSJRUirEVIitCsUpsRBrQuwsz02MVtuMKBJxYgdsZIoEZfxWECcIJREhKn6sMEsWnqC2L8mXD+SLbRKJubFqvK9AlBSpqg92ks/rjx/mgl0WStjJAzxC+eiYgVwEwtAwVe7Yc6EkOVHN0yMtCElQzcWp0rx4tT1uIcyLUOotIPaQFyaq5+IpBXBxqvjxLGlBfJIqTrwohxcVr4oHXwZiAAeEAhZQwJYJJoIcIG7prO+Ev1Qj4YAHZCAbCIGTWjMwI7V/RAKfiaAI/AmREMgH54X0jwpBIdR/GdSqnk4gq3+0sH9GLngKcT6IBnnwt6J/lmTQWwp4AjXif3jnwcaH8ebBphz/9/oB7TcNG2pi1BrFgEeW1oAlMYwYSowkhhPtcSM8EPfHY+AzGDY33Af3Hcjjmz3hKaGV8IhwndBGuD1BPFf2Q5QjQRvkD1fXIvP7WuA2kNMTD8EDIDtkxpm4EXDCPaAfNh4EPXtCLUcdt7IqrB+4/5bBd/+G2o7iQkEpQyjBFLsfZ2o6aHoOsihr/X19VLFmDtabMzjyo3/Od9UXwD76R0tsIbYfO4Mdx85hh7F6wMKOYQ3YReyIEg+urif9q2vAW0J/PLmQR/wPfzy1T2Ul5S41Lh0un1VjBcIpBcqNx5konSoTZ4sKWGz4dRCyuBK+8zCWm4ubKwDKb43q9fWW2f8NQZjnv+nmXQAg4FxfX9+hb7roLAD2nYDb/zs7263wHQ19nd3OV8gKVTpc+SDAt4QW3GmG8FtmCexgPm7AC/iDYBAGokAcSAJpYDyssgiucxmYDKaDOaAYlIJlYDWoABvBFrAD7Ab7QD04DI6D0+ACuAyug7tw9bSDl6ALvAe9CIKQEDrCQAwRM8QacUTcEB8kEAlDYpAEJA3JQLIRCaJApiPzkFJkBVKBbEaqkV+Rg8hx5BzSitxGHiIdyBvkE4qhNFQPNUFt0OGoD8pGo9EkdByajU5Ci9D56BK0HK1Cd6F16HH0AnodbUNfot0YwDQwJmaOOWE+GAeLw9KxLEyGzcRKsDKsCqvFGuH/fBVrwzqxjzgRZ+As3Amu4Eg8Gefjk/CZ+GK8At+B1+En8av4Q7wL/0qgE4wJjgQ/ApcwmpBNmEwoJpQRthEOEE7BvdROeE8kEplEW6I33ItpxBziNOJi4nriHmITsZX4mNhNIpEMSY6kAFIciUcqIBWT1pJ2kY6RrpDaST1kDbIZ2Y0cTk4nS8hzyWXkneSj5CvkZ+ReijbFmuJHiaMIKFMpSylbKY2US5R2Si9Vh2pLDaAmUXOoc6jl1FrqKeo96lsNDQ0LDV+NURpijdka5Rp7Nc5qPNT4SNOlOdA4tLE0BW0JbTutiXab9pZOp9vQg+np9AL6Eno1/QT9Ab1Hk6HprMnVFGjO0qzUrNO8ovlKi6JlrcXWGq9VpFWmtV/rklanNkXbRpujzdOeqV2pfVD7pna3DkPHVSdOJ19nsc5OnXM6z3VJuja6YboC3fm6W3RP6D5mYAxLBofBZ8xjbGWcYrTrEfVs9bh6OXqlerv1WvS69HX1PfRT9KfoV+of0W9jYkwbJpeZx1zK3Me8wfw0xGQIe4hwyKIhtUOuDPlgMNQg2EBoUGKwx+C6wSdDlmGYYa7hcsN6w/tGuJGD0SijyUYbjE4ZdQ7VG+o/lD+0ZOi+oXeMUWMH4wTjacZbjC8ad5uYmkSYSE3Wmpww6TRlmgab5piuMj1q2mHGMAs0E5utMjtm9oKlz2Kz8ljlrJOsLnNj80hzhflm8xbzXgtbi2SLuRZ7LO5bUi19LLMsV1k2W3ZZmVmNtJpuVWN1x5pi7WMtsl5jfcb6g42tTarNApt6m+e2BrZc2yLbGtt7dnS7ILtJdlV21+yJ9j72ufbr7S87oA6eDiKHSodLjqijl6PYcb1j6zDCMN9hkmFVw2460ZzYToVONU4PnZnOMc5zneudXw23Gp4+fPnwM8O/uni65Llsdbnrqusa5TrXtdH1jZuDG9+t0u2aO9093H2We4P7aw9HD6HHBo9bngzPkZ4LPJs9v3h5e8m8ar06vK28M7zXed/00fOJ91nsc9aX4BviO8v3sO9HPy+/Ar99fn/5O/nn+u/0fz7CdoRwxNYRjwMsAngBmwPaAlmBGYGbAtuCzIN4QVVBj4ItgwXB24Kfse3ZOexd7FchLiGykAMhHzh+nBmcplAsNCK0JLQlTDcsOawi7EG4RXh2eE14V4RnxLSIpkhCZHTk8sibXBMun1vN7YryjpoRdTKaFp0YXRH9KMYhRhbTOBIdGTVy5ch7sdaxktj6OBDHjVsZdz/eNn5S/KFRxFHxoypHPU1wTZiecCaRkTghcWfi+6SQpKVJd5PtkhXJzSlaKWNTqlM+pIamrkhtGz189IzRF9KM0sRpDemk9JT0bendY8LGrB7TPtZzbPHYG+Nsx00Zd2680fi88UcmaE3gTdifQchIzdiZ8ZkXx6vidWdyM9dldvE5/DX8l4JgwSpBhzBAuEL4LCsga0XW8+yA7JXZHaIgUZmoU8wRV4hf50TmbMz5kBuXuz23Ly81b08+OT8j/6BEV5IrOTnRdOKUia1SR2mxtG2S36TVk7pk0bJtckQ+Tt5QoAcP9RcVdoqfFA8LAwsrC3smp0zeP0VnimTKxakOUxdNfVYUXvTLNHwaf1rzdPPpc6Y/nMGesXkmMjNzZvMsy1nzZ7XPjpi9Yw51Tu6c3+e6zF0x99281HmN803mz57/+KeIn2qKNYtlxTcX+C/YuBBfKF7Yssh90dpFX0sEJedLXUrLSj8v5i8+/7Prz+U/9y3JWtKy1GvphmXEZZJlN5YHLd+xQmdF0YrHK0eurFvFWlWy6t3qCavPlXmUbVxDXaNY01YeU96w1mrtsrWfK0QV1ytDKvesM163aN2H9YL1VzYEb6jdaLKxdOOnTeJNtzZHbK6rsqkq20LcUrjl6daUrWd+8fmlepvRttJtX7ZLtrftSNhxstq7unqn8c6lNWiNoqZj19hdl3eH7m6odardvIe5p3Qv2KvY++LXjF9v7Ive17zfZ3/tb9a/rTvAOFBSh9RNreuqF9W3NaQ1tB6MOtjc6N944JDzoe2HzQ9XHtE/svQo9ej8o33Hio51N0mbOo9nH3/cPKH57onRJ66dHHWy5VT0qbOnw0+fOMM+c+xswNnD5/zOHTzvc77+gteFuoueFw/87vn7gRavlrpL3pcaLvtebmwd0Xr0StCV41dDr56+xr124Xrs9dYbyTdu3Rx7s+2W4Nbz23m3X98pvNN7d/Y9wr2S+9r3yx4YP6j6w/6PPW1ebUcehj68+Cjx0d3H/Mcvn8iffG6f/5T+tOyZ2bPq527PD3eEd1x+MeZF+0vpy97O4j91/lz3yu7Vb38F/3Wxa3RX+2vZ6743i98avt3+zuNdc3d894P3+e97P5T0GPbs+Ojz8cyn1E/Peid/Jn0u/2L/pfFr9Nd7ffl9fVKejNd/FMBgQ7PgueHNdgDoaQAw4L2NOkZ1F+wXRHV/7UfgP2HVfbFfvACohZ3yGM9pAmAvbDbB8KoCm/IInxQMUHf3waYWeZa7m4qLBm9ChJ6+vrcmAJAaAfgi6+vrXd/X9wWeY7DbADRNUt1BlUKEd4ZNwUp03WAMDn4Q1f30uxx/7IEyAg/wY/8vvY+Pk/jy0/QAAACKZVhJZk1NACoAAAAIAAQBGgAFAAAAAQAAAD4BGwAFAAAAAQAAAEYBKAADAAAAAQACAACHaQAEAAAAAQAAAE4AAAAAAAAAkAAAAAEAAACQAAAAAQADkoYABwAAABIAAAB4oAIABAAAAAEAAAQioAMABAAAAAEAAAMMAAAAAEFTQ0lJAAAAU2NyZWVuc2hvdGZ8av8AAAAJcEhZcwAAFiUAABYlAUlSJPAAAAHXaVRYdFhNTDpjb20uYWRvYmUueG1wAAAAAAA8eDp4bXBtZXRhIHhtbG5zOng9ImFkb2JlOm5zOm1ldGEvIiB4OnhtcHRrPSJYTVAgQ29yZSA2LjAuMCI+CiAgIDxyZGY6UkRGIHhtbG5zOnJkZj0iaHR0cDovL3d3dy53My5vcmcvMTk5OS8wMi8yMi1yZGYtc3ludGF4LW5zIyI+CiAgICAgIDxyZGY6RGVzY3JpcHRpb24gcmRmOmFib3V0PSIiCiAgICAgICAgICAgIHhtbG5zOmV4aWY9Imh0dHA6Ly9ucy5hZG9iZS5jb20vZXhpZi8xLjAvIj4KICAgICAgICAgPGV4aWY6UGl4ZWxZRGltZW5zaW9uPjc4MDwvZXhpZjpQaXhlbFlEaW1lbnNpb24+CiAgICAgICAgIDxleGlmOlBpeGVsWERpbWVuc2lvbj4xMDU4PC9leGlmOlBpeGVsWERpbWVuc2lvbj4KICAgICAgICAgPGV4aWY6VXNlckNvbW1lbnQ+U2NyZWVuc2hvdDwvZXhpZjpVc2VyQ29tbWVudD4KICAgICAgPC9yZGY6RGVzY3JpcHRpb24+CiAgIDwvcmRmOlJERj4KPC94OnhtcG1ldGE+ChRv1VIAAAAcaURPVAAAAAIAAAAAAAABhgAAACgAAAGGAAABhgAAj78hVdPhAABAAElEQVR4AezdCfxV0/7/8dVAZUiKQpHKUFREA5kqyRiZUkjCTUoy3v81XPM8XlMiJHHNyVBEphQy1DVEg1JKUqJSZu3/eq/f3fvuc777nO853+8553uG13o8TmfYa6+91nPv77fv/pw1VPNsMiQEEEAAAQQQQAABBBBAAAEEEEAgBwLVCETkQJlDIIAAAggggAACCCCAAAIIIICAEyAQwYWAAAIIIIAAAggggAACCCCAAAI5EyAQkTNqDoQAAggggAACCCCAAAIIIIAAAgQiuAYQQAABBBBAAAEEEEAAAQQQQCBnAgQickbNgRBAAAEEEEAAAQQQQAABBBBAgEAE1wACCCCAAAIIIIAAAggggAACCORMgEBEzqg5EAIIIIAAAggggAACCCCAAAIIEIjgGkAAAQQQQAABBBBAAAEEEEAAgZwJEIjIGTUHQgABBBBAAAEEEEAAAQQQQAABAhFcAwgggAACCCCAAAIIIIAAAgggkDMBAhE5o+ZACCCAAAIIIIAAAggggAACCCBAIIJrAAEEEEAAAQQQQAABBBBAAAEEciZAICJn1BwIAQQQQAABBBBAAAEEEEAAAQQIRHANIIAAAggggAACCCCAAAIIIIBAzgQIROSMmgMhgAACCCCAAAIIIIAAAggggACBCK4BBBBAAAEEEEAAAQQQQAABBBDImQCBiJxRcyAEEEAAAQQQQAABBBBAAAEEECAQwTWAAAIIIIAAAggggAACCCCAAAI5EyAQkTNqDoQAAggggAACCCCAAAIIIIAAAgQiuAYQQAABBBBAAAEEEEAAAQQQQCBnAgQickbNgRBAAAEEEEAAAQQQQAABBBBAgEAE1wACCCCAAAIIIIAAAggggAACCORMgEBEzqg5EAIIIIAAAggggAACCCCAAAIIEIjgGkAAAQQQQAABBBBAAAEEEEAAgZwJEIjIGTUHQgABBBBAAAEEEEAAAQQQQAABAhFcAwgggAACCCCAAAIIIIAAAgggkDMBAhE5o+ZACCCAAAIIIIAAAggggAACCCBAIIJrAAEEEEAAAQQQQAABBBBAAAEEciZAICJn1BwIAQQQQAABBBBAAAEEEEAAAQQIRHANIIAAAggggAACCCCAAAIIIIBAzgQIROSMmgMhgAACCCCAAAIIIIAAAggggACBCK4BBBBAAAEEEEAAAQQQQAABBBDImQCBiJxRcyAEEEAAAQQQQAABBBBAAAEEECAQwTWAAAIIIIAAAggggAACCCCAAAI5EyAQkTNqDoQAAggggAACCCCAAAIIIIAAAgQiuAYQQAABBBBAAAEEEEAAAQQQQCBnAgQickbNgRBAAAEEEEAAAQQQQAABBBBAgEAE1wACCCCAAAIIIIAAAggggAACCORMgEBEzqg5EAIIIIAAAggggAACCCCAAAIIEIjgGkAAAQQQQAABBBBAAAEEEEAAgZwJEIjIGTUHQgABBBBAAAEEEEAAAQQQQAABAhFcAwgggAACCCCAAAIIIIAAAgggkDMBAhE5o+ZACCCAAAIIIIAAAggggAACCCBAIIJrAAEEEEAAAQQQQAABBBBAAAEEciZAICJn1BwIAQQQQAABBBBAAAEEEEAAAQQIRHANIIAAAggggAACCCCAAAIIIIBAzgQIROSMmgMhgAACCCCAAAIIIIAAAggggACBCK4BBBBAAAEEEEAAAQQQQAABBBDImQCBiJxRcyAEEEAAAQQQQAABBBBAAAEEECAQwTWAAAIIIIAAAggggAACCCCAAAI5EyAQkTNqDoQAAggggAACCCCAAAIIIIAAAgQiuAYQQAABBBBAAAEEEEAAAQQQQCBnAgQickbNgRBAAAEEEEAAAQQQQAABBBBAgEAE1wACCCCAAAIIIIAAAggggAACCORMgEBEzqg5EAIIIIAAAggggAACCCCAAAIIEIjgGkAAAQQQQAABBBBAAAEEEEAAgZwJEIjIGTUHQgABBBBAAAEEEEAAAQQQQAABAhFcAwgggAACCCCAAAIIIIAAAgggkDMBAhE5o+ZACCCAAAIIIIAAAggggAACCCBAIIJrAAEEEEAAAQQQQAABBBBAAAEEciZAICJn1BwIAQQQQAABBBBAAAEEEEAAAQQIRHANIIAAAggggAACCCCAAAIIIIBAzgSKIhBx4403mptvvjlA++CDD0zTpk2D9+W9uPPOO81VV10VZJs8ebJp2bJl8D7+xZtvvmm6dOkS/7F7r/1++OEH9/rCCy8055xzjnvteZ5p1KhRsM8tt9xi+vXrF7zXi0T7xmT675tkdYjKn6nP/vjjD9OiRQvz66+/uiJr1aplvvjiC7PRRhulfYhvv/3WtGvXzqxbt87te9xxxxmdi8qmVKwrewz2RwABBBBAAAEEEEAAAQQQqKCAvWkr+HTppZd6tvnBY968eWm16frrrw/2VTmffvpp5P7z58/3evbs6fJGZrAfNmjQICjr6quvDrL99ddfwec6xr333hts818k2tffrudU6hDOn43Xffv2jWnL6NGjK3QYG0CKKWfUqFEVKid+p1Ss4/fhPQIIIIAAAggggAACCCCAQG4EiqJHxGWXXWauvPLKIBRjAxGmefPmwfvyXtxwww3mH//4R5DNBiJM69atg/d68dprrxkbhDC//PKL+9yenpjt/pvNNtvMrFixwr21gQhz8cUXu9f61r9GjRp+NmMDEWbgwIHBe71ItK+fKdU6+Pmz9ax6dO/ePSi+R48eZuLEicH7VF/IeObMmS573bp1jXpIbLDBBqnunjBfKtYJd2YDAggggAACCCCAAAIIIIBAVgUIRFjeVAIRDzzwgDnttNOCk5EoELHzzjubxYsXu3zXXXedGTx4sHudys1xon39g6ZaBz9/tp7Vdg3P+Oqrr9whFGBRm7fYYouUD/nRRx+Z9u3bB/kHDRpk7rnnnuB9ZV6kYl2Z8tkXAQQQQAABBBBAAAEEEECg4gIEIqxdJgMRiU5FJm6O8yUQoTZqTg07JCZo7m233WbOPvvs4H15L4YOHWruuuuuINuHH35odt999+B9ZV5kwroyx2dfBBBAAAEEEEAAAQQQQACBxAIEIqwNgYjEF0iiLYsWLTLbbrttMNGkgggKJqSSfv/9d7PVVlsFQ1g0YeX06dNT2TWlPAQiUmIiEwIIIIAAAggggAACCCBQJQIEIix7skDE0qVLzcqVK83TTz9t/vnPfwYnSStF+GnHHXc01apVc2/nzp1r7GSJ7vXmm29u7ASU7nUqN8eJ9k2lDhtvvLH56aef/ColXfXDz6R2qWwlrXrRpEkTf1NKzwcffLB5+eWXg7wySbbaiJ/x2WefNUcddZT/1vWMGDJkSPDef7F8+XIze/ZsM2vWLPPll1+6j+vVq2d2220307FjR6PXUSkVa5XpJw0pSVSW8mjuilWrVrnsderUKXdFlp9//tlonpGPP/7Y1VsruOy6665ml112qdDqIn49eUYAAQQQQAABBBBAAAEEikIgN3NiZvco2Vw14/TTT49Z2cGe9DLv7VKWQQMTrXyRykoOifZNpQ7nnXdeTL2mTJkS1CnRi/79+wf7bL311omyJfz8qaeeCvaXyyWXXJIwb3jDEUccEexnb+y9H3/8MbzZs0Efz042GuSJMrfLhnpalcT2rojZV2/Ksy5ve3yBAwYMCOpiAyDxm4P3NgDh2YCKV7169SB/uO42WOXZuTC8tWvXBvvwAgEEEEAAAQQQQAABBBAoNQFTDA0mEGE8O7Qh5uZXN7zJkm6GbS+IYB8FMtJNv/32m2d7fQRlNGvWrNwili1b5q233nrBPv369Qv2UUDnkEMOCbaFb+ITve7cubNne0AEZehFeYGG8rbHFGbfpBKIsJNverY3SEp1tz1o3PmKPw7vEUAAAQQQQAABBBBAAIFSECAQYc/y9ddfH3MDabvVB+f+sccec99yd+3aNSaPvvnWQ70AwjfCiXo1pHLzm2jfVOvQoUOHoI7169f3FChIlMaMGRPk1U3+J598kihr0s/PPffcmHKmTp2aNP+//vWvmPxvvfVWkN8uaRqzzS7l6Z166qme9hk5cqSngFOnTp1i8qju48ePD8rQi/Ksy9seU5h9U14gwg5xiQnIqE4Kypx//vmeXQnEU5CnTZs2MfVu3Lixt2bNmvhD8R4BBBBAAAEEEEAAAQQQKHoBAhH2FCcLRPhXwP333x9zI+l/Hv+cKJiQys1von39Y5RXh+HDh8fUcdy4cf6uZZ4POOCAIK+dc6HM9lQ/+Oyzz4JydAN+xhlnJN3VTkwZ5N9hhx1i8trlS4NtjRo18uzyoDHb/Td2tY0gn45p55vwN7nn8qzL2x5TmH1TXiDinHPOiamPhtLED7/4448/vLPOOism38UXXxx/KN4jgAACCCCAAAIIIIAAAkUvQCDCnuJiCURoroXatWsHN7vHHHNM5AX8zTffxMxjcMcdd0TmS/XDPfbYIzimgilR8zaoLPW6UODAf9hJQoNDTJo0Kfhc2x9++OFgW9QLO/FjkL99+/YxWcoLNJS3PaYw+yZZIMJO0Bkz1KRLly4xPWTiyzr++OODeutcLVy4MD4L7xFAAAEEEEAAAQQQQACBohYgEGFPb7EEInSl9unTJ+ZGV8MG4tONN94Y5NF8Dd9//318lrTea9iEH1zQ8/PPPx+5f3hCTR3XrtgR5LOrY7ghGEOHDnU9HDTxY7LUt2/f4Jga9hBO5QUaytseLkuvkwUibrrppqAeartdKSN+95j3n3/+eUz+8gIuMTvzBgEEEEAAAQQQQAABBBAoAgECEfYkFlMgYuLEiTE3uhrOEZ9at24d5DnyyCPjN6f9fvXq1d6GG24YlHnccceVKePPP//07DKZQZ744RRldoj4QD0tZsyY4d12222eJnz0gx+tWrWKyV1eoKG87TGF2TfJAhEDBw4M6rHpppsm7Q3hl6v5O/y62yVh/Y95RgABBBBAAAEEEEAAAQRKQqAoAhGXXXZZcGOnGzx9u55Ouvzyy2P217wH8am8+Rn8/InmeUjl5jfRvn7ZqdRBx2nSpEnQHg0VCKf41TWee+658OYKvw7frGtJTgUnwunFF18M6qRzNGHChPDmMq+1CoUmetT8C4cddpi3/fbbezVr1owpw7+Zr8pARPwkpqpjeQ+/3npWDxYSAggggAACCCCAAAIIIFBKAkURiLjllltiblA/+OCDtM6hlroM3xxGjdtPJQiggyYKJuQqEKE6aBJEvz3VqlXzFi1apI9dOvvss4NtDRs29DSJYibSlClTgnJ17FGjRsUUe+yxxwbbt956a7eyRUyG/755+umnvfDqH347kj1XZSAiHPRJVsdE29RWEgIIIIAAAggggAACCCBQSgJFEYh48MEHg5tc3fC9/vrraZ3DI444Imb/VatWldm/kAIRc+fOjWmPPymkgg5ajcK/KVZvg0ymli1bBmV37949KPqHH37watWqFWzTMpxRKX5pT7+e/vNGG23kqQeCesDstddeQXnZDkScdNJJwbE6duwYU/XwcBPVU4GJdB5avYSEAAIIIIAAAggggAACCJSSQFEEIp599tngRlE3g/fdd19a5zD8DXz16tUjx/kXUiBCjd9nn30CEy2ZqRQ/f8R//vMf93mm/glP3CjHJUuWuKI1xMIPJujzBQsWlDnkK6+84qn3hp9Pzwo2XHvttd748ePdPuvWrQv2C09Wqfkiwqm83ifx27UcaLIUDlTFByL23nvvoM777rtvsmLYhgACCCCAAAIIIIAAAgggYAWKIhDx6aefBjeDuoHt379/yid32bJl3gYbbBDsv9NOO0XuW2iBiPheIrr5HzJkSNDOXXfdNbKdlflQq2BoNQw/mOAvC6obdP+zAw88MPIQp512WpBHeW+++ebIfP6H4bkZtttuO/9j9xwfaLj33ntjtuuNXx89a2hPshQOVMUHIk455ZSgrLp160YGseLL1vwZmRoSE1827xFAAAEEEEAAAQQQQACBfBcoikCEkMNDDrSCQ3hehGQn4aKLLgpuJHVTesYZZ0Rmjw9EhL+dD++QyzkiEtVB9fnpp59iVrLQsAfNzeDfgOt9NpJW4fCPoYkyv/32W0+9IPzPnnrqqcjDKpjg52nevHlkHv9DtU0TYvr5t912W3+Te04lELH++usH+59//vkx+4ffaJhOeJLM+EBE/IorzzzzTHj3Mq91XdauXdurUaOGOx8XXHBBmTx8gAACCCCAAAIIIIAAAggUs0DRBCJOPPHE4MZSN6gamrBixYqk527q1KmevsX2b2j1/Pzzz0fuM2bMmJh8uhmOStkMRKRaB79eJ598clDnTTbZJHitXgvqCZKNFF4dQzfbV1xxRXDczTff3NMSnFFJ2/zz0L59+6gs7rNff/3V69GjR5BX+zRu3DgmfyqBCO3jH0/H/v7772PK0BstOdqzZ88gn/LHByI+//zzmECFgj1r1qwpU5b/QficqDydUxICCCCAAAIIIIAAAgggUEoCRROImDVrVsyEiLrJ22abbVy3e62CoZtTPb7++mvvzTffdMM34uck2G+//RKe+7Fjx8bckGo+hJ9//tk9wjtlMxCRah38+qid/s12+FlzHmQr6eY9fJMfPu55552X8LCa3NLPq/OitsantWvXeuH5Gvz86gETTqkEIuIDV7179/Y0qaafNMwkPOzCP1Z8IEL5zz333KDuyqc5OWbOnOkX5Z5/++0378ILL4zJp4ku9TkJAQQQQAABBBBAAAEEECglgWpqrL15KopkJzY0dunKyLbY7vXG3uAaOzY/cvtmm21mJk+ebOwKDJHbP/roI2O/qS+zzQ47MPPmzTN2eIDbpnJsTwz3+uqrrw7qY4dRGNtDINjfzltgBg4cGLzXi0T7+plSrYOfX6d2++23d/XzP9OzndzT9OrVK/xRRl/rHOhcxKcvvvjC2JU14j927+2EkWbo0KHBNp2ro446yuy5557GBgjcuXn//feN7VER5Am/kHn9+vXdR6lYv/vuu6Zz587hItz56dSpk7E9Goydd0RBupjtemMDEWbatGkxn9s5H4ydMNPY4EXwuV0lxJXfpk0bYwNWxk7GaWwQLNiua8EGW8zhhx8efMYLBBBAAAEEEEAAAQQQQKAkBBSIKKY0fPhwLzz+357EmG+ho95r+UcbTEjKoCEFbdu2jSxrwoQJwb7Z7BGRah2CytgXV155ZUydbbAj4fCI8H6Vef3ll19GroCRrEzNdxE/5CLqXOkz9XQZOXJkTLvCE1Km0iNCdbGBj5gyoo6n3g3h+UGiekSorDlz5ng2sFFueTqG5swYPXq0diMhgAACCCCAAAIIIIAAAiUnUDRDM8JnTqto6CZTN91RN5f+Z1oNQTeZ6vKfStLEi1quMTz5osq6/fbbg93DE0Leeuutwee60Q5PsBg1N0CifYNC7ItU6hDOr9Uy/PbqediwYeHNWXsdXtVCx33ooYfKPdYvv/ziXXfddWXm7dD+Gq7RrFkz75prrvG06oRS2Cs83CQVa78ymjzT9maJMdLxNG/ECSec4GmyykmTJgXbNQFnoqQAiFb7CNdLZfkPXTcqU8OISAgggAACCCCAAAIIIIBAqQoU1dAMe8MXk+x8BW5Ygl2pwCxevNjYiQ5Nw4YNjZ3DwNibRbPVVlvF5E/1zfLly838+fONnfTR2G/n3ZCKVPfNVL5U6xA/BGHGjBnGLt2ZqWpkpRwbkDC2V4V7yNj2MjGtW7c2G2+8cVaOp0Ll+eGHH7ry7aodbqhFZQ6m4RqfffaZG1ai4SQqUw87OWplimVfBBBAAAEEEEAAAQQQQKDgBYo6EFHwZycDDTj99NPNfffd50rafffdg5vtDBRNEQgggAACCCCAAAIIIIAAAgikLUAgIm2ywtnBDsswO++8s5ssUbUeMWKEUWCChAACCCCAAAIIIIAAAggggEBVCRCIqCr5LBz3+++/NxqKseWWWxqtUHHJJZcEKzVoeINWbdhggw2ycGSKRAABBBBAAAEEEEAAAQQQQCA1AQIRqTkVRK5///vfxk6GGFnXu+++2wwePDhyGx8igAACCCCAAAIIIIAAAgggkCsBAhG5ks7BcaZOnWrsqh5ljjRo0CBzzz33lPmcDxBAAAEEEEAAAQQQQAABBBDItQCBiFyLZ/F433zzjdlpp52MVmxQatGihenVq5e5/vrrTc2aNbN4ZIpGAAEEEEAAAQQQQAABBBBAIDUBAhGpORVMLrsOrVtatHr16qZZs2YFU28qigACCCCAAAIIIIAAAgggUBoCBCJK4zzTSgQQQAABBBBAAAEEEEAAAQTyQoBARF6cBiqBAAIIIIAAAggggAACCCCAQGkIEIgojfNMKxFAAAEEEEAAAQQQQAABBBDICwECEXlxGqgEAggggAACCCCAAAIIIIAAAqUhQCCiNM4zrUQAAQQQQAABBBBAAAEEEEAgLwQIROTFaaASCCCAAAIIIIAAAggggAACCJSGAIGI0jjPtBIBBBBAAAEEEEAAAQQQQACBvBAgEJEXp4FKIIAAAggggAACCCCAAAIIIFAaAgQiSuM800oEEEAAAQQQQAABBBBAAAEE8kKAQERenAYqgQACCCCAAAIIIIAAAggggEBpCBCIKI3zTCsRQAABBBBAAAEEEEAAAQQQyAsBAhF5cRqoBAIIIIAAAggggAACCCCAAAKlIUAgojTOM61EAAEEEEAAAQQQQAABBBBAIC8ECETkxWmgEggggAACCCCAAAIIIIAAAgiUhgCBiNI4z7QSAQQQQAABBBBAAAEEEEAAgbwQIBCRF6eBSiCAAAIIIIAAAggggAACCCBQGgIEIkrjPNNKBBBAAAEEEEAAAQQQQAABBPJCgEBEXpwGKoEAAggggAACCCCAAAIIIIBAaQgQiCiN80wrEUAAAQQQQAABBBBAAAEEEMgLAQIReXEaqAQCCCCAAAIIIIAAAggggAACpSFAIKI0zjOtRAABBBBAAAEEEEAAAQQQQCAvBAhE5MVpoBIIIIAAAggggAACCCCAAAIIlIYAgYjSOM+0EgEEEEAAAQQQQAABBBBAAIG8ECAQkRengUoggAACCCCAAAIIIIAAAgggUBoCBCJK4zzTSgQQQAABBBBAAAEEEEAAAQTyQoBARF6cBiqBAAIIIIAAAggggAACCCCAQGkIEIgojfNMKxFAAAEEEEAAAQQQQAABBBDICwECEXlxGqgEAggggAACCCCAAAIIIIAAAqUhQCCiNM4zrUQAAQQQQAABBBBAAAEEEEAgLwQIROTFaaASCCCAAAIIIIAAAggggAACCJSGAIGI0jjPtBIBBBBAAAEEEEAAAQQQQACBvBAgEJEXp4FKIIAAAggggAACCCCAAAIIIFAaAgQiSuM800oEEEAAAQQQQAABBBBAAAEE8kKAQERenAYqUYgCP/zwg5k/f75p1qyZadCgQSE2gTojgAACCCCAAAIIIIAAAjkXIBCRc3IOWCwC//73v80JJ5xgxowZY0488cRiaRbtQAABBBBAAAEEEEAAAQSyKkAgIqu8FF7MAgQiivns0jYEEEAAAQQQQAABBBDIlgCBiGzJUm7RCxCIKPpTTAMRQAABBBBAAAEEEEAgCwIEIrKASpGlIUAgojTOM61EAAEEEEAAAQQQQACBzAoQiMisJ6WVkACBiBI62TQVAQQQQAABBBBAAAEEMiZAICJjlBRUagIEIkrtjNNeBBBAAAEEEEAAAQQQyIQAgYhMKFJGSQoQiCjJ006jEUAAAQQQQAABBBBAoJICBCIqCcjupStAIKJ0zz0tRwABBBBAAAEEEEAAgYoLEIiouB17lrgAgYgSvwBoPgIIIIAAAggggAACCFRIgEBEhdjYCQFjCERwFSCAAAIIIIAAAggggAAC6QsQiEjfjD0QcAIEIrgQEEAAAQQQQAABBBBAAIH0BQhEpG/GHgg4AQIRXAgIIIAAAggggAACCCCAQPoCBCLSN2MPBJwAgQguBAQQQAABBBBAAAEEEEAgfQECEembsQcCToBABBcCAggggAACCCCAAAIIIJC+AIGI9M3YAwEnQCCCCwEBBBBAAAEEEEAAAQQQSF+AQET6ZuyBgBMgEMGFgAACCCCAAAIIIIAAAgikL0AgIn0z9kDACRCI4EJAAAEEEEAAAQQQQAABBNIXIBCRvhl7IOAECERwISCAAAIIIIAAAggggAAC6QsQiEjfjD0QcAIEIrgQEEAAAQQQQAABBBBAAIH0BQhEpG/GHgg4AQIRXAgIIIAAAggggAACCCCAQPoCBCLSN2MPBJwAgQguBAQQQAABBBBAAAEEEEAgfQECEembsQcCToBABBcCAggggAACCCCAAAIIIJC+AIGI9M3YAwEnQCCCCwEBBBBAAAEEEEAAAQQQSF+AQET6ZuyBgBMgEMGFgAACCCCAAAIIIIAAAgikL0AgIn0z9kDACRCI4EJAAAEEEEAAAQQQQAABBNIXIBCRvhl7IOAECERwISCAAAIIIIAAAggggAAC6QsQiEjfjD0QcAIEIrgQEEAAAQQQQAABBBBAAIH0BQhEpG/GHgg4AQIRXAgIIIAAAggggAACCCCAQPoCBCLSN2MPBJwAgQguBAQQQAABBBBAAAEEEEAgfQECEembsQcCToBABBcCAggggAACCCCAAAIIIJC+AIGI9M3YAwEnQCCCCwEBBBBAAAEEEEAAAQQQSF+AQET6ZuyBgBMgEMGFgAACCCCAAAIIIIAAAgikL0AgIn0z9kDACRCI4EJAAAEEEEAAAQQQQAABBNIXIBCRvhl7IOAECERwISCAAAIIIIAAAggggAAC6QsQiEjfjD0QcAIEIrgQEEAAAQQQQAABBBBAAIH0BQhEpG/GHgg4AQIRXAgIIIAAAggggAACCCCAQPoCBCLSN2MPBJwAgQguBAQQQAABBBBAAAEEEEAgfQECEembsQcCToBABBcCAggggAACCCCAAAIIIJC+AIGI9M3YAwEnQCCCCwEBBBBAAAEEEEAAAQQQSF+AQET6ZuyBgBMgEMGFgAACCCCAAAIIIIAAAgikL0AgIn0z9kDACRCI4EJAAAEEEEAAAQQQQAABBNIXIBCRvhl7IOAECERwISCAAAIIIIAAAggggAAC6QsQiEjfjD0QcAIEIrgQEEAAAQQQQAABBBBAAIH0BQhEpG/GHgg4AQIRXAgIIIAAAggggAACCCCAQPoCBCLSN2MPBJwAgQguBAQQQAABBBBAAAEEEEAgfQECEembsQcCToBABBcCAggggAACCCCAAAIIIJC+AIGI9M3YAwEnQCCCCwEBBBBAAAEEEEAAAQQQSF+AQET6ZuyBgBMgEMGFgAACCCCAAAIIIIAAAgikL0AgIn0z9kDACRCI4EJAAAEEEEAAAQQQQAABBNIXIBCRvhl7IOAECERwISCAAAIIIIBAPgr89ddf5pdffjG//fab+fXXX4NHsvfJtqmM8Pbw6/A2Hffbb7/NR5Kc1en77783zz33nOnQoYNp27Ztzo7LgRAoNAECEYV2xqhv3ggQiMibU0FFEEAAAQQQKDqBn3/+2axcudL8+OOPkc/Jtq1evdp4npcRk2rVqpmaNWua9dZbr9xH7dq1zdSpUzNy3EIs5MMPPzS33367eeSRR8xtt91mzjzzTGdXiG2hzghkW4BARLaFKb9oBQhEFO2ppWEIIIAAAghkXGDt2rVm+fLlZtmyZTHPiT5Tj4ZUkgIFG220kdlkk03co169eu5Zn9WpU8dssMEGkc+pblNwQccgJRd45plnzL/+9S8zZcoUM2TIEHP22Web7bbbLvlObEWghAUIRJTwyafplRMgEFE5P/ZGAAEEEECgGATU80Dd8RcvXhz5+Oabb8ySJUvMTz/9lLS566+/vtl0001N/fr13aO81/52PdeoUSNp2WzMnsC6detcAEJBCL1WAEIP9SIhIYBAYgECEYlt2IJAUgECEUl52IgAAggggEBRCGiIxNdff20WLVrknsOv9ZkeiXovKLiw5ZZbmi222MI0atQo4UPb1aOBVFgC8+fPd0GIO++803Tu3NkFII499tjCagS1RaCKBAhEVBE8hy18AQIRhX8OaQECCCCAAALqqbBw4UKzYMEC9/Bf+88aOhGVFGRo3LixadKkidl6661jnv3PGjZsyLCGKLwi+EwBKM0B8fzzz5u+ffu6IETHjh2LoGU0AYHcCBCIyI0zRylCAQIRRXhSaRICCCCAQNEJaCUHDZvQt9dRDw2riEoaItG0aVOzzTbbBI/we/VwqF69etSufFbkApoHQkMxJkyYEAzFUNCJhAACqQsQiEjdipwIxAgQiIjh4A0CCCCAAAJVJqCx+Roy8eWXX5q5c+e6h/9awYfff/+9TN00qWOzZs3Mtttu6x7h1/ps4403LrMPHyDw6KOPuiDEf/7zH3PXXXeZ008/HRQEEKiAAIGICqCxCwISIBDBdYAAAggggEBuBdasWWNmz55tZs2aFTzrtYIPv/76a0xl1FtBQydatGgRPJo3bx681iSPJARSFdCqJ1qaUz0h6tat63pCaGgGCQEEKiZAIKJibuyFAIEIrgEEEEAAAQSyJKDJHxVg+Oyzz8zMmTODZ83boFUqwkkTPW6//fZmhx12cA//tQIQWnqShEBlBT7//HMXgBg5cqTp1q2bC0L07NmzssWyPwIlLUAgoqRPP42vjAA9Iiqjx74IIIAAAgj8n8CyZcvMxx9/bNTVfcaMGe55zpw5RnM7+EnLU2roRKtWrdyjZcuWwWtWm/CVeM6GwEsvveSCEK+88oo55ZRTXBCiTZs22TgUZSJQUgIEIkrqdNPYTAoQiMikJmUhgAACCJSCwLfffuuCDdOnTzcfffSRe2j1gXDScpe60Qs/FICoU6dOOBuvEci6wD333OOGYyhYdvbZZ7uHhmWQEECg8gIEIipvSAklKkAgokRPPM1GAAEEEEhJYMmSJUGwwQ886DM/VatWzWjOhnbt2pnddtvNPfSa1Qd8IZ6rSmDp0qWuF4Tmg1AQTEGI/v37V1V1OC4CRSlAIKIoTyuNyoUAgYhcKHMMBBBAAIFCEFi+fLkLOnzwwQfmww8/dI9w0EETR2ruBj/goGcFHZgwshDObmnVcdq0aS4I8fjjj5tevXq5IMR+++1XWgi0FoEcCBCIyAEyhyhOAQIRxXleaRUCCCCAQHIBrR6gHg7vv/++UeBBz1999VWwkx902H333Y0e7du3d0EHlsMMiHiRpwJPPPGEG4rx7rvvmmHDhrkghJZyJSGAQOYFCERk3pQSS0SAQESJnGiaiQACCJSwwLp169wyme+9957RN8V6aCWLP//8M1Bp2rSp6dChg3so6KDgAxNIBjy8KACB33//PRiKsf766wdBCA0fIiGAQHYECERkx5VSS0CAQEQJnGSaiAACCJSYwKpVq1ywQd8I66HAw8qVKwMFDaVQ0KFjx46mU6dO7pk5HQIeXhSgwNy5c10QYvjw4Wbfffd1vSCOPPLIAmwJVUagsAQIRBTW+aK2eSRAICKPTgZVQQABBBCokMD8+fPN1KlT3eOdd94xM2fONOoFoVSzZk3TunVrs8ceewSPHXbYwfAtcYWo2SkPBV599VU3FGP8+PGmX79+Lgih+UtICCCQfQECEdk35ghFKkAgokhPLM1CAAEEilTgr7/+Mp988omZMmWKefvtt92zltP0U4MGDVzAoXPnzmbPPfd0vR023HBDfzPPCBSVwP333+96QixcuNAFILQyhn4GSAggkBsBAhG5ceYoRShAIKIITypNQgABBIpI4I8//nArWUyePNm89dZbrteDhl74SatY7LXXXsGjZcuW9HbwcXguWoEVK1YE80FoIkoFIE499dSibS8NQyBfBQhE5OuZoV55L0AgIu9PERVEAAEESkpAE0h+9NFH5s033zRvvPGGCzysWbPGGdSoUcO0adPGjYHfZ599zN5772222GKLkvKhsQjo5+P22283Y8aMMYceeqgLQnTv3h0YBBCoAgECEVWAziGLQ4BARHGcR1qBAAIIFKqA53luBYvXXnvNvP76667Xw+rVq11zNL9Du3btzH777eceCjzUq1evUJtKvRGotMDYsWNdTwgNSxo8eLALQqhXEAkBBKpGgEBE1bhz1CIQIBBRBCeRJiCAAAIFJrBkyRIzadIk88orr7jn7777zrWgevXqZpdddjFdu3Z1D83+X7du3QJrHdVFIPMCCtj961//cg/1GtJQjGHDhhkt00lCAIGqEyAQUXX2HLnABQhEFPgJpPoIIIBAAQj89ttvbojFyy+/bPT47LPPjG6slFq0aGHUrXz//fc33bp1Y6K9AjifVDG3AgsWLHABCA3H0ASsCkL07t07t5XgaAggEClAICKShQ8RKF+AQET5RuRAAAEEEEhf4OuvvzYvvfSSe2jYhT/Pg4ZWKODQo0cP92jWrFn6hbMHAiUioLlS1BPiueeeM3369HFBiE6dOpVI62kmAvkvQCAi/88RNcxTAQIReXpiqBYCCCBQYAJa3eKdd94xEyZMcA/1elCqVq2am+fhoIMOMgcffLBbWlNzP5AQQCC5wOjRo10QYtasWcFQDCZnTW7GVgRyLUAgItfiHK9oBAhEFM2ppCEIIIBAzgWWL1/uejyMHz/eTJw40fjLaqrXwwEHHGAOOeQQowAEN085PzUcsIAF9HOkYRjqCdGwYUMXhBg0aFABt4iqI1C8AgQiivfc0rIsCxCIyDIwxSOAAAJFJvDJJ5+YF1980T2mTZtm1q1b51rYunVrt5Sggg+dO3c29HooshNPc3IioJ8vBSBGjRrlhi5pPgj1JCIhgEB+ChCIyM/zQq0KQIBARAGcJKqIAAIIVKHA77//7pbUfP75580LL7xgFi5c6GpTp04dt7LFoYce6gIQTZs2rcJacmgECl9AP18KQmgZ24EDB7qeEK1atSr8htECBIpYgEBEEZ9cmpZdAQIR2fWldAQQQKAQBVauXOnmeVDwQRNOrl692jVjyy23dEGHnj17upUuNthgg0JsHnVGIO8E7rzzTjccQz9r6gWhBz9feXeaqBACZQQIRJQh4QMEUhMgEJGaE7kQQACBYhdYvHixUeBh3LhxRjP1a/JJpTZt2pjDDz/cPTp06OAmnyx2C9qHQK4E9HOnXhB6tGvXzgUgTjjhhFwdnuMggEAlBQhEVBKQ3UtXgEBE6Z57Wo4AAgjMmTPHPPvss+7x/vvvG8/z3NwOe++9tzniiCPcg+U1uU4QyI7A1KlTXQDi6aefNsccc4wZNmyY0c8eCQEECkeAQEThnCtqmmcCBCLy7IRQHQQQQCDLApoMb+zYseaZZ54x/hKbmu9Bq1wceeSRRsMuGjRokOVaUDwCpS3w6KOPuqEY06dPD4ZiNGnSpLRRaD0CBShAIKIATxpVzg8BAhH5cR6oBQIIIJBNAd3s6FtXPebOnesOVbduXTffw1FHHeVm5d9www2zWQXKRgABK/Dzzz8HQzE23nhjF4QYOnQoNgggUKACBCIK9MRR7aoXIBBR9eeAGiCAAALZEJgxY4Z58sknzVNPPWXmzZvnDlG/fn033OLoo492k03WqlUrG4emTAQQiBD44osvXBDivvvuM926dXNBCPVAIiGAQOEKEIgo3HNHzatYgEBEFZ8ADo8AAghkUEBDLZ544gn38Hs+aJiFhlxoDLpuftZbb70MHpGiEEAgFYGXX37ZBSEmTpxoBgwY4IIQbdu2TWVX8iCAQB4LEIjI45ND1fJbgEBEfp8faocAAgiUJ6DeDo8//rh7+HM+qOdDr169TO/evc3+++/vJqAsrxy2I4BAdgRGjBjhghDfffddMB/EJptskp2DUSoCCORUgEBETrk5WDEJEIgoprNJWxBAoFQEdEOjYRf6HT5t2jS32oXGm2uliz59+riJJ9dff/1S4aCdCOSlgH5O/aU5W7Zs6VbFOPnkk/OyrlQKAQQqJkAgomJu7IWA+yNW61WPGTPGnHjiiYgggAACCOSpwNq1a824cePMI488YiZNmmT+/PNPU7t2bTfR5PHHH+8mntTqFyQEEKh6AQUIb7/9dvPYY4+5AOHZZ59tunTpUvUVowYIIJBRAQIRGeWksFISoEdEKZ1t2ooAAoUmsG7dOvPGG2+4YLGW21yzZo2pXr262W+//YyCyJp0sl69eoXWLOqLQFELqLeSekK8++675qyzznLDMZo1a1bUbaZxCJSqAIGIUj3ztLvSAgQiKk1IAQgggEDGBTTR5OjRo10A4uuvv3blt27d2vTr18+o90OTJk0yfkwKRACBygn88ccfwVCMmjVruqEY6gmh4CEJAQSKU4BARHGeV1qVAwECETlA5hAIIIBACgLq7aBvUkeNGmWmTp3q5n1o2LCh6du3rznppJPMbrvtlkIpZEEAgaoQ+PLLL10Q4u677zb77LOP6wVx1FFHVUVVOCYCCORQgEBEDrE5VHEJEIgorvNJaxBAoLAEPM9zQYcHH3zQPPXUU27ohZbXPPTQQ40mtTvkkENYbrOwTim1LUEBzdmioRjjx493822pF8Tuu+9eghI0GYHSEyAQUXrnnBZnSIBARIYgKQYBBBBIQ0Cz6T/88MPmgQceMLNnz3Z77rzzzuaUU05xNzLqCUFCAIH8F9DPsIIQCxYscL0ghg0bZjbbbLP8rzg1RACBjAgQiMgII4WUogCBiFI867QZAQSqQuCvv/4yEydONPfff7958cUXjcaT161b1y23qQBEp06dqqJaHBMBBCogsGLFCrcqhoIQ22yzjQtCnHbaaRUoiV0QQKCQBQhEFPLZo+5VKkAgokr5OTgCCJSAwKJFi4yGXuihiSerVatm9tprL3PqqaeaY4891my44YYloEATESgegenTp7teEFr6XMOnNBTjgAMOKJ4G/rclf//73829995rZsyYYZo3b1507aNBCGRCgEBEJhQpoyQFCESU5Gmn0QggkGUB9X6YMGGCue+++8xLL71k9H7zzTd3q17oW9NWrVqZefPmuVUxDjroILPHHntkuUYUjwACmRB49tlnXRBi8uTJ5owzznBBiB122CETReddGVp69M477zRaxWe77bbLu/pRIQTyQYBARD6cBepQkAIEIgrytFFpBBDIU4HFixe7eR80/EKv1fuha9euZuDAgaZXr16mVq1aQc01TENBCHXt1rhyEgII5LeAflb1+P33310AQj0h1l9//fyudCVqN3ToUHPXXXcZrQjSokWLSpTErggUsYCddZqEAAIRAnbMsVenTp3Ix88//+w9+uijnv3V4NnuhW7v9u3bR+ZVGb/99luZI7Rr1y5h/j///LNM/rZt2ybMXyaz/cBO3haZf6ONNorK7rVs2TIy/yabbBKZ30b4I/PXr18/Mn+zZs0i89tvOiPz23Gjkfm32GKLyPyNGzeOzK/Po5LKiTq/Om5UUj2j8qtdUUkOUfnlFpXkHJV/xx13jMru6TxG5d9pp50i80fl1Wdt2rQpk1/XX6L8um7jk67vRPn1cxGf9POTKL9+7uLTTz/9lDB/586d47N7K1euTJjfLg1XJr8dr5wwf5cuXcrkX7ZsWcL8+++/f5n8S5YsSZi/R48eZfLb4QgJ8x988MFl8tuJ3hLmP+yww8rkt70JEuY/4ogjyuSfM2dOwvx2ib0y+b/44ouE+e1wipj8treDZ7svezVq1HC/T/U71QYgvJo1a3q1a9f27PKbMfn15uOPP/bsDYzLf/vtt5fZzgcIIJA/Al999ZVng4Xu59X2XvIef/zx/KlcFmsyePBg1+b58+dn8SgUjUBhC9AjooiDTDStcgJ/+9vfXPffqFLUXfiZZ54xJ5xwgusefOKJJ7oxy/Y/3KjsbpI1LSsXTgMGDDALFy4MfxS81nJW1atXD97rxUknneS+JYz58L9vXn/99TIfq072BqjM5ypX5cen448/3ixdujT+Y2NvCMwrr7xS5vPjjjvOLF++vMzn+tZSPvFJ47k1QVV8sjekbtmu+M+1hri9oYz/2NgbcPP888+X+VzfmK5evbrM55rQbty4cWU+P/zww91yf/Eb6tWrZ8aOHRv/sVsS8JdffinzeYMGDdzSgfEb7A2jsTfo8R+7LuZPPPFEmc8PPPBANwFf/IZGjRqZxx57LP5j0717d7Nu3boyn2+11VbmkUceKfN5t27dynymD5o0aeJWIAhvVLkqPyo1bdrUjBo1KmaTJg5U/aOSDdS4b7nD2+Qin6ikb45GjhwZs0nuWpIxKqlb74gRI2I2rVmzxuj8RiUbcDPDhw+P2aTrRtdPVLKBHfetVnjbjz/+aI4++ujwR8FrG9hxk7AFH9gXuu51/UelXXbZxdx2220xm/RzpZ+vqLTbbruZm2++OWaTfm718xuVbCDI3HjjjTGb9HtBvx+iUseOHc31118fs0m9E/T7Jyrtueee5pprronZpN9r+v0WlTS/w1VXXeVMdB1pDLW+MVTSz56uXw3D8H//2cCRueKKK2KKUn75f/LJJ67r85lnnhmznTcIIJAfAm+99ZbrBaH/g/v06eN6L5XKUCoNPdH/Tfp9qAk5SQggUFaAQERZEz5BICUBhmakxEQmBBBAIBD48MMPzd13320UjFOAyfYEckGOQYMGGQV9Uk3jx483treHCxINGTIk1d3IhwACORLQErsaivH5558HQzFsT8QcHb3qD6Mvs/xhZrZnZtVXiBogkIcCBCLy8KRQpcIQIBBRGOeJWiKAQNUKqAfMU0895YIG06ZNc5XZdddd3WR16lVWkZUvtIRnz549XVDDdoGu2gZydAQQCATUw0wBCDtsymy22WYuCKHeAaWW1CvsoYcecj1N1bORhAACZQUIRJQ14RMEUhIgEJESE5kQQKBEBb755hvXNVmrX9h5NdzEdBpSoR4MGqJRmaThWXY+C3PPPfcY9aYgIYBA1Qt8+umnLgih5Xa1JKcmpNQSnaWYNPzNziXmhqHZOaNKkYA2I1CuAIGIconIgEC0AIGIaBc+RQCB0hZ49913zR133OHm0dH8IZr34fTTT3erX2Sqa7aCHFoCsEOHDiyNV9qXG63PEwH1UlJPiNdee81oWIKCEOkMt8qTZmSsGr1793Y9wexky25uq4wVTEEIFJEAgYgiOpk0JbcCBCJy683REEAgfwUUcNDwC3XHfv/9911FNZGllrA75phjTPxkvfnbEmqGAALpCmiZSgUhVq1aFcwHUZEhV+keN5/zawLk5557zi1Xyu+/fD5T1K0qBQhEVKU+xy5oAQIRBX36qDwCCGRA4IcffjAaeqEbEfVSsMtquhVC7HJ9rrdCBg5BEQggkKcC+plXAEIPzfuin/tEK/LkaROyVq2DDjrIvPrqq8YuUZy1Y1AwAoUuQCCi0M8g9a8yAQIRVUbPgRFAoIoF5s6d624+Ro8ebdauXesmpdPwC00cqaEYJAQQKG6Bd955x/0OUE8ozf2ioRh77713cTc6jdZ16dLFfPDBB+73Yxq7kRWBkhIgEFFSp5vGZlKAQEQmNSkLAQQKQWDKlCnmlltuMZosct26daZVq1buBqRfv36mTp06hdAE6ogAApUU0N8/6gXx0UcfBUMxtt5660qWWly7d+rUycybN898//33xdUwWoNABgUIRGQQk6JKS4BARGmdb1qLQKkKKOAwbtw4c9NNN5n33nvPMXTr1s2cd9555uCDDzbVqlXLOY1m59c3sUceeaRp165dzo/PAREoRYFffvnFBSAUhNAcEOoFcdZZZ5UiRbltbtOmjVm5cqVZtGhRuXnJgECpChCIKNUzT7srLUAgotKEFIAAAnks8Ouvv5qHH37Y9YCYM2eOqVmzptFM8Oeff36V3/w//vjjpm/fvuahhx4y/fv3z2NFqoZAcQh88cUXbjLae++913Tt2tUFIQ4//PDiaFwWWtGiRQs3Se+sWbOyUDpFIlAcAgQiiuM80ooqECAQUQXoHBIBBLIuoJnvR4wY4b75XLp0qVt67rTTTnM3Hk2bNs368VM5wGOPPWaOP/54FyjRsBASAghkT+Dll192vw8mTpxoTj75ZPe7YJdddsneAYugZC1V3LhxYzd8pQiaQxMQyIoAgYissFJoKQgQiCiFs0wbESgdgWXLlrlvPIcPH+66FG+++eZu+c0hQ4aY+vXr5xUEv3/z6nRQmSIWUA8IDcVQUFKrYmg4Rr169Yq4xZlp2kYbbWR2331389Zbb2WmQEpBoAgFCEQU4UmlSbkRKLU/hG+88UZz8803p4SrMeP6T1g3L5tuuqlp2bKl6d69uznssMNM9erVI8tQHi0FqHThhReac845JzJfZT7MxTEqU79C2TdTjvqDVj9HSh07djQvvvhioRAUVT0XL17s5n+4//77zc8//2zU60HzP5x66qlmgw02yMu2PvLII0Y9IfR8wgkn5GUdqRQChSygwKQCEHrssMMOLgCh3hCk8gW0ZOd6661nDjnkEP5fK5+LHKUs4JEQQKBCAo8++qhnf3d4Y8aMqdD+hbbTpZde6tqrNlf00b59e2/mzJmRTW/QoEFQ7tVXXx2Zp7If5uIYla1jIeyfKccBAwYE57xz586F0PSiqqOd0d0bOHCgt/7667vzYANMnp1zwfv999/zvp127gpXZxvIyvu6UkEECk1g2rRpnp2Dxf2M2XkgvNdff73QmlCl9f3xxx+dnQxJCCCQWMAk3sQWBBBIJkAgomIBiSZNmnjffvttGdpM3dyWKTj0QS6OETpc0b7MlCOBiKq5RGbPnu3ZCR49O/mk+2N511139Z588knPfotXNRWqwFFHjx7t6m7niqjA3uyCAAKJBPS7QIFhfeEwdOhQTwFLUnoCCxcudH6nn356ejuSG4ESE2Bohv1NS0KgIgKlNjTjsssuM1deeWVA9cwzz5hmzZoF78Mv/vzzT7NkyRKzYMECY3uMlJmsqU+fPkaTzYXTzjvvbNRFXOm6664zgwcPDm/OyOvNNtvMrFixwpVle12Yiy++OCPlllohmTpXp5xyihk1apTjs3/4mqlTp5YaZU7bq1nvr7nmGqMVJ9R1WMNhLrnkEjdkqiqW4KxM4/W75f333zd77LGH2WabbSpTFPsigIAV0P/b/lAMDaHU0DnNCVGjRg180hT45JNPjCbz/Pvf/25uuOGGNPcmOwIlJFBigReai0DGBEq9R0Sq35KsW7fOu+OOO9y3A/ZXq3vWN7HffPNNxs5FqgVl6pv8VI9HvuQC9IhI7pOprZ999plng3+evblwP3977bWXZ2fBz1TxlIMAAgUuMHfuXM9OSut+P+y9997e008/XeAtqtrq2wkqneW1115btRXh6AjkuQBDM/L8BFG9/BUgEJFed82jjjrK/cfsByNsj4qcn1wCETknT3pAAhFJeSq9UQGI4447LghA7Lvvvt6kSZMqXS4FIIBA8Qjod4KdSNr9/2wnfvU++OCD4mlcFbVk3LhxzvOee+6pohpwWAQKQ4ChGSXU+4WmZlag1Idm2B4Rpnnz5imjakb+v/3tb0F+rcChmfn9ZL+Rcd3F9V7LBtqggb8p5tn+ajX2DyVjx7kb1UHdSbWKw0477eSek83yn+rQDJX7xx9/BMfVEJRatWoF7yvyYvny5a7Os2bNMl9++aUrQkug7bbbbq6LfNRyaF9//bVbxUCZdfxEQ2HC9dESaytXrgzK11rmUUlDZ+zEoebzzz93Q2JatGhh2rZta9q0aWM23njjqF2Cz1I9V7Y3jHnzzTfdMdQW1X+fffYxGtqhoQAVGZqhVR0+/fRT8/HHHztHrfBg5zhw3WC1UkuypGtG14+S2mt75hg7KZt56aWXnK/ORY8ePRKu7JKs7HzapiEYGkZlx3obnYP99tvPaGhV165d6TJVXwAAQABJREFU86ma1AUBBKpY4MEHH3TDMfR/nlaq0nAM/T9JqpyAnfTX2EC7GwZng8GVK4y9EShmgcKIl1BLBPJPgB4R6fWIsPM+xPSIuP3222NOaiq9FTSJlr2JjSnH/n4O3tubW+/II4/05syZE1O2/yaVY9x2221BeSq7Tp063nvvvecXkfazurjagE1MmeE667UNMnhaKSR+tQJ1p/fzamUDO79FucfXxIP+Pp06dSqT387D4R1//PFBHj+v/yxDGyDwVq1aVWZf/4NUHO08BJ5d8i3yOA0bNvRsgMJLp0eEDUC4rsP+8AK/vv6z6j1o0CBv7dq1fjXLPPurQ2gfO4bXUw8Bf3//WXXWsQoxaRJKfaNpx3S7dql9zHZfiGeSOiOQXQH9X/LPf/7Tq1u3rmeD+N59992X3QOWWOn2ixb3O/jVV18tsZbTXATSE2BoRnpe5EYgECAQkV4gQuNO/Zs9Pb/22muBpV6Ud3OrZfp0sxkuI9Fr+42OZ78Vjik/lWPEz2Wx4YYbem+88UaZclL54Ndff/XsGuIp1ddvh2Yq15wafrLf1MfsP2LECH9T5LPtKRCT/9Zbb43Jp+CA2uQfL9mznQAw4U1seedKQZVkZWubggLhcpIt3/nRRx95WlqyvDK1fccdd/SmT58e027/TTgQ0a1bt8jy7ARjfvaCebbfZnonn3xysAqG5oCI//kqmMakWFEtL3jhhRd6tkdPinuQDQEEJKDfjyeddJL7/XfwwQd7EydOBCbDAvrdpP+PEv1flOHDURwCBStAIKJgTx0Vr2oBAhGpBSL0Lb+deTvmpk89AOK/3Q/flOpGNpy0FFb4JlI30wMHDvSGDx/u2Vm+vUMPPdSzQzJijnHaaaeFi3Cvkx3j7rvvjtlf3xRNmTKlTBmpfnDvvffGlKf6nXrqqa6+I0eO9C699FJPPRbib67Hjx8fHMIOO/EaN24c5FEwJ1myM3QHeddbbz3vu+++C7IrMBNvpJv7s846y1PvlDPOOMPbdtttg/1VLztEw1MPiviUzFFzf8S3qXv37q7Hx+WXXx7ZC0H5EwUi7DATzw7ViSnTDvHwzj//fE/jb+3wHs8OJ4nZLrM1a9bEVzvmGoqvo/8+PnhTppA8+mDRokWelofTuVb9dT2Vyk2Fzr3a/Nxzz+XRGaEqCOS3wLPPPuvZoVruZ0e/89WLipR5ATsM1RnbIYmZL5wSESgiAQIRRXQyaUpuBUo9EGGXWvS+/fbbyIedA8FNeKXunlE32/GBBp25ZDe3dhyr+09dNx4KQmgSvvi0evVqb8sttwzyKZAQ300/0TEUNAj3tth00009feNamRQeQtKoUSPvq6++iizurrvuCuqs9mlSz3Dyv1nRNtUxUTl2OcaYoMURRxwRFPPLL794dv6HmONohnT12ggnGWpyQx3Lf/Tu3Tucxb1O5KjyFCTw99UNctRkXbrZ94cP+HkTBSLsuOWgPOXVjXf8ebXzebiAil+Wnu3SrGXqHQ5mKY+dU8J1SbbzZbhJHC+44IKY4E2ZAvLkAwWY7Fhur3bt2s6mXbt23gsvvJAntctNNRSE1Dl8/vnnc3NAjoJAgQto2KGCzXbeIO/6668v8/u/wJuXV9Xv1auX+/1UqMP88gqTyhS1AIGIoj69NC6bAqUeiAjf9KXzWt/qx8+FoPOU6OZW2/xvF3QcffudKIV7IdjJH908BOG8Ucewk2jGBCGUp7LdKTULedjk4YcfDlejzGsNB/Dzt2/fPma75rvwt+k5KoijHTQWNZxPs3b7yZ/B299+7LHH+psin+2EkjFlxQ9PiXJUQfHHURAhUVJPBr8+eo4KRKgXh/9tv/J06dIlZuhKfNnhuS90k66eNOEUH4gob6hLeN98eK3eIZdccokLoMhDY7ufeuqppCb5UO9s1MHvwVRqAZhsWFJmcQssWLDABS71O2OPPfbwHnvsseJucB60TsPj1KOQhAACyQUIRCT3YSsCCQUIRPzvW3P9gVPeQzeGuvmMCkIIOdHNrbZdccUVQfnqFaCbkKikoQyaTyB+2IefN/4Yo0aNiglCqOeC5lmobFJ3Vw0ZGTp0qOvhUN63In379g3aFxVoCc+v0apVq8jq+WN+dR40GaR6CfgpfNOvngh25Q5/U+TzO++8E9RH5cX3Loh39AsJB4x00//NN9/4m8o8qxeChuj4101UIOKmm24KtiufXSmjTDnhDzRfgF+enuMDQOFAxFZbbRXeNa9f6/q54YYbvPr167v2qdfJ6NGjPV3vpZruvPNOZxEeylSqFrQbgUQCb731lpvAWb8P1dvt3XffTZSVzzMosP3223t2ZaYMlkhRCBSnAIGI4jyvtCoHAgQiyg8+6I8fzQ+gwMGPP/6Y9KwkurnVTlq1InyDqdea30Bd6dX7IH6IQaIDhY+h1RHiV2DI5cR3CsjMmDHDU3dZTbDoty8q0BAemqJ8CraEk+ZD0DADv4xzzz03vNnr2LFjsE29HVJJ4TodffTRMbuEHcM9NMLDUbRiQ3mpZ8+eQb2iAhGaB8Rvk4bLhCfyTFS2f7Ou/TQrfDiFAxHqXZHvScEkDW/y5wlRl2oN5fntt9/yvepZr58/seyECROyfiwOgEAhCihYqWFb+r2n+YMU/CXlRkC9IaL+T8vN0TkKAoUjQCCicM4VNc0zgVIPRGj5RU2Wp4e6fmo5RC2vGf72XjeDmmhw7Nix5Z69RDe32lHzH+y///7BTal/c+o/a94ITVipoRnhCRrjDxo+hr9v+Dl+SdH4/Sv6XoEDzZWgoQqHHXaYp29LatasGdmeqEDETz/9FLPaRfyQh0ceeSSmrHCvDn1rHj6Wek6kkjSbum/TunXrmF3CjuFAhFYr8ffRMpLlJc1T4eeP+qOta9euwXblUzvKe/jl6VnLn4ZTOBCh3hv5mhRw0bKvfjBIw4yuvfbayAk487UN2a6XflZ1jrWyDAkBBP4noLl+rrzySteDSv/XJOpB+L89eJVJAX0xoN9N8fM9ZfIYlIVAsQgQiCiWM0k7ci5Q6oEILRkYlXQTpdm4wzeEGuevwEWylOjm1t9HPQj69+8fU274GP5r3ahqQsOoXhLhY/j5w89aVUITbWYq6WayQ4cO5dY5XIeoQITqo+UZ/XyalDPcLf/AAw8MtsXPMaFu/eFAhFabSCUNGjQoKFMu4RR29AMRqk94wk+txlFe0oRpfpuiAhFNmjQJtvv50nmWfTiFAxE6dj4mdaX2J3itU6eO6/WTaKhRPtY/V3WaO3euC9YsXbo0V4fkOAjkvYCC0FqdSb8nDzjgAI+hS7k/ZfobQv6DBw/O/cE5IgIFJkAgosBOGNXNHwECEdGBCJ0hBSNOOeWUmJtIfVs+f/78hCcw6uY2KrMCGvo2W/MgJLsp1XCE+JuU8DG0r78MZLgcDV1IZQhAVN3Cn2mOiHC58a81lELf+F922WWeJrbytycKREyePDnIo7yvvPKKO5y624ZXoIj/9iu+R4S66KaSwoEPuYVT2NEPRKjXSrgeWrK1vKRhKX67owIRGorgb9ezAhPpPPSHeDiFAxHZ6v0SPl46r2fOnOn5Q1XkOGDAAI+l39IRJC8CpS2giVs1FFK/K7V8ddTqUqUtlJvW+/9X+/835uaoHAWBwhQgEFGY541a54EAgYjEgQidnqglI9XFX91Go1LUzW1UPv8zBQu0uoUm8dMNffgm0795VXf2cAofQ3NEaFiJyolfJUJBhMokBQnCvQNUHwUbVB99Q6WhLOFgR3iySnXHT5S222674MZcvUOUbrnlluAzTf74ww8/uM/D/2jSLN9Ex0olhYdFxAdHwo7hP7bCy6fGzysRdczwJJpRgYjwMJ9U5pyIOkb4s/A1ki+BCC2Bq7kw/CCOhhiFh9aE689rBBBAIEpAc8fo/wf9br7qqqs8DecjVY3A448/7v6/1dxOJAQQSC5AICK5D1sRSChAICJ5IEJwmjcifPOnm2HddEWlRDe3fl7duCtwsHbtWv+jmGdNhqk/wMIBgPib10TH0CoSWtXDv1nXUAQtm1nRpG+j/LL0fPPNNyctKnzTrz8mEyXd9PvlavJGTWYYnoiyd+/ekbsedNBBwX7xQzcid7Afbr311sE+qTqqbL9+u+66a6Kig8+POeaYIH9UICLcq6Zu3boxwZugkLgXCnSFVwwJbw5fi1UdiNA4Yq0G408yKrv4ZVLDdec1AgggEC+glYk0abOGP+6+++7emDFj4rPwPscC/pcDEydOzPGRORwChSdAIKLwzhk1zhMBAhHlByJ0qjRpln9zqmcFCjQOPj4lChLoxlJ/YGlCSu2v2fKTJS1R5h9Pf5yFU6JjKI96K/j76Vnfxmu4QUVSuOdC8+bNkxahb640F4B/7G233TZhfgViwit93H///cF+2j/RxH1aRtQvX8/lLeGmyUXD+f/xj3/E1CmR44UXXhizX7LjLF++PLgJ17GiAhHhOSSU55lnnompR/wb+SigpN4FCqToD/RwyodAhK6pUXbZWH8ljKZNm3r6XRLuIROuM68RQACBKIGpU6d6Cj7rd6MmRtSQAFLVC2gyaZ0ThsZU/bmgBvkvQCAi/88RNcxTAQIRqQUiNMlkmzZtYm5QNfwgfjLJRDe3Ov26Odd/7HooKJHoG2/lPfzww4O8W221lT4KUrJjqEx9i+8fR8+33nprsG86L7RSiF9Osh4IMujRo0eQV/voBjVZCk9M6R/D3y9R4ESBn3BeLV2Z6MZX50tDaML5P/zww5gqJXJUvvB+Gq+c6DgKEoTzRgUitJxqeKJNBRfUkyBRCs9robLjvx2s6kCE5jfZbbfdXLs32WQTT4EWDWEipS/w+uuvuyUJk807k36p7IFAYQj8+9//dr3hFNjXje/ChQsLo+IlUMtjjz3W/Y5ftWpVCbSWJiJQOQECEZXzY+8SFiAQkVogQpfIe++9F/NNvm4SL7nkkpirJ9HNrTLF37Sqy378GFjd8Gr5zvDNbfx8CMmOoeNomU1/rL7KUU+F2bNna1NayZ8wTGXoD8Wo5Us1xOSII46Iqa/yq+dHsvTEE0+U2Uf7qTdCsqSlLJXPfyigoV4J4aTJEffcc88gj/Jq/oz4lMzxkEMOidlfc0WEgwc6T+olE+7ZoeNEBSJ03HPPPTemvHbt2nma2DGcfvvtN9d+v2161kSX+jycqioQoVnU9Y2l6qXAilaVWbZsWbhqvE5T4LrrrnOeUb2r0iyK7AgUjIBWQdK136hRIzfZcmXnMyqYhhdQRbXqkQLNJAQQKF+AQET5RuRAIFKAQETqgQgBajnH8I2ihk2EJ+VLdnOryR216kZ4f70/4YQTvP/3//6fW66zbdu2Mds19j5cvuqQ7BjarqRVJcLH0Q1yop4G/7dH2X/vvPPOmDIUjNANueaKuOiii9ywj/BNcfh4ep1suUb1otD8EPH7lBcwWbx4cTC8xd+3Xr16ngIHGrqhFSb8+QrC26O+aUvmqHO18cYbx9RPQQENmVEAqWXLljHb/GMlCkToW6X41TM0Kafm1dA1pfk4ttlmm5gyFUx67rnnypyYsHku5ojQsCJdn6qv2qngD911y5yWCn1wzTXXONO33367QvuzEwKFJvDFF1+4/+v0u0S92saNG1doTSiJ+mrSZvUCJSGAQPkCBCLKNyIHApECBCLSC0SoB0N4AkT9MaVvDvyb/GQ3tzoBGv8avpH0b2CjnjUvQ3wQQmWUdwzl0TdO22+/fcyNbXmTTWq/cNK3/vFDLqLqqc90Ez1y5MiY46lnR7I0ZMiQmPxakSOV9MEHH3g77bRTzL6J6qVVRT7++OPIYstz1HHKW15VwYryJqv0D66JQxWoSFTX8OfqaTF69Gh/15jn8PWTzUCEPw+EH0DRUCStlkLKnIA/ceuUKVMyVyglIZCnAi+//LLnTzqsFZNmzJiRpzUt7WppqJ2+eDjssMNKG4LWI5CiAIGIFKHIhkC8QKkFIsITB+o/2iVLlsSTlPte65yHbxr1WktdKYWDFInmZtC3/hpuER4+ES5PZZx44okJexSkcgzVRWP51Ua/bE2AuHLlSm1KOekPEnWh1WoPfjn+s8pu1qyZp291/eVMw3XTkI1kSUNI/LL0rEkrU03qUaFv6RMFChQY0WoOfr2iyg3XNdG5Uk+Kv/3tb0FvAL++arvmoJg2bZqn5c38zzWcJVnSzb0CQuFj+/vqWQEI9ZDRCiiJknqA+Pso+JONpHb5K5noePLRvBukzAr4k+C+8847mS2Y0hDIMwEFprWEsv4vueyyyyKXaM6zKpdsdfQ3iv6POfPMM0vWgIYjkI5ANWW2PzQkBBBIU8BOFmXsjY+xE+IZe/Ob5t5kr4yAvZk29obT2K6qxgYJjJ1XwdhJAI0drlGZYrOyrw1IGDtHgHvY4SjG9iYw9kbc2B4BWTleOoXaeQqM7Tli7BwOxgZ3jF3Bwey8887G3tSnU0zSvD/88IOxczoYO8TC2PkRjO0FY+zQkqT7lLfRBkmMHeJgVLa9yTe2B4x72D/Uy9s1a9tlaefpMA899JA7xqmnnmpsoMnYiUuzdsxSLtgGIoy9KTN2ZRazxx57lDIFbS9SAf1OsT23jJ0HwtiVmMzZZ59tBgwYUKStLY5m2SU7je25YmzQ3Jx33nnF0ShagUAWBQhEZBGXootbgEBEcZ9fWodAKgJ//vmnueeee8yll15qbK8ZYyf7NHaOEGNXd0lld/JUUMD22jGXX365sRPhuuBWBYthNwTyUsAOb3MBCP2d0bNnTxeE6NatW17WlUr9T2DEiBHGTkZs7FLTxk5Q/L8NvEIAgUgBAhGRLHyIQPkCBCLKNyIHAsUsMHXqVGPn6zB2Lg1jZ7E3N9xwgznppJOMHX5SzM3Oi7apR5Qe++23X6V72ORFg6gEAv8VePrpp10QQr9f7ETCZtiwYaZFixb4FICAneza3HTTTcbO4WHscuAFUGOqiEDVChCIqFp/jl7AAgQiCvjkUXUEKiHw/fffGzvPhhk1apQb0jJ48GCjoQJ2ybZKlMquCCBQygLqXeUPxZCDhmLooWFzpMIQsKtjGbtct9HwwXwYflkYatSylAUIRJTy2aftlRIgEFEpPnZGoOAENKWSgg8KQigYYVfyMMOHDze77LJLwbWFCiOAQP4IzJs3z/WCuOuuu4xdBckFIOyqQvlTQWqSkoD+L1i6dKn57rvvUspPJgRKXYBARKlfAbS/wgIEIipMx44IFJzA559/bgYNGmTefvttU79+fWNXkTGakDKTE3sWHAoVRgCBSgu8/vrrLghhV5VyE2BrKEaHDh0qXS4F5FZAgWr1gtCQDLuscG4PztEQKFABAhEFeuKodtULEIio+nNADRDItoBWPbn66qvdLOh//PGH6devn3vNahjZlqd8BIpfwC5h7IZjaGUlfygGv1sK87wvXrzY2OWlzcknn+x6zhVmK6g1ArkVIBCRW2+OVkQCBCKK6GTSFAQiBF599VU3A7q6Te+4445udYyuXbtG5OSjXAu8+OKL5s0333RL5G255Za5PjzHQ6BSAj/++KPrBaGlORs3buyCEAMHDqxUmexctQLq2bL//vuba6+91i3lXLW14egIFIYAgYjCOE/UMg8FCETk4UmhSghkQGD58uXm3HPPNY888oipVauW+6PyH//4h3udgeIpIgMCmqfjxhtvNJ988olp06ZNBkqkCARyI/Cf//zHBSFGjx5tDj74YLcqxoEHHpibg3OUrAloGWdNXKxVTzRpJQkBBMoXIBBRvhE5EIgUIBARycKHCBSsgMb46ubg/PPPNytWrDBdunQxWhdevSFI+SVwwQUXuCEyn332mdl5553zq3LUBoEEAuPGjXNDMdSbR3POaDgGv18SYBXYxzqXWvWE30kFduKobpUKEIioUn4OXsgCBCIK+exRdwRiBTRGWzcGr732mpuMUmvBDxgwwFSrVi02I+/yQkDBoltuucXMnDnT7LTTTnlRJyqBQDIBf2lOzTvjzwdRu3btZLuwrYAE1KtFwzPWrFlD77kCOm9UtWoFCERUrT9HL2ABAhEFfPKoOgL/Ffjzzz/Nrbfeai6//HKjG4S+ffu6btMNGzbEKI8FzjvvPHfetJpJq1at8rimVK3UBb7++utgPgithnHOOeeYPn36lDpL0bV/m222MXXq1DGzZ88uurbRIASyJUAgIluylFv0AgQiiv4U08AiF5g+fbo57bTTzIwZM0zTpk3N8OHDzSGHHFLkrS6O5ulmThP9zZo1i67txXFKi7IVkydPdt31x44da3r37u16Quy5555F2dZSbtTq1atNvXr1zBFHHGGeffbZUqag7QikJUAgIi0uMiPwPwECEf+z4BUChSSgng9XXHGF69q/bt06c+aZZ5prrrnGbLTRRoXUjJKuqz8eW98+7rDDDiVtQePzU2DMmDEuWPbpp58GQzG22mqr/KwstaqUwHvvvWcUYLr44ovdcs+VKoydESghAQIRJXSyaWpmBQhEZNaT0hDIhcDbb7/tekHMmTPHTXI4cuRI9wdkLo7NMTInoLkh5s+fb7p162Y23HDDzBVMSQhUUuCnn35yvSDUY2fTTTd1QYghQ4ZUslR2z2eBBx54wP2/or8LNbyPhAACqQkQiEjNiVwIlBEgEFGGhA8QyFsBTSCmJTi1xFrNmjXd64suuohJxfL2jFExBApPQAEyBSDuv/9+0717dxeEOPTQQwuvIdQ4LQG/hxbLCafFRmYEDIEILgIEKihAIKKCcOyGQI4FXn31VTNw4ECzYMEC0759e6Nvr9q2bZvjWnA4BBAoZoHx48e7IMSkSZPMqaee6oIQrVu3LuYm07b/Cuy///5mypQpRr1h1l9/fVwQQCBFAQIRKUKRDYF4AQIR8SK8RyC/BFatWmUuuOAC9+1krVq13MoYWm1BPSJICCCAQKYENNGtekKsWLEimA9i4403zlTxlJPnAptvvrnR/B8ff/xxnteU6iGQXwIEIvLrfFCbAhIgEFFAJ4uqlpzAxIkTzd/+9jezaNEi07lzZ9cLomXLliXnQIMRQCB7AkuWLAnmg1DvB3XR79evX/YOSMl5J/DNN9+YJk2amBNPPNFoglISAgikLkAgInUrciIQI0AgIoaDNwjkhYCWUTv33HPNgw8+aGrXru1mMB82bJipUaNGXtSPSmRG4MknnzTvvvuuufTSS92EgJkplVIQSF1A1596QehaPPLII10QYt999029AHIWhcCECROM5gG5+eabjXrckRBAIHUBAhGpW5ETgRgBAhExHLxBoMoFNBfEaaedZr7++muz1157uWAESztW+WnJSgU054dWPNG53nrrrbNyDApFIJHA448/7oIQ06ZNC4ZiNG3aNFF2Pi9iAS39fMkllxjNDaK5IkgIIJC6AIGI1K3IiUCMAIGIGA7eIFBlAloRQ3NB3Hvvva4XxFVXXWXOOeccU7169SqrEwfOroCG3WhlgsWLF5vGjRtn92CUjsB/BX799ddgKIZ6XGkohnpckUpX4JhjjjHPPPOM+f77702DBg1KF4KWI1ABAQIRFUBjFwQkQCCC6wCBqheYPHmyGTBggJk/f77p1KmTeeihhwxzQVT9ecl2DbQqgYbfaIz+lltume3DUT4CZvbs2a4XxIgRI8x+++3nghC9evVCpsQFmjdvbtatW+dWZSpxCpqPQNoCBCLSJmMHBP5PgEAEVwICVSegbybVHfa2225zq2Bcfvnl5u9//ztzQVTdKcnpkU855RQzatQo8+2335otttgip8fmYKUn8Morr7ggxEsvvWT69+/vekG0a9eu9CBocRkB9bzTHCHqFUFCAIH0BAhEpOdFbgQCAQIRAQUvEMipwPTp081JJ51kZs6caXbZZRfz8MMPm7Zt2+a0DhysagXUC0a9X5YuXWoaNWpUtZXh6EUtoLlINCmlhgFpKIYem266aVG3mcalJuB5nhsCqHkiLrrootR2IhcCCAQCBCICCl4gkJ4AgYj0vMiNQGUF/vrrL3P99debK664wnWFVQ8I9YRYf/31K1s0+xeYgL6VVgDqu+++Mw0bNiyw2lPdQhBYvny5C0AoCNGiRQsXgFBPHBICvsCcOXPMjjvuaLRcdI8ePfyPeUYAgRQFCESkCEU2BOIFCETEi/AegewJfPnll64XhJbM22677czo0aNN586ds3dASs5rgU8++cR9Q929e3cCUXl9pgqzch9++KELQjz66KPmsMMOc0EIVkQozHOZzVo/8sgj7v8lTVRZv379bB6KshEoSgECEUV5WmlULgQIRORCmWMgYNzqCFoFY+3atUarJdxyyy1mo402gqaABG688UZz8803p1TjatWqufOrP+zVBV6TjyrgoBvCZCuhKN8PP/zgjnHhhRe6lVNSOmCKmbJdforVKNpsb775punSpUuVt+/pp592K2NMmTLF1KlTxz1q1Kjhfu/069evyutHBfJHQCumTJgwwcydOzd/KkVNECggAQIRBXSyqGp+CRCIyK/zQW2KT0DfMinwMG7cODcPgJZr1M0oqfAELrvsMnPllVdWquLt27d3PWF22mmnyHI222wzs2LFCrft6quvNhdffHFkvop+mO3yK1qvQt/vq6++cpM/vvDCC0Zj7qsqaeiXhmHooXroJlPDv/yk5YEHDhzov+UZAbPHHnu4HnrqGUFCAIEKCNhftiQEEKiAgO2yqb+YvDFjxlRgb3ZBAIFkAi+//LJnl2V0P2M9e/b07FwAybKzLc8FLr30Uncu9TuzMo8mTZp4dqWMyNY2aNAgKNsGIiLzVObDbJdfmboV6r6TJk3ybK+D4LxVVTvmzZvnDR061NXDDvnynnzySc8GJoJ66Zq1gYiqqh7HzUMBu3KTV6tWLe+OO+7Iw9pRJQQKQ4AeEfZ/FxICFRGgR0RF1NgHgeQCWpZT3epvv/121yVawzAGDRqUfCe25r1AfI8ILXXXrFmzyHr/+eefZsmSJWbBggXGBnrNRx99FJOvT58+5rHHHov5TG923nlnN2+EXl933XVm8ODBepmxRI+IjFEGBT3wwAPmtNNOC97bP52D17l68cYbb7heEM8//7w5/vjj3XwQHTp0cBPiakiGn+gR4UvwLAHNV6R5it5//32j64WEAALpCxCISN+MPRBwAgQiuBAQyKzA559/bvr27Ws0EeFuu+1mNFGcxuWTCl8gPhBhv4E2zZs3L7dhujG96667zFlnnRXkrVmzprnhhhuMuvRr3gn7rWSwLZsvCERkXreqAxGjRo1yQQiN8feX5vRXYVm3bp0hEJH5c14sJd56663mvPPOM7///rtZb731iqVZtAOBnAoQiMgpNwcrJgECEcV0NmlLVQuMGDHCnHvuuea3335zf9xpjD/Lclb1Wcnc8SsaiPBrcPTRR5uxY8f6b903ke+884756aefcjZxKYGIgD9jL6oqELFy5cpgPgg7BMwFIU4//fSYdhGIiOHgTZzAMcccY9Szqyp68cRVhbcIFKwAgYiCPXVUvKoFCERU9Rng+MUgoFUO1DX72WefNVtttZWbjFArJJCKS6CygQhNVKqJS/3Utm1b13NmzZo1ZsMNN3Qf61ttTTiotPnmmxs7p4N7Hf5HNw0ffPCBmT17tlGvDA0DUa8bTYCp5w022CCcPeZ1qoEIlfvHH38E+2oISrq9NubMmeOGBqgQ9Rzxg3IarqIAzMcff2zsfBmu59Cuu+4aGAQHTfLi559/Np9++qkrQ8viNm3a1KiMXXbZJaWgzqxZs4LSt9hiC1OvXr3gffwLO5+HWbVqlftYK1DoWEpLly41CgZohYp//vOf7jP988UXXwSvd9xxR6MVVHSu/Ju9Fi1aGPWImTZtmnnppZecq3pP9ejRI+GKKsuXL3dlqN5q77Jly9y1oyE/WpLzggsuMAceeGBwXP8FgQhfgucoAf1/pd89rJgRpcNnCKQoYH+5kxBAoAICTFZZATR2QSAkMHnyZG/rrbd2E8LZ1TA8e4MQ2srLYhKIn6xSkwOmk+ycDzETB9qbZvfe3lQHxZQ3maQmILTzSMSUY/9UCt7bm17vyCOP9GwQICgz/KK88pX3tttuC8pT2ZqI8b333gsXk9LrTTbZJChn5syZnp3HwLM3PsFn4XrbIIVnV3oot1xZDRkyxLNLoEaWo/bb+Vg8u0xuwrLSncBxwIABwbE6duwYlGt7HwSfh9sSfq3JAJXUPv9zO2zL23fffYP3/uc77LCDF74WtJ8Ncng2iFMmr7+PnlW2Jja13eu1S0xKt60xO/OmqAVsQMtdV/379y/qdtI4BLItoCgzCQEEKiBAIKICaOyCgBWw30J7dilHz46/drOO24kpPfvtIzZFLFDZQMTee+8dc0Ppv//ll18CtWSBAtuDzdONdvgmNNFr2/PBs9/MB+X6L5KVrzyaPT9cpv221AUQ/P3TeQ4HInSjrNn5w2VHvT7hhBMSHsJ+++/ZHh/llqFybU8Eb/r06ZFlpXtznulARLdu3SLboMCUnxTAOOSQQyLzRbnpM62UEf87KN22+sfnufgFHnroIXd9jRw5svgbSwsRyKIAgYgs4lJ0cQsQiCju80vrsiNgV0Pwunbt6v6I07eYiW54snN0Sq0qgYoGIvRN9bBhw2JuKnVT7t9o2jlFgiYlChQsXLgw5lt1BQgGDhzoDR8+3PUkOPTQQz07JCPmGHa4UFCu/yJR+dp+9913x+xft25db8qUKf6uaT+HAxHhm+e99trLsxN3ev369fO0lGl4m15H/TzZIRCeHaoSk9cOF/HOP/9875577vHshHtemzZtYrY3btzYs8NeytQ73ZvzRIEIu+qJ653h/y7w26EeG3pccsklQWAg3CPCzxf/bCcODOqqZTbD29UrpXXr1i4QpXYfddRRXqdOnWLyKP/48eODMvQi3bbG7MybohY49dRT3fVjh/sUdTtpHALZFiAQkW1hyi9aAQIRRXtqaViWBCZOnOjZGendH3C6kbITDWbpSBSbbwLxgYipU6d6dv6AyIe6Pdt5HLz77rsv8oZRPQQOP/xwdx2Fu9QnChQ8+OCDwU2nghCfffZZGZ7Vq1d7dtLCIJ8CCfFDFBKVrxvfcG+LTTfd1LNzGJQ5RjofxAciFEiYMGFCTBH6Bt9O4hnUWTfTdh6NmDx6c84558Tk0bCI+LbZOS1cgCN8A3/xxReXKSvdm/NEgQi/YDv3R0zd/M/Dz/GBiI022shdGwpqTpo0ybNzPHjfffddsEt4+E39+vW9gw46yB3j2GOP9XTd+cmuxhJzbAUowindtob35XVxCyiI3qhRoyBYVtytpXUIZE+AQET2bCm5yAUIRBT5CaZ5GRPQTc5FF13kxqbrRtAumZexsimoMATiAxHhG950XmtIhoIPM2bM8F5++eWYG4FEgQLdnPvH0Df/iVL4m3Q7AaP35ptvxmSNKl830uEghPJE9UqIKSiFN/GBiNGjR0fupXkRttlmm6B9duLGmHwaYmKXFgy2d+nSJcYsJrN9c/zxxwd5a9eu7ak3STile3OejUCEXWEnXKWY1wpM+Odaz9tuu61nJ7d0vT8WL14ck1dv/LlGlLd9+/Yx29Nta8zOvClaAQXAdL0osEVCAIHKCRCIqJwfe5ewAIGIEj75ND1lgW+++SaYXE7dozXxHqn0BCobiNBNsYYQhHtAxCtGBQqU54orrghuThU00DCKqKS5SzSXwooVK6I2e/HlK6AWDkLoG1K7GkXkvul+GA5E6NvX+PkLwuVpbgj/5tuuKhHe5N10003BNuWxq23EbI9/8/nnn8fkf/jhh2OypHtznulAhCbsTJbsChveDTfc4O2xxx5uOI481PMhUerbt2/Q3vggVbptTXQMPi8uAQ0r0s9SsuuquFpMaxDIngCBiOzZUnKRCxCIKPITTPMqLfDqq68GQzF0QxLfHbzSB6CAghGoaCDCLuXqAgc//vhjuW2NDxT4O2jVCv9G3X/WxI3q0q9v0P3VGfz8iZ7D5Ss4EL/6hG7iM5XCgYhevXolLTY89EKr0IST5sLw26whI8kCGv5+Gs7g72OX1vQ/ds/p3pxnOhChHh3JkobdaH4P1d8uzem98MILZbL7PWq0wokm5vTb2qpVq5i86bY1ZmfeFK2Av+JLpoKORQtFwxBIQYBARApIZEEgSoBARJQKnyHwf5O86VtorYqhSQAZisFVER+I0LCHRYsWuceCBQs8Lcuo5TX91TD8m0PNjTB27NiUAMOBAs0j4SfdUOqm1C8z/lnDhTRhpYZmhOca8Pf3n8Plx5eh91r9JVMpHIjQZJ3JkoY9+fXRBJbhFD8ZpIYplPfwy9Jznz59wsWlPYFjpgMRUXNg+BXUZJMHHHCAszjllFPcNaUeLpqQU8EaLRG8/fbbu/aH2+i/JhDhS/KcTEBBSM11lEpQL1k5bEMAAc8jEMFVgEAFBQhEVBCO3YpaYPny5d6BBx7obgb0bSPfGhX16U65cfGBiHnz5kXuqz/uzzjjjODGWjeJmuMgfr6GqJ3DgYJwIEJ59S14//79Y8r1b0DDz7pJ1zeeUb0kwuWH9/FfK+imiTYzkcKBiOuuuy5pkZpU0q9DfCAiamUNP28qzx06dIg5drq9BDIdiLj++utj6uO/0QooukFUbw4tDTxmzBhPdU+ljX4eAhG+Js+JBBQ81fXSu3fvRFn4HAEE0hAgEJEGFlkRCAsQiAhr8BoBz60U4E+cpz/UtBIBCQEJpBqIUF4FI/SNtn+DqOfNNtvMmz9/vja7pN4HZ555pv/WPYcDBfGBCD+jAhr6Vt1fvSV8jPDrjh07ekuXLvV3K1O+8vpLYIb322effTLyTWk4EJHo5tuvXLJAxBZbbBHj+P/ZOw8oqYosDF8GCQsKiAisBMlBJA4cWSQpiAoMgyCCDFkUkBlYQCUI6y4IKKKLZEHSCktewgwZlJzRRUZBkHTIcckZZvuv3dfnTTOpm9evX/jrnLZnul/duverZuz6X9W9ECb8eWCHgb75K0S0adPGOz6Y+jZ/q2b47jpB4sCPPvpI5YOoWLFiApJ6jhgxwjumfm60n1F1AztFPvnkkwSUQ9VepxDhOzv83ZfA1KlT1eclpYSpvn34OwmQQPIEKEQkz4bvkECKBChEpIiHb7qMALY/Z8qUSd299l0suAwFw02CgD9CBLrfvHkzoVy5ct5FIhaLSHaqiVvIHYGyjvqWFiFCux5iB6pbILEhFqW+JSIx3pAhQ7TL1bPePu6+4+4o7EB80BazeMZC+FGbUUKE/qhLzZo1H9Wth45mpJawLzIy0svGaCFiy5YtCc2bN1f2kUcDItPKlSsTJRDFfEBswFzi6AaOAWHOtKZPVokdXPrmr+ii78ufnUkAZafxmTpw4IAzA2RUJGAyAQoRJgPncM4hQCHCOXPJSAIngPKB7dq1U1/O8uXLl7Bp06bAjbGnYwn4K0QABPJG+AoESL6IhpwPqKShb3qhwHdHBBafEA6SS5iKZJiDBg1KtIj1XbgnZ3/fvn3KF02MwBGN/fv3613z+2ejhAj9zpJs2bIlWoQn5xTEHpTcTa5pceL5yy+/TO4y9br+eISRQsSsWbNUZQz48Oc//1kJDBhQS1Sp+Th8+PAU/dPn0ChWrFiiaylEJMLh+l/wNwRVW1ASlo0ESMAYAhQijOFIKy4kQCHChZPOkBMROHz4cEKlSpWUCIFs9r5b2RNdzF9cTSAQIQLAcN5fW1TiGeUy161bp3Yx/OEPf0jENCmhAIvq8PDwBCSkRP+RI0cm6uP7i3aHHdciN4W+JWVfex933PV+YicCFrKBNqOECBzr0Ps1f/78FF2CWAOBB4lmUYEDlUV8m14c+uCDD3zf9v5++fLlRIkh0yJE6HcraIb040H4QEw4cvLss88moPKFvkFM0OItUqSI/q2Hfr569WoCPkPa9b4LTAoRDyFz9QvId4TPCsQuNhIgAWMIUIgwhiOtuJAAhQgXTjpD9hLAFmhtYdazZ88U76B6O/EH1xIIVIhAksmyZct6F4tYCGALPXYrYOeBvmmfR1yj3xGBBaa22IQokdLd/kaNGnmvxd1PfUvOPq6BzQoVKnj7YryvvvpK392vn40SIlBSFAk4tfghLly7di1ZX7TdTdr1SPro27DzSXsfVU3Onz/ve0nCvXv3EiIiIrzX4fqkhAjY12zhGeKAb9MLEdpRE8x/UtVU4I9mr3Llyr6mvL8jGWm9evW816IP4tI3ChF6GvwZ/57xOUF1HzYSIAFjCFCIMIYjrbiQAIUIF046Q1Zbu4cNG6bumOIu88yZM0mFBFIlEKgQAcNbt25NCAsLS7RoRFJUJB3Ut+SEAtzV1xaneMZxBd8FL+7Eo3yn/jrkD9C35Oxr16BUJHYSaDZwt/23337T3vbr2SghAoNCKNR8wjOSOv7yyy+J/Ll9+3ZC3759E12HXQd43be1atUq0XVITHvx4kXvZdgZpT8Soo2dlBABMUF7H89ffPFFAo574aE1vRCBa5AAE6yTasgdotnD7pmkxAocz9HnrtCux98zfaMQoafBn1ENCv++L1y4QBgkQAIGEaAQYRBImnEfAQoR7ptzt0eML/AtWrRQX/SLFi2asHv3brcjYfxpJPAoQgSG6Natm3eBiYUjFpm+C8fkhAIkKETVDW3BiWf8HhUVldC7d29VrtM3MSZEDt/Ss8nZ1yNABQf9ONWqVQvoiIaRQgSOSPhWz0BiWeRHAFdsNdeq3Wi+Y8G1aNEifWjenzdv3pwoRvTB9YgVHDE3mh39c1JCxM6dO5O8FsITjn6h6Xd0YDGY0kJw1KhRiezBl6ZNmyYgV0S/fv0SsKPCV9jQ+6i3TSFC4ed/PAQgjEFYrFq1KnmQAAkYSIBChIEwacpdBChEuGu+3R4tFnO4k4ov7djSrP/C7nY2jD91Ao8qRGAHA44V6BeNKLeIxaLWUhIK1q9fn+ICVG8XuQV8RQiMkZJ9zQcsWIoXL57Iz9QSJmp99c9GChGwi+SZEAr0cSb3M0QAlMFMqcXExKRqC38v9OU5kxIicPTGVwTS/EJCSn1pUryeWkUe7GzxPXKh2fN9hvgyceLERHFgV4zWKERoJPi8bNky9TlByVc2EiAB4whQiDCOJS25jACFCJdNuIvDRXJA7ew1ktPh/DcbCfhDQJ80EXepT5486U93dW1sbGyiRSMWllisak0vVCSVnwHHJHDcQn98Qr84RX8cO0hOZEvNvuYHykjqdwUg+eOlS5e0t9P0/Mc//tEba2oJNgcPHuy9FmVFk2tYWEMU0cehjx8CBHaJoApIWtrcuXNVBQG9DfyMvxWwg50Yq1ev9vqGhLZJtVOnTqmdCr7Hb5DjAfaQNFQbA8JBag2lX4cOHZqAKiFaP+0Z81K4cOEEMNNKwep54MiG1iBq6JNZJpUvQ7uWz84moO3IwjExNhIgAeMIpIMpzx9oNhIgAT8J/POf/xTPly3xfDkRz5dXP3vzchKwB4EJEyZIdHS0eLZHi2cRoD7z9vCcXpJA0gQ8iQrFs9iWvXv3ikckEM8RD/FUfxHPcY2kOzjwVc8iXOLj48WT20E8uxLEswtEPTyLd7+jPXfunHiOWKh+sONJJuq3DXSAnUOHDoln94p4cjuIZ9EnXbt2FU95TvFUw/DbpkeQkN9//109PGKGeHa0yPPPPy9PPPGE37bYwd0EPAKfeEr8ypkzZ8QjmLkbBqMnAQMJUIgwECZNuYsAhQh3zbfbovXsepAePXrI6NGjxZNNXhYsWCBVqlRxGwbGSwIkYBIBzw4EGTFihHp4dm8oAQIiBEQENhIIFYEDBw4IhAjceJo+fXqo3OC4JOBIAhQiHDmtDMoMAhQizKDMMUJBAHd+mjdvLqtWrRLPuW5ZuHCheLaKh8IVjkkCJOACAtgJ4cn/IJ5jKOLJZaFEiGbNmrkgcoZodQIQxyDK4zuf52iX1d2lfyRgKwIUImw1XXTWSgQoRFhpNuiLUQRw9yciIkI85+mlZcuWMmnSJLV93Sj7tEMCRhAYMmSIOlbgyXlghDnaCCGBH374QYkQniodaqGHXRAQQNlIwAoEPCVhxZMnSR3LyJkzpxVcog8k4BgCFCIcM5UMxGwCFCLMJs7xgk3Ak2RPPKXu1FnYgQMHiidjvXiSuwV7WNonAb8JeBIZyvHjx+X06dN+92UH6xCYOnWqOooB4RMCBB558uSxjoP0xNUEPAlXJXfu3OIp26nECFfDYPAkEAQCFCKCAJUm3UGAQoQ75tktUU6ZMkU6d+6sklJ6SvfJm2++6ZbQGacNCYSHh4un2oJ4qm/Y0Hu67KkionZBYNs7hAcIEPj7w0YCViIwe/ZsadGihXzxxRfiqRhlJdfoCwk4ggCFCEdMI4MIBQEKEaGgzjGNJoDCSf379xdsdUceCGyPZlJKoynTntEEUOUCGexPnDhhtGnaCzKB3bt3q10Q2A3x6quvKhHitddeC/KoNE8C/hPA8cSZM2eqo4pIWMlGAiRgLAEKEcbypDUXEaAQ4aLJdmioKGPYrl07wV2fsmXLSlxcnBQsWNCh0TIsJxGoUKGCnD9/Xh3PcFJcTo9l8eLFSoRAXoj33ntPiRClS5d2etiMz4YEUNYWu3Ug0P/66682jIAuk4D1CVCIsP4c0UOLEqAQYdGJoVtpInDhwgVp3LixbNy4Ud2VnDNnjmTLli1NfXkRCYSaQPny5VWyymPHjoXaFY6fRgKjRo1SIsTVq1dVFYLu3btLlixZ0tibl5GAuQRWrlyp/t/Yt29ftWPQ3NE5Ggm4gwCFCHfMM6MMAgEKEUGASpOmEDh48KDUr19f9u/fL++++66MHTtW5YYwZXAOQgIGEMAOnitXrsjRo0cNsEYTwSQAsQi5IPBAbg/kg8CWdzYSsDKBLl26yPjx42X79u08rmjliaJvtiZAIcLW00fnQ0mAQkQo6XPsQAns2LFDGjZsKOfOnZPBgwcL7vawkYDdCOzcuVPu3bunstnbzXc3+YsdVxAg5s+frxLgQoR48cUX3YSAsdqQwIMHDyRfvnySMWNGOXLkCKtH2XAO6bI9CFCIsMc80UsLEqAQYcFJoUspEliyZIk0b95c7t69K5MnT5aoqKgUr+ebJEACJBAogRkzZigR4qeffvIexcifP3+g5tiPBEwjsH79eqlVq5bg+BCENDYSIIHgEKAQERyutOoCAhQiXDDJDgoRwkOnTp0ka9as6u5knTp1HBQdQyEBErAKgevXr6vF29dff63yzmAXRHR0tFXcox8kkCqBbt26CXKabNiwQapXr57q9byABEggMAIUIgLjxl4kIBQi+CGwCwEcwRgwYIDK/r106VJBoj82EiABEjCaAKoL4A7yxIkT5eWXX1b5ICIiIowehvZIIGgEcCyjQIECyj7ym4SFhQVtLBomAbcToBDh9k8A4w+YAIWIgNGxo0kE7t+/r7aWjhkzRkqWLCnLly+XQoUKmTQ6hyEBEnATgWXLlikRAtUGOnTooP72lCtXzk0IGKsDCGAXRM2aNSUmJkZGjhzpgIgYAglYlwCFCOvODT2zOAEKERafIJe7d+vWLWndurXMmzdPJfSLjY2VXLlyuZwKw3cKgX79+qkEctjtwxZ6AuPGjVMiBJLg4igGHiwHHPp5oQf+E8AxIoj3PJbhPzv2IAF/CVCI8JcYryeB/xOgEMGPglUJXL58WRo3bixr166VBg0ayJw5cyRLlixWdZd+kYDfBIoVK6ZKzu7bt8/vvuxgHIHTp08rAQLHMUqXLq0EiLZt2xo3AC2RgIkEsItQXy2DxzJMhM+hXEmAQoQrp51BG0GAQoQRFGnDaAJYGLz++uvy73//W9q1a6fOaj/22GNGD0N7JBBSAkWKFJHMmTMLchKwhYbAtm3blAgxa9YsiYyMVCJE7dq1Q+MMRyUBAwisWrVK6tWrJ7169ZLhw4cbYJEmSIAEUiJAISIlOnyPBFIgQCEiBTh8KyQEDh48qL5EHTp0SHr37i1Dhw5l/fOQzAQHDTaBwoULq10+v/zyS7CHov0kCMyePVtQFWPLli0qFwSOYjD/TBKg+JKtCCC3yZQpU2Tnzp0SHh5uK9/pLAnYkQCFCDvOGn22BAEKEZaYBjrxfwLYAYGdEGfOnFF3cnr27Ek2JOBYAlj0Pv744xIfH+/YGK0Y2J07d7xHMTJkyODNB5EuXTorukufSCDNBJBXKW/evOrBI19pxsYLSeCRCFCIeCR87OxmAhQi3Dz71oodSbVQIu/69esyadIkadOmjbUcpDckYDCBZ599ViVD3LNnj8GWaS45AgcOHFAixNixY1VVge7du0uTJk2Su5yvk4CtCCCxc7NmzWTgwIGq3LWtnKezJGBTAhQibDpxdDv0BChEhH4O6IFIXFycvPXWWwoFklI2bNiQWEjA8QQKFCggOXPmlN27dzs+VisEiLPzOIqxZMkSVY0HRzEqVapkBdfoAwkYQgB5TlBdCoJb0aJFDbFJIyRAAikToBCRMh++SwLJEqAQkSwavmESgRkzZkj79u3VWXl8gapRo4ZJI3MYEggtgR07dkj69Om5GDZhGr799lu1E+Lo0aPeoxhPPfWUCSNzCBIwh8D58+dVtYzKlSvLpk2bzBmUo5AACQiFCH4ISCBAAhQiAgTHboYQwPbomJgYefrpp2X58uVSoUIFQ+zSCAmQAAmAABZn2AWB0pw4CoNdEB07diQcEnAcgdGjR6v/n44fP146derkuPgYEAlYlQCFCKvODP2yPAEKEZafIsc6OGTIEPn444/V4mDlypVSokQJx8bKwEiABMwnsGvXLiVCfPfdd9KgQQMlQtStW9d8RzgiCZhAoEqVKirx7cmTJ+XJJ580YUQOQQIkAAIUIvg5IIEACVCICBAcuwVMICEhQfr06SPDhg2TkiVLCs5t46w8GwmQAAkYReBf//qX2gWBJLjvv/++EiGKFy9ulHnaIQFLEUDlnbJly6pcSyhLy0YCJGAeAQoR5rHmSA4jQCHCYRNq8XAePHgg0dHRMm7cOHUMY8WKFZI7d26Le033SIAE7EIAQieOYeBx9+5dbz6IjBkz2iUE+kkCfhP44IMP5Msvv5SlS5eqEth+G2AHEiCBgAlQiAgYHTu6nQCFCLd/AsyL/969e9KhQwfBNuk//elP6gtTjhw5zHOAI5GAxQhAlMuTJw/L7Bk0L4cPH1YCxMiRI9XfGOSD0KrxGDQEzZCA5QhAcMufP79kyJBBkIwVCXDZSIAEzCNAIcI81hzJYQQoRDhsQi0azp07d6Rly5Yyf/58qVOnjixcuFAef/xxi3pLt0jAHAKo2oDcKFu2bDFnQAePsnbtWiVCLFq0SFq0aKF2QrzwwgsOjpihkcD/CCxYsECaNGki/fr1k8GDBxMLCZCAyQQoRJgMnMM5hwCFCOfMpVUjuXXrljRt2lTtgGjYsKHMnTtXMmfObFV36RcJmEYgZ86cUqpUKdm8ebNpYzpxoGnTpikRYu/evd6jGHnz5nViqIyJBB4igP+v4kjG/v37pVixYg+9zxdIgASCS4BCRHD50rqDCVCIcPDkWiC069evS2RkpKxZs0befPNNwecN20fZSIAERGW2L1OmjGzcuJE4AiBw+fJlJUCgPCdyzeAoRufOnQOwxC4kYE8Cx44dk8KFC0vNmjXl+++/t2cQ9JoEbE6AQoTNJ5Duh44AhYjQsXf6yFevXlUl85C1vnXr1jJ58mR57LHHnB424yOBNBPInj27lCtXTvBvhM0/Aj///LMSIaZMmSL16tVTIsTrr7/unxFeTQI2J/C3v/1N/vrXvyqR/+2337Z5NHSfBOxJgEKEPeeNXluAAIUIC0yCA124dOmSyty9detW6dixo3zzzTcSFhbmwEgZEnvFeDUAAA9zSURBVAkETiBbtmyqesz69esDN+LCnrGxsUqEwB3gd999V4kQzz33nAtJMGQ3E7h//77aDXHjxg05ceKEZMqUyc04GDsJhIwAhYiQoefAdidAIcLuM2g9/y9evCivvvqq7Ny5U7p27SqjRo2SdOnSWc9RekQCISbwxBNPSHh4uCDRIlvaCODvCY5iXLlyxZsPIkuWLGnrzKtIwEEE4uLiJCIiQnr27KlKdzooNIZCArYiQCHCVtNFZ61EgEKElWbD/r5cuHBBXnnlFfnpp5+kR48e6ssRRQj7zysjCA6B7du3CxbRzz//fHAGcJDV48ePq10QI0aMkIoVKyoRIioqykERMhQS8I+AlqRy3759qvqOf715NQmQgFEEKEQYRZJ2XEeAQoTrpjxoAZ87d07q1q0rOLv94YcfyrBhw4I2Fg2TAAm4h8CmTZuUCDFv3jxVgQdJKatXr+4eAIyUBHwIHDlyRIoWLSovvfSSrF692udd/koCJGAmAQoRZtLmWI4iQCHCUdMZsmDOnj2rRIg9e/ZI3759ZciQISHzhQOTAAk4h8CMGTPUUYwff/zRexQjf/78zgmQkZBAAATw/9nPPvtMNHEuABPsQgIkYBABChEGgaQZ9xGgEOG+OTc6YogQderUkfj4eOnfv78MGjTI6CFojwRIwGUEkIAPxzDwQC4N7IKIiYlxGQWGSwIPE7h165YULFhQMmbMKNgZwWpUDzPiKyRgJgEKEWbS5liOIkAhwlHTaXowehFiwIABMnDgQNN94IAkQALOIrB3714lQEyYMEFtPYcI0ahRI2cFyWhIIEAC//jHP6Rt27aC0p1/+ctfArTCbiRAAkYRoBBhFEnacR0BChGum3LDAkZOiJdfflnthMCXIXwpYiMBEkg7gTZt2kjZsmVVTpW093L2lcuWLVNHMVasWCHt27eX7t27S/ny5Z0dNKMjAT8IVKlSReViOnr0qOTNm9ePnryUBEggGAQoRASDKm26ggCFCFdMs+FBnj9/XokQyAnBnRCG46VBlxBInz69KnW7dOlSl0Sccpjjx49XOyHOnDnjzQeRPXv2lDvxXRJwEYEtW7ZItWrVBBVjpk+f7qLIGSoJWJcAhQjrzg09szgBChEWnyALuocSncgJsXv3bvn444/l008/taCXdIkErE0gISFBwsLCpH79+rJkyRJrOxtk7yA8aPkgSpYsqUSIdu3aBXlUmicB+xF4++23ZdasWbJ161Z54YUX7BcAPSYBBxKgEOHASWVI5hCgEGEOZ6eM8p///EdVx0AG+z59+sjQoUOdEhrjIAFTCdy/f18lmWvQoIHExcWZOraVBtu2bZs6ijFz5kyJjIxUIkTt2rWt5CJ9IQFLEDh+/LgUKVJEKlWqpIQISzhFJ0iABIRCBD8EJBAgAQoRAYJzYbcrV67IK6+8Itu3b5devXrJ8OHDXUiBIZOAMQTu3bsnGTJkkIiICFm8eLExRm1mZc6cOWonBLabd+vWTYkQhQsXtlkUdJcEzCGgleyEaNeiRQtzBuUoJEACqRKgEJEqIl5AAkkToBCRNBe+mpjAtWvX5LXXXpNNmzapBcPXX3+d+AL+RgIk4BeBu3fvqvJ7qAaxaNEiv/ra/eI7d+6oXRA4joE8GaiKgQeOqrCRAAk8TOD69euqZGeWLFnk0KFDSsR8+Cq+QgIkEAoCFCJCQZ1jOoIAhQhHTGNQg7h586Y6x7527Vrp1KmTjBs3TtKlSxfUMWmcBJxOAIvxTJkySePGjWXBggVOD9cb34EDB5QIMWbMGKlRo4YSIJo0aeJ9nz+QAAk8TGDs2LHStWtX+fzzz+Wjjz56+AK+QgIkEDICFCJChp4D250AhQi7z2Bw/b99+7ZaKC1fvlyQPG7SpEm8axlc5LTuEgIPHjyQnTt3ypNPPinFixd3RdSrV69WRzGQnLNVq1ZKhAgPD3dF7AySBAIlgL8VpUqVklOnTsmxY8ckR44cgZpiPxIggSAQoBARBKg06Q4CFCLcMc+BRIkz7M2aNZOFCxdK8+bNZcaMGWobdSC22IcESMDdBCBi4ijG4cOHvUcxcuXK5W4ojJ4E0kAAO6awa6h79+7q31AauvASEiABEwlQiDARNodyFgEKEc6aT6OiwR2Y1q1bCz4fyGQ/d+5cnkk1Ci7tkICLCKDcL3LKQIQoWLCgEiE6duzoIgIMlQQejUC1atVkx44dgmNNhQoVejRj7E0CJGA4AQoRhiOlQbcQoBDhlplOe5wJCQnSuXNnmTBhgqqSERsbq86yp90CryQBEiABEZT5hQDx3XffqTwzSEiJyjtsJEACaSOwceNGlUsFVTJQLYONBEjAegQoRFhvTuiRTQhQiLDJRJno5ocffqhKc1avXl2QGyJr1qwmjs6hSIAEnEAA28khQqxfv166dOmidkKUKFHCCaExBhIwjQCq6uBmwK5du6RSpUqmjcuBSIAE0k6AQkTaWfFKEkhEgEJEIhyu/+XTTz+VAQMGqC8833//vWTPnt31TAiABIJB4MaNG/LOO+/Iiy++KNHR0cEYIiQ2saNKO4qByiDYBYGz7agQwkYCJJB2AvHx8VKuXDmpW7eurFy5Mu0deSUJkICpBChEmIqbgzmJAIUIJ83mo8WCcnpYECE7N+5iPv30049mkL1JgASSJXDp0iVVMaNly5YqEWyyF9rojSNHjqhdEBAiqlatqkQIJLplIwES8J9AmzZt1LEmVJupU6eO/wbYgwRIwBQCFCJMwcxBnEiAQoQTZ9X/mFARA196ChQoIBs2bFDP/lthDxIggbQSuHjxojz11FMSFRUl06dPT2s3y163bt06JUJoVXawEwJiBBsJkID/BFBdBkeZcBxj27Zt/htgDxIgAdMIUIgwDTUHchoBChFOm1H/41m6dKk0btxY3Z2FCMFz3P4zZA8S8JcAqkmgfGWrVq3UXU9/+1vp+mnTpqnjGL/++qvaBQERIm/evFZykb6QgK0IvP/++zJu3DhBrhX8/5mNBEjAugQoRFh3buiZxQlQiLD4BAXZvU2bNkm9evVUac4ffvhBKlasGOQRaZ4ESAAEzp07J7lz51Y7kbCQt2O7cuWK2gWBpJQ4ygUBAokp2UiABAIncPLkSSlatKh6/PzzzxIWFha4MfYkARIIOgEKEUFHzAGcSoBChFNnNvW4kAirZs2acvPmTVUdo1atWql34hUkQAKGEDh79qzkyZNH2rZtK1OnTjXEpplG9uzZo0SIyZMnq5KcECHq169vpgsciwQcSaBXr17y1VdfqdwxyCHDRgIkYG0CFCKsPT/0zsIEKERYeHKC6NrRo0dVtv7Tp0/LvHnzuPUziKxpmgSSInDmzBl1fKFdu3YyZcqUpC6x7GsoJ4iElGvWrJGOHTuqnRBlypSxrL90jATsQgACZZEiReSZZ56RvXv3Svr06e3iOv0kAdcSoBDh2qln4I9KgELEoxK0X//z589LjRo15LfffpMJEyaohYT9oqDHJGBvAnfv3hXsKsiZM6cUKlTINsGMHj1a7YS4fPmyNx9E1qxZbeM/HSUBKxPo06ePfP7554KdRu3bt7eyq/SNBEjg/wQoRPCjQAIBEqAQESA4m3a7ceOGKgO2detWGTRokPTv39+mkdBtEiABMwmcOHHCmw+ifPnySoRAok02EiABYwjgJkHhwoVV7ph9+/ap3E3GWKYVEiCBYBKgEBFMurTtaAIUIhw9vYmCu3fvnrzxxhsSFxcnyMg9ZsyYRO/zFxIgARJIigCS2uIoxty5c6VJkyZKhMCuKjYSIAHjCPTt21c+++wz+fbbb+Wdd94xzjAtkQAJBJUAhYig4qVxJxOgEOHk2U0c23vvvScTJ05UC4k5c+bw7GliPPyNBEggCQL4fwSqYuzatct7FKNAgQJJXMmXSIAEAiWg7YZA9Rkcm8yQIUOgptiPBEjAZAIUIkwGzuGcQ4BChHPmMqVIBg4cKJ988olUr15dVq1aJZkzZ07pcr5HAiTgcgKopgMBAg/kgEBVjG7durmcCsMngeAQ6N27twwbNoy7IYKDl1ZJIKgEKEQEFS+NO5kAhQgnz+7/YkNpwA4dOkipUqVk48aNKjme86NmhCRgbQLnzp2T6OhoVfoSlSes1JCtH0cxvvnmG6ldu7YSISIjI63kIn0hAccQQAWdokWLqio6+LfH3RCOmVoG4hICFCJcMtEM03gCFCKMZ2oli9j90KBBA8mVK5ds3rzZVtn5rcSRvpCA0QQOHz6syvR16dJFxo4da7T5gO0tX75c7YJYsWKFoLQodkIgOSUbCZBAcAj06NFD/ZubNm2atGnTJjiD0CoJkEDQCFCICBpaGnY6AQoRzp1hlAbEUYwHDx7I2rVrJTw83LnBMjISsBmBQ4cOqbugXbt2FZTEtELDDggcxTh16pQ3H0SOHDms4Bp9IAFHEjh+/LgUL15c3SSIj49n7iZHzjKDcjoBChFOn2HGFzQCFCKChjakhk+ePClVq1ZVC4qFCxeqXREhdYiDkwAJJCJw8OBBKVasmDqeMWrUqETvmf3L2bNnlQABEaJEiRLSvXt3ad++vdlucDwScB2Bzp07qyNQs2fPlrfeest18TNgEnACAQoRTphFxhASAhQiQoI9qINeu3ZNatWqJT/++KPa8o2t32wkQALWInDgwAG16EcCSORjCFXbvn27EiFmzpwpjRo1UjshXnrppVC5w3FJwDUEfv/9d3nuueekTJkyqipNWFiYa2JnoCTgJAIUIpw0m4zFVAIUIkzFHfTB7t+/L2+88YbExsZKr169ZPjw4UEfkwOQAAn4TwAl+pBAFrsPsBMhFG3u3LlqbOSPiYmJUSJEkSJFQuEKxyQB1xGIiooSfAeLi4vjrkXXzT4DdhIBChFOmk3GYioBChGm4g76YFrSK4gR8+bNE95hCTpyDkACARHYt2+flC5dWi3+//73vwdkI9BOd+/eVbswIIDgbwTEECSlTJ8+faAm2Y8ESMAPArt375ZKlSpJtWrVZMOGDX705KUkQAJWI0AhwmozQn9sQ4BChG2mKlVHx48fLziGUblyZVm3bp1kyZIl1T68gARIIDQEbt++LRAjUNEmX758pjmB7eAQIMaMGaOS2UKAaNq0qWnjcyASIAGR+vXry7Jly5QIgaTSbCRAAvYlQCHCvnNHz0NMgEJEiCfAoOFRphNfbPLmzSvbtm2TZ555xiDLNEMCJOAUAmvWrFEiBLaCY1s4RAgIl2wkQALmEUAVK+RhiYiIkMWLF5s3MEciARIICoH/AgAA//8AsGxgAABAAElEQVTsnQWYU8ny9gt398XdXRadwZ3F3W1wuAuLDbbIDA4f7g4Xh0EHd13c3Vlk8cVt853q+082M5MMkZOTI28/T56J9Omu+nWSyXlPdVUEk9QIDQRAwGkC//3vf6lp06a0ZMkSatasmdPH4wDvE7h27RoVLVqUvn79SgcPHqT8+fN73yhYAAIgoCoC8+fPp//3//4f3bp1i3799Vfq0aMHJUmSRFU2whgQ0DsBPl3h/9enTp2is2fPUq5cufTuMvwDAd0TiAAhQvdrDAc9RABChIfAKjTsy5cvxY8aPrlYu3Yt1apVS6GZMQ0IgIAWCPB3BAsQfEudOjX95z//ofbt22vBdNgIArojsGrVKmrYsCG1bt2aWBxEAwEQ0D4BCBHaX0N44CUCECK8BF6Gab99+0aVK1em3bt3U2BgIPXv31+GUTEECICAXgicOXNGCBCLFy+mKlWqCBGiYsWKenEPfoCApgh8+fKFcuTIQY8ePaLr169TqlSpNGU/jAUBELBNAEKEbS54FgR+SABCxA8RqbZDt27daOrUqZatNREiRFCtrTAMBEAgJIE7d+7Qb7/9RnXr1qUmTZqEfFGGR0FBQUKE2L9/P3Xs2FGIEFmzZpVhZAwBAiDgCoFJkyaJzyFfNOCLB2ggAAL6IAAhQh/rCC+8QABChBegyzDlnDlzyM/Pj4oUKUJ8ohE9enQZRsUQIAACShHgaIUCBQqQv78/BQQEyDotb8Pgk55Pnz6JEx/ejhEtWjRZ58BgIAACjhN49eoVZc6cmSJGjEg3b96kuHHjOn4weoIACKiaAIQIVS8PjFMzAQgRal4d27YdOnSIypUrR4kTJ6YTJ07QTz/9ZLsjngUBEFAtAU5WV6hQIRo4cCANHz5cFjvv3btnyQfx888/CxGiUaNGsoyNQUAABFwn0KtXL5owYQJNmzaNOnfu7PpAOBIEQEB1BCBEqG5JYJBWCECI0MpK/c/Ohw8fipOXN2/e0L59+4hPNtBAAAS0R+DkyZNUuHBhGjRoEA0bNsxtBw4cOCBEiPXr11ODBg2ECFGsWDG3x8UAIAAC7hHgZNKcGyJjxox0/vx5ihw5snsD4mgQAAFVEYAQoarlgDFaIgAhQjurxWHWPj4+IgpiwYIF1KpVK+0YD0tBAARCEOBoJt5aNXjwYBo6dGiI15x9wMkoeTvGpUuXLFsxUqRI4eww6A8CIOABApwHZt26dbR582aqVq2aB2bAkCAAAt4kACHCm/Qxt6YJQIjQzvJxua+FCxcSJ6mcPHmydgyHpSAAAmEIHD9+XJTe/f3332nIkCFhXnfkibdv31q2YiRKlEiIEAj7doQc+oCAMgQ4crFMmTLE1Wq2b9+uzKSYBQRAQFECECIUxY3J9EQAQoQ2VpP3lXbt2pV8fX1p586dFCVKFG0YDitBAARsEjh27Bjx1gmOhuCoCGfbxYsXhQgxb948Kl++vBAhcLXVWYroDwKeI/D9+3exlZI/q5ycNleuXJ6bDCODAAh4jQCECK+hx8RaJwAhQv0rePjwYXFFJXny5MT7ypMmTap+o2EhCIBAuAQ+fPhAt2/fFp9nZz/THOLNWzF2795N7dq1EyJEzpw5w50PL4IACChLYPbs2dShQweRnJIvJqCBAAjokwCECH2uK7xSgACECAUguzHF48ePqWDBgvTy5UviZHS8pxwNBEDAuAT4hIZFCC4HyGU5+RY7dmzjAoHnIKBCAq9fv6YsWbIQR0Vcv36deOsUGgiAgD4JQIjQ57rCKwUIQIhQALKLU3z9+lWU6Tx48CDxlZX27du7OBIOAwEQ0DqBP//8kyZNmiREiDx58lCPHj2oefPmWncL9oOALgmwQMif1ylTpohtlbp0Ek6BAAgIAhAi8EYAARcJQIhwEZwCh5nrjrdp04Z4HzgaCICAMQkcOXJEnNSsWrWK6tSpI6IgSpUqZUwY8BoEVE6Aq9fky5ePsmXLJnJDoFynyhcM5oGAmwQgRLgJEIcblwCECHWu/Zo1a6hBgwbixwyfhESPHl2dhsIqEAABjxJYvny5iILgcp/mrRhp0qTx6JwYHARAwHUC5cqVoz179ogbV8xAAwEQ0DcBCBH6Xl9450ECECI8CNfFoXk/aeHChSlSpEgiOWWGDBlcHAmHgQAIqJXAhQsXaNCgQdSqVSuqVatWGDM/ffokBAjOBxEjRgwhQvB2DDQQAAH1Eli9erW4iMAXElauXKleQ2EZCICAbAQgRMiGEgMZjQCECHWt+MePH6lo0aLEJylBQUH0yy+/qMtAWAMCICALAb5iyldOx44dS7/99luIMa9evSpEiFmzZlHp0qWFCFGzZs0QffAABEBAXQTev39P2bNnF8mlr1y5QqlTp1aXgbAGBEDAIwQgRHgEKwY1AgEIEepaZS7Fx/kg+vTpQ6NHj1aXcbAGBEBANgJcerN8+fI0fvx46tmzp2Xc7du3CxFi27Zt1LJlSyFC8H5zNBAAAXUT6N+/P40aNYoCAwOJ76OBAAgYgwCECGOsM7z0AAEIER6A6uKQixcvFiceJUuWpL179xISXLkIEoeBgAYI7Ny5kypWrEgTJkygX3/9VVjM1XF4KwZXyDDng0iQIIEGvIGJIGBsAhwBwYJh+vTp6fz58xQ1alRjA4H3IGAgAhAiDLTYcFVeAhAi5OXp6miXL1+mIkWKUMyYMUWW7ZQpU7o6FI4DARDQAIEdO3ZQpUqVaOLEidSkSRNLPojMmTMLEaJ169Ya8AImggAImEwmEd3E261YYORIJzQQAAHjEIAQYZy1hqcyE4AQITNQF4b78OGDECH4isrWrVvFyYkLw+AQEAABDRHgLRiVK1cmLtP7+PFj4u/iGjVqCBGibNmyGvIEpoKAsQksXbqUmjdvTg0bNqQVK1YYGwa8BwEDEoAQYcBFh8vyEIAQIQ9Hd0Zp06YNLViwgPz9/SkgIMCdoXAsCICARggEBwdT1apViavi3L59m7p27SpEiIwZM2rEA5gJAiDw6tUrkaCSq9zwxYQUKVIACgiAgMEIQIgw2ILDXfkIQIiQj6UrIy1ZsoRatGhBPj4+xMnrkBfCFYo4BgS0ReDbt280ZswYmjx5sijTy8kqOScEl+xFAwEQ0A6BDh06EOd2mTJlihATtWM5LAUBEJCLAIQIuUhiHMMRgBDhvSW/du0aFSpUiKJHj05nz54l5IXw3lpgZhBQisCtW7dEPoipU6dSiRIlhABRr149pabHPCAAAjIROHToEPn6+or/40eOHIGQKBNXDAMCWiMAIUJrKwZ7VUMAQoR3loLDOIsVK0bnzp2jzZs3ixBt71iCWUEABJQiwMnsuCrGpk2bRIJKjoIoXLiwUtNjHhAAAZkIfPnyhfLnz0/Xr1+nEydOiIoZMg2NYUAABDRGAEKExhYM5qqHAIQI76xFt27diK+IcqK6cePGeccIzAoCIKAYgfnz5wsRgiMizKU5kyRJotj8mAgEQEA+AkOHDqXff/+devfuLbZZyTcyRgIBENAaAQgRWlsx2KsaAhAilF+KDRs2UO3atUU4J4d2ot648muAGUFAKQKczI6jIPjG269YhPDz81NqeswDAiAgMwEut12gQAFKlSoVnT9/XpTdlnkKDAcCIKAhAhAiNLRYMFVdBCBEKLseDx8+FCGcX79+pdOnTxMy5CvLH7OBgJIEOPcLCxCLFi0SpTpZhKhUqZIwgfeUjxw5kjg6qmLFikqahblAAARcJPDPP/9QqVKl6OjRo7Rz504qV66ciyPhMBAAAb0QgBChl5WEH4oTgBChHPLv37+LHy379+8nrjvetGlT5SbHTCAAAooSCAoKokmTJtG+ffuoY8eO1KNHD8qWLZvFhrVr1xInqZw7dy61bdvW8jzugAAIqJcAV7rhzzKX3Z43b556DYVlIAACihGAEKEYakykNwIQIpRb0YCAABo4cKAo18lXSNFAAAT0SYAFCI6E+PjxoyUfBFfHsW5r1qyh+vXri5MZPqlBAwEQUDeB27dvU548eShevHh08eJFSpAggboNhnUgAAKKEIAQoQhmTKJHAhAilFnVY8eOiXDOdOnSiS0ZceLEUWZizAICIKAYgfv371vyQXA1DN6K0bhxY5vzr1q1iho2bEgLFiygVq1a2eyDJ0EABNRBwGQyUfny5Ykr33C0U82aNdVhGKwAARDwOgEIEV5fAhigVQIQIjy/cm/fvhVlvvgkhZNTFilSxPOTYgYQAAFFCRw4cEBsxVi3bh01aNBAiBBcotdeW7lyJTVq1IgWLlxILVu2tNcNz4MACKiAwIwZM6hz585CWOTfTWggAAIgYCYAIcJMAn9BwEkCECKcBOZCd77ayVsxAgMDqX///i6MgENAAATUTGDJkiUiEuLChQuWrRg//fRTuCavWLFCnNQsXryYmjdvHm5fvAgCIOA9Anfu3KG8efOK6hi8JSNx4sTeMwYzgwAIqI4AhAjVLQkM0goBCBGeXSlz+LWvry/t3r2bIkWK5NkJMToIgIBiBN69e2fZisH7xXkrRpcuXRyaH9+9DmFCJxDwKgHeksGVMfbu3Usc7cSlt9FAAARAwJoAhAhrGrgPAk4QwI9hJ2A52ZVLdXJiK/4hc+7cOUqTJo2TI6A7CICAWgnwlVFOSMmZ83nvOGfSr169usPm8patJ0+eULJkyShu3LgOH4eOIAACyhGYMmUKde/enZo0aULLli1TbmLMBAIgoBkCECI0s1QwVG0EIER4ZkW41njFihVFFAQztpewzjOzY1QQAAFPEtiyZYsQIXbt2iVKb3IkRK5cuTw5JcYGARBQmMD169dFfqf48eMTb7tKmDChwhZgOhAAAS0QgBChhVWCjaokACHCM8syceJE6tmzJ66ieAYvRgUBrxGYPn26ECFevHhhyQeBKjheWw5MDAIeIfDt2zdR6er48eO0efNmqlq1qkfmwaAgAALaJwAhQvtrCA+8RABChPzgL126RIUKFaIkSZLQ+fPnia+moIEACGibwKNHj4QAMWnSJBH9wFsxWrRooW2nYD0IgIBNAiNGjKBBgwaRn58fzZo1y2YfPAkCIAACTABCBN4HIOAiAQgRLoKzc9iXL1+oaNGiIifEzp07qWzZsnZ64mkQAAGtEDh69KgQITj5LCer460YPj4+WjEfdoIACDhB4OTJk1S8eHGR1+ns2bMUO3ZsJ45GVxAAAaMRgBBhtBWHv7IRgBAhG0ox0MCBAykgIECcqPD2DDQQAAFtE+Aym5yUkkO0WYDgW9q0ad12avv27cTRFf7+/lSyZEm3x8MAIAAC7hP48OEDFSxYkG7cuEEHDhwQgoT7o2IEEAABPROAEKHn1YVvHiUAIUI+vMeOHRN7SjNnzkynTp2iGDFiyDc4RgIBEFCUwKdPnyxbMaJHjy4ECN6OIVebO3cutW/fntasWUN169aVa1iMAwIg4AYBLr/LeWD4osLw4cPdGAmHggAIGIUAhAijrDT8lJ0AhAh5kPJVlPz589Pt27eJw7g5RwQaCICANglcu3ZNiBAzZ84kX19fIULUqlVLVmfmzJkj9p+vW7dObPeQdXAMBgIg4DQBTkr5yy+/iP/fhw8fpihRojg9Bg4AARAwHgEIEcZbc3gsEwEIEfKA5HBtDrMePHgwDR06VJ5BMQoIgIDiBHbs2CFEiODgYJGMkj/bLDLK3WbPnk0dOnSg9evXk9wih9y2YjwQ0DuBJ0+eUN68eYkvKpw+fZo4shENBEAABBwhACHCEUroAwI2CECIsAHFyaf2798vklLyjxjeR46rKE4CRHcQUAkBFgdYUHz48KFlK0bChAk9Yh1n4u/YsSMFBQVRzZo1PTIHBgUBEPgxAZPJRFWqVCHO28Jbptq2bfvjg9ADBEAABP6PAIQIvBVAwEUCECJcBPd/h717905cRfnzzz/pxIkTlDt3bvcGxNEgAAKKE3j27JmIguCklBkzZhQiRJs2bTxqx4wZM6hz5860YcMGEQ7u0ckwOAiAgF0CEyZMoF69elH9+vWJK+OggQAIgIAzBCBEOEMLfUHAigCECCsYLtw1J7biShmc/R4NBEBAWwS4VB8LEMuWLaPq1asLEaJcuXIed2LatGnUtWtX2rRpk5jX4xNiAhAAgTAEOLE0l+pMnjw5canOBAkShOmDJ0AABEAgPAIQIsKjg9dAIBwCECLCgfODl/bu3Ut8wsKJKY8cOUKRI0f+wRF4GQRAQE0EuGIFb8U4dOiQEAW4KkamTJkUMfHvv/+m58+fU7JkyShWrFiKzIlJQAAE/iXw9u1bUarzzp07xP/PUUb3Xza4BwIg4DgBCBGOs0JPEAhBAEJECBwOP3j//j3lyZOHeEsGX1HJmTOnw8eiIwiAgHcJfP/+3bIVg/eHc0JKvkFM9O66YHYQUJJAs2bNRCTUsGHDaNCgQUpOjblAAAR0RABChI4WE64oSwBChGu8u3fvTlOmTKERI0bQgAEDXBsER4EACChOgEvs8lYM/vxySDYLELw3HA0EQMA4BObPny+SUpYtW5a4Uk6kSJGM4zw8BQEQkJUAhAhZcWIwIxGAEOH8anMYt6+vL+XLl09UycBVVOcZ4ggQ8AYBDr9mEWLjxo3UpEkT4q0YRYoU8YYpmBMEQMBLBC5duiQ+97FjxxZ5IVKkSOElSzAtCICAHghAiNDDKsIHrxCAEOEc9k+fPgkBgq+qcpUMLtmJBgIgoH4CCxYsECLEjRs3LFsxkiZNqn7DYSEIgIBsBHhbJYuPV69epeDgYKpYsaJsY2MgEAABYxKAEGHMdYfXMhCAEOEcxH79+tHo0aNp4MCBNHz4cOcORm8QAAHFCbx+/dqSD4KvfPJWjA4dOihuR+gJOVHm7NmzxfdJ/vz5Q7+MxyAAAh4g0LJlS1q8eLHYUslbK9FAAARAwF0CECLcJYjjDUsAQoTjS3/69Gn6+eefKUuWLMT3o0WL5vjB6AkCIKA4AS7Hx1UxFi5cSJUqVRIiROXKlRW3w9aE48aNo969e9Pu3buJ96mjgQAIeJbAvHnzqF27dmJrJX/ukBfCs7wxOggYhQCECKOsNPyUnQCECMeQfvv2TYgQfGLDOSKKFSvm2IHoBQIg4BUCGzZsEJEQ+/btExEQHAmRLVs2r9hia9KxY8dSnz59aM+ePVSmTBlbXfAcCICATAT4fzcnp40bNy6dOXOGkBdCJrAYBgRAgCBE4E0AAi4SgBDhGLgxY8ZQ3759qVu3bjR58mTHDkIvEAABrxDgzygnpeT94CxA8C1GjBhescXepObvFE6gWbp0aXvd8DwIgICbBN68eUOFChWiO3fu0M6dOyH8uckTh4MACIQkACEiJA88AgGHCUCI+DGqW7duUZ48eShx4sR08eJFihMnzo8PQg8QAAHFCdy/f19sxWARgk88uCoGV8dQYxs1ahT179+f9u/fTz4+Pmo0ETaBgOYJmEwmqlOnDgUFBVFgYKD4zGneKTgAAiCgKgIQIlS1HDBGSwQgRPx4tTirNl9F2bRpE1WvXv3HB6AHCICA4gQOHjwooiDWrVtH9evXF1EQHIqt1jZy5Ejy9/enAwcOUKlSpdRqJuwCAU0T4OTSnGS6Ro0axNu1IkSIoGl/YDwIgID6CECIUN+awCKNEIAQEf5CLV26lJo3b04NGjSglStXht8Zr4IACHiFAH9OOQri3Llzlq0YKVOm9Iotjk7KV2cHDBggcs6UKFHC0cPQDwRAwEECnJCSk9SmS5dOlNtOkCCBg0eiGwiAAAg4TgBChOOs0BMEQhCAEBECR4gHL1++FMntvn79SpcvX0ZyqxB08AAEvE/g3bt3lq0Y8ePHF1sxunbt6n3DHLCA962/evWKkidPTtGjR3fgCHQBARBwlABv0+LtWZwn5siRI5Q3b15HD0U/EAABEHCKAIQIp3ChMwj8SwBCxL8sQt/jMl9c7mvGjBnUsWPH0C/jMQiAgBcJXLp0SURBzJ07l8qVKyciIbB1yosLgqlBQCUEPn36JPKunDhxghYvXiyiGlViGswAARDQIQEIETpcVLikDAEIEbY5835zX19fKlq0qAidjhgxou2OeBYEQEBxAlu3bhUiBOduadOmjRAhcufOrbgdmBAEQEB9BPg7YcGCBahypb6lgUUgoEsCECJ0uaxwSgkCECLCUuatGPnz56dr167RqVOnRMWMsL3wDAiAgDcIcIQS54N4/vy52IrBpTnjxo3rDVMwJwiAgMoITJ8+nbp06SIiInbt2kVRokRRmYUwBwRAQG8EIETobUXhj2IEIESERT1mzBjq27cv9erVi8aNGxe2A54BARBQnMDjx4+FAMEiRM6cOUUURIsWLRS3AxOCAAiokwBXoClfvjwlS5aMTp48Kf6q01JYBQIgoCcCECL0tJrwRVECECJC4uYEVzly5KCECROKBJWxY8cO2QGPQAAEFCdw7NgxIUJw5ZpatWoJEYK3Tmm5zZ8/n5YtW0YzZ86kzJkza9kV2A4CXifA/7sLFy5Mf//9tyiJy/fRQAAEQEAJAhAilKCMOXRJAEJEyGWtU6cOrV+/ntasWUN169YN+SIegQAIKE6AxQeOgmAxgrdh9OjRQ5TjU9wQmSfk0p1cwvP06dNiK5jMw2M4EDAMgQ8fPlCpUqXEZ2nRokWESCnDLD0cBQFVEIAQoYplgBFaJAAh4t9VCw4OpqpVq1LlypWJ76OBAAh4j8Dnz58tWzGiRYsmRAgWIvTS/P39aeTIkXTmzBnKly+fXtyCHyCgKAGTyURNmjShFStW0K+//koTJkxQdH5MBgIgAAIQIvAeAAEXCUCI+B84PunJlSsXPXjwgC5evEiZMmVykSgOAwEQcJfA9evXhQjBiSl9fHyECFG7dm13h1XV8f3796dRo0bR2bNnKW/evKqyDcaAgFYIcFQRRxdVrFiRuJpOpEiRtGI67AQBENAJAQgROllIuKE8AQgR/2MeEBBAAwcOFLfhw4crvxCYEQRAQBDgkpy8FYNPKpo3by5EiAIFCuiODifE5cS458+fJ5Qe1d3ywiEFCAQFBYktlHzhgLduJUiQQIFZMQUIgAAIhCQAISIkDzwCAYcJQIgg4iRX2bNnpyRJkogElTFjxnSYHzqCAAjIR2DOnDlChODIJN6GwTdOHKvH1qdPHxo7dixduHBBRGPp0Uf4BAKeInDu3DkqWbIkRY4cmY4ePUrZsmXz1FQYFwRAAATCJQAhIlw8eBEE7BOAEEFUv359kZxy7dq1xMkq0UAABJQl8Pz5c0s+iPTp0wsBom3btsoaofBsvXv3FuWBL126JCr1KDw9pgMBzRJ4+vQpFSlShB49ekSbN2+mSpUqadYXGA4CIKB9AhAitL+G8MBLBIwuROzZs4fKlStHFSpUoB07dnhpFTAtCBiXwKlTp4QIsXTpUqpWrZoQIcqXL697IG/evKG3b99SsmTJKEqUKLr3Fw6CgBwEPn36RGXKlBFbMSZPnkzdunWTY1iMAQIgAAIuE4AQ4TI6HGh0AkYWIr59+ybK5l27dk0kjMuRI4fR3w7wHwQUJcBRSJwP4tChQ9SlSxchQiBRrKJLgMlAQDMEuEJG06ZNafny5dSpUyeaPn26ZmyHoSAAAvolACFCv2sLzzxMwMhCxNSpU8XVFN6HPnHiRA+TxvAgAAJmAv/8849lK8b379+FAMGfQ0QGmAnhLwiAQGgCQ4YMoWHDhokIRk5my/kh0EAABEDA2wQgRHh7BTC/ZgkYVYh48eIFZcmSRZT64lKB8ePH1+wawnAQ0BKBO3fuCBGCw6qLFy9OPXr0oAYNGmjJBdgKAiCgMAHeutWiRQuRWPrw4cP4n60wf0wHAiBgnwCECPts8AoIhEvAqEIE7yvliIhZs2aRn59fuIzwIgiAgDwE9u7dK0SIjRs3UuPGjUUkBCedQwMBEAABewQOHDhAFStWpHjx4oncEJzQFg0EQAAE1EIAQoRaVgJ2aI6AEYWIy5cvU968eSlnzpzEifIiRYqkuXWDwSCgNQILFy4UIgTnZDGX5uREjUZtnBsjKChI7HdPkSKFUTHAbxAIlwBHLHLk1IcPH2j37t1UrFixcPvjRRAAARBQmgCECKWJYz7dEDCiEFG1alUKDg4WP2rKli2rm7WEIyCgRgJcHYJPuvmWPHlysRWjY8eOajRVUZs4OScn2+OtKunSpVN0bkwGAlog8OzZMyE88GdkxYoVotS2FuyGjSAAAsYiACHCWOsNb2UkYDQhYtu2bVSlShWqWbOmuBopI0oMBQIgEIrAuXPnhADB0RCVKlUSkRCVK1cO1cuYDznr/8yZM+nu3buUNm1aY0KA1yBgh8DHjx+JLxQcO3aMxowZQ71797bTE0+DAAiAgHcJQIjwLn/MrmECRhIiODt/vnz5iEM9L168SJkzZ9bwysF0EFA3Ac4DwVEQnBeC87Dwdozs2bOr22gFreOoEM5Rc+/ePUqTJo2CM2MqEFA3Aa6qU69ePVq/fj3KdKp7qWAdCICARABCBN4GIOAiASMJEbNnz6YOHTqI0HA+QUIDARDwDIEpU6YIEeLdu3fi88YiRMyYMT0zmUZHZXFmzpw59ODBA0qVKpVGvYDZICA/ge7duxN/h1SvXl1ELiKPk/yMMSIIgIB8BCBEyMcSIxmMgFGECD4h4giIz58/082bNylhwoQGW2m4CwKeJ8An1eZ8EAULFhRREE2aNPH8xBqcoX379jR37lx6+PAhpUyZUoMewGQQkJ/AuHHjxDaMwoULi2iqWLFiyT8JRgQBEAABGQlAiJARJoYyFgGjCBFDhgyhYcOGEf/I6dWrl7EWGd6CgAIEDh06JESItWvXirBqjoIoUaKEAjNrc4p27drRvHnz6M8//6SffvpJm07AahCQkcDy5cupadOmlCFDBjpy5AglTZpUxtExFAiAAAh4hgCECM9wxagGIGAEIeLx48ciGoJ/1Fy5coWiRYtmgJWFiyCgHIFly5YJEeLMmTOW0pzYbhA+f64mwiUJuYRpxIgRw++MV0FA5wS4NCdXtIoXLx4dPnwYOZx0vt5wDwT0RABChJ5WE74oSsAIQgTnheD8EHyyhDBxRd9emEznBN6/fy8EiEmTJlHcuHGFCNG1a1edew33QAAE5CTAAmbp0qWJE0rv2bOHihQpIufwGAsEQAAEPEoAQoRH8WJwPRPQuxBx9epVyp07N+XNm5dOnDhBESJE0PNywjcQUIzA5cuXhQjBCRe5zB5vxahRo4Zi82MiEAAB7RO4ffu22ML14sULkZiSoyLQQAAEQEBLBCBEaGm1YKuqCOhdiKhTp44oAbZz504qX768qtjDGBDQKoHg4GAhQuzYsYNat24tRIg8efJo1R3YDQIg4AUCT58+pZIlS9KtW7dowYIF1LJlSy9YgSlBAARAwD0CECLc44ejDUxAz0LEsWPHqHjx4lShQgXavn27gVcZroOAfARmzJghRIhnz55Z8kHwtgw0EAABEHCUwN9//01lypSh06dP0+jRo6lPnz6OHop+IAACIKAqAhAiVLUcMEZLBPQsRPCPnP3799PJkyepQIECWloW2AoCqiPw5MkTIUBwec7s2bMLEQJXMF1fJq7iw5FaW7ZsEfk1XB8JR4KAtgh8+vRJJKbcu3cv9ezZk8aPH68tB2AtCIAACFgRgBBhBQN3QcAZAnoVIjgConLlytSwYUNasWKFM0jQFwRAIBSB48ePCxGCP0s1a9YUIgQnl0NznQCXKeTv35cvX1KCBAlcHwhHgoCGCHBCyvr164stky1atKCFCxcid5OG1g+mggAIhCUAISIsEzwDAg4R0KMQYTKZqHDhwnTu3Dm6dOkSZcmSxSEW6AQCIBCWwMqVK4UIwVudevToIW7p06cP2xHPOEWgcePGQiR9/fq1KFno1MHoDAIaJMD/m9u1a0fz588XiW3XrVtHkSNH1qAnMBkEQAAE/iUAIeJfFrgHAk4R0KMQsWbNGnHFhX/wcEZ/NBAAAecJfPnyxbIVI0qUKJZ8EKg84zxLW0c0atSIWOR58+YNtmbYAoTndEegV69eNGHCBPLx8aFt27ZRjBgxdOcjHAIBEDAeAQgRxltzeCwTAb0JERz2ydn7uSTY9evXKXXq1DKRwjAgYBwCN27cECLE9OnTxUkDR0JwBRo0+Qg0aNCAVq9eTZy0L06cOPINjJFAQIUERowYQYMGDRL5mvbs2YMoIBWuEUwCARBwjQCECNe44SgQEHuUea/ykiVLqFmzZponwn7wvlM+ceKkemggAALOEeAEivzZ2bp1KzVv3lx8lgoWLOjcIOj9QwK8T56jt969e0exYsX6YX90AAGtEpgyZQp1796dsmXLRgcOHKAkSZJo1RXYDQIgAAJhCECICIMET4CAYwT0FBHx7ds3kc3/8ePHdPPmTUqePLljENALBEBAEJg7d64QIe7du2fZipEoUSLQ8QCBunXrEu+Rf//+PcWMGdMDM2BIEPA+gUWLFlHr1q0pTZo0dPDgQUQpen9JYAEIgIDMBCBEyAwUwxmHgJ6ECE6A1bZtW1GPnOuSo4EACDhG4MWLF0KA4EiItGnTChGCc6ygeY4Ab8ngMoZ8dRh5NzzHGSN7j8DatWuJc6EkTpxYREJkzpzZe8ZgZhAAARDwEAEIER4Ci2H1T0AvQsTXr18pa9as9Pz5c5Efgn/4oIEACPyYwKlTp2jSpElie1a1atWECFG+fPkfH4geIAACIGCHQHBwMNWqVYtix45N+/bto9y5c9vpiadBAARAQNsEIERoe/1gvRcJ6EWI4OoYfn5+1L9/fwoMDPQiUUwNAtohwFsDOAqCQ6Y7d+4sRAhctdTO+sFSEFAjARYeqlatSlxth3POFClSRI1mwiYQAAEQkIUAhAhZMGIQIxLQgxDB0RBZsmQhDi+/c+cOYU+7Ed/J8NkZAiaTybIVgz8///nPf8QtatSozgyDviAAAiAQgsCRI0eoUqVK9M8//xBHRXCpTjQQAAEQ0DMBCBF6Xl345lECehAiOMFe+/btyd/fnwICAjzKC4ODgNYJsFjHURCTJ0+mYsWKCQGCS0migQAIgIA7BE6cOEEVKlSgz58/08aNG8V9d8bDsSAAAiCgBQIQIrSwSrBRlQS0LkRwpQzODfHXX3/R3bt3EQ2hyncZjFILAQ6ZZhFiw4YNIokcR0L8/PPPajHPUHb07NmTjh07RocPH0aySkOtvD6dPXPmDJUrV05UgeEkldWrV9eno/AKBEAABEIRgBARCggegoCjBLQuRHBpsFatWqFShqMLjn6GJcCfFRYhrly5YtmKgRK33ns78B76bdu2iRB271mBmUHAfQLnz5+nsmXLEleCWblyJdWuXdv9QTECCIAACGiEAIQIjSwUzFQfAS0LEd+/f6ccOXLQw4cPRW6IpEmTqg8wLAIBLxN48+aNJR9EsmTJhAjRsWNHL1uF6StXrky7du0ijupCAwGtErhw4YKIhHj16hXx74n69etr1RXYDQIgAAIuEYAQ4RI2HAQCJH44NG3aVJTua9asmaaQrFixgho3bixOrCZOnKgp22EsCChBgK9UchTEggULqGLFiuKzUqVKFSWmxhw/IMAJ/fbs2UOcLBQNBLRI4OLFiyISgkWIJUuWiO1eWvQDNoMACICAOwQgRLhDD8camoBWIyI463++fPno2rVrdOvWLUqZMqWh1xHOg0BoAps2bRIiBJ/scjJXzgfBEURo6iDAwhDn7Pjy5Ys6DIIVIOAEAXMkxMuXL4UIwRcF0EAABEDAiAQgRBhx1eGzLAS0KkTwSdYvv/xCfn5+NGvWLFlYYBAQ0AuBKVOmCBHi7du3QoDo0aMHxYoVSy/u6cKP8uXL06FDh+jTp0+68AdOGIcAR1rx+5cjIRYvXiwiE43jPTwFARAAgZAEIESE5IFHIOAwAa0KEcWLFycuFXb16lXKmDGjw/6iIwjomQDnS+GtGHzLnz+/ECF46xWa+ghwhYEjR47Qx48f1WccLAIBOwS4OgaX6OTcM9iOYQcSngYBEDAUAQgRhlpuOCsnAS0KERzOXKZMGWrSpAktW7ZMThwYCwQ0S4DLQLIAsWbNGqpbt64QIUqWLKlZf/RuOEercH6IhAkT6t1V+KcTAiz+c26Td+/eif+9SEypk4WFGyAAAm4RgBDhFj4cbGQCWhQiONv8jh076OzZs5QnTx4jLx98BwFBgAW5SZMm0enTpy1bMVKnTg06IAACICALAY7e4ZKzHMHDiaJRolMWrBgEBEBABwQgROhgEeGCdwhoTYjgsNCCBQuKH0SbN2/2DjTMCgIqIfDhwwfLVow4ceIIEaJbt24qsQ5mgAAI6IEARyHWqFFDlJrliKtq1arpwS34AAIgAAKyEIAQIQtGDGJEAloTIjgzN1+NOXjwICHs3IjvWPhsJnDlyhUhQsyePVtsVeKqGJzAFQ0EQAAE5CKwbds2qlOnDkWIEIGCgoJEfgi5xsY4IAACIKAHAhAi9LCK8MErBLQkRNy+fZuyZs1KRYoUId4PjwYCRiXAJwecD2L79u3UunVr4qoYefPmNSoO+A0CIOABAuvXrxcVMaJGjUocgejj4+OBWTAkCIAACGibAIQIba8frPciAS0JERxyPnXqVHFVpmbNml6khqlBwHsEZs6cKUSIp0+fiq0YHAkRL1487xmEmV0i0LZtW7p37x7t2rXLpeNxEAh4kgBXxGjTpg3FjRuXgoODxQUAT86HsUEABEBAqwQgRGh15WC31wloRYh4/vw5pU2bltKkSUOXLl2iiBEjep0dDAABJQmw8GAuzcmRQSxAtGrVSkkTMJeMBIoVK0bXr1+nFy9eyDgqhgIB9wlMnz6dWPhPkiSJSAyNpNDuM8UIIAAC+iUAIUK/awvPPExAK0LE8OHDafDgwTRnzhxq166dh6lgeBBQF4Hjx4+LqhjLly8njgbirRhcwhZNuwSKFi1Kt27domfPnmnXCViuOwKBgYE0YMAAIfrv3LmTsmTJojsf4RAIgAAIyEkAQoScNDGWoQhoQYj49OmTiIbgKIg7d+5Q9OjRDbVGcNbYBFatWiUiIY4ePUrdu3cXkRDp06c3NhQdeM+5bu7evUt//fWXDryBC1onYDKZqHfv3jR+/HiRi4lLZHMEIhoIgAAIgED4BCBEhM8Hr4KAXQJaECI4CsLPz484KmLgwIF2fcELIKAnAl+/frVsxYgUKZIlHwS2JeljlQsXLkwPHjygJ0+e6MMheKFZAt++fRP/YxcsWEAFChQQOSGSJk2qWX9gOAiAAAgoSQBChJK0MZeuCKhdiOCrNDlz5hRJ3e7fv0+JEiXSFX84AwK2CNy8eVOIENOmTaNSpUoJEYJL6KHph0ChQoXozz//pMePH+vHKXiiOQIccdioUSPasGED+fr6ir9Ifqu5ZYTBIAACXiQAIcKL8DG1tgmoXYjgbN1Vq1alTp06ESfQQgMBvRPgKgqclHLLli3UrFkzIUIULFhQ724bzj++8szREI8ePTKc73BYHQRev34tcs4cOHBA/F2xYgW2PqpjaWAFCICAhghAiNDQYsFUdRFQuxBRsWJF2r17N125cgVJs9T11oE1HiAwb948IUJw7gBOSMmVMRInTuyBmTCktwm8e/eO/vnnH1Ee0du2YH7jEWABrEqVKnT+/HlRpnPWrFkUOXJk44GAxyAAAiDgJgEIEW4CxOHGJaBmIeLixYvEZcOqVatGmzZtMu4iwXPdE+ASjpMmTRIiBCeIYwEC1WF0v+xwEAS8QuDatWtUuXJlkSy1f//+FBAQQBEiRPCKLZgUBEAABLROAEKE1lcQ9nuNgJqFiPbt29PcuXOJQ9XLlSvnNUaYGAQ8SeD06dNCgFiyZInYhsQiRIUKFTw5JcYGARAwKIFjx45RjRo16OXLlzRx4kRRicegKOA2CIAACMhCAEKELBgxiBEJqFWIeP78uSgdlilTJjp37hyu1hjxzWkAn9evXy9ECN6jzXlQWITIkiWLATyHiyAAAkoT4MhCTkz5/ft3Wrx4MTVo0EBpEzAfCIAACOiOAIQI3S0pHFKKgFqFiJEjR5K/vz9x6U6EqCv1bsA8ShLghJR8+/LlixAgOCdEtGjRlDQBc4EACBiEAOeA6NKlC8WJE4dYAC1durRBPHfMzTdv3tDgwYN/2DlXrlzUuHFjih079g/7Otvhjz/+oGXLlonDunfvThkzZnR2CFX317t/qoYP4zxKAEKER/FicD0TUKMQwTXN06dPTx8/fqQHDx5QjBgx9LwE8M1gBDgRJQsQnBOiaNGiQoRo2LChwSjA3bp16xJ/13HZRDQQ8BQBLoE9cOBACgwMpFSpUtHWrVspd+7cnppOs+NyKV3m40jjbaOzZ892pKtTfRYuXEitW7cWx+zfv598fHycOl7tnfXun9r5wz7PEYAQ4Tm2GFnnBNQoRKxevVqEjPbr1484MgINBPRCgH9csggRFBRELD7wVgwWI9CMRyBbtmxCiLh586bxnIfHihDgaKs2bdqIq+wsPrAI4ejJtiIGqmiS0EJE6tSpw1jH5Xa/fv1KKVOmpIcPH4Z53d0n9H6irnf/3F1/HK9dAhAitLt2sNzLBNQoRPj6+tLhw4fp9u3bIk+ElxFhehCQhQDvyWYR4vLly5atGClSpJBlbAyiPQJZs2YV5Ttv3LihPeNhseoJvHr1iurUqUP79u2j8uXL05o1ayhevHiqt9tbBloLESzecCnl0C1fvnwiZ1WyZMmIRQlz4zK8nz59Eg9jxoxpftrpv3o/UXfGP7mYOr0IOAAEXCEghZ6hgQAIuEBA2o9okj5zJiljvwtHy3+IlJhS2FO7dm35B8eIIOAFAtLeY9PQoUNNCRIkMEmJKE3Tp0/3ghWYUm0EpES84v2gNrtgj/YJSCK+KXv27OJ/aatWrUxSZIT2nfKwB1KEg+DFv4ckIcLmbHnz5hV9JCEixOvbt2+3HMu/qVxtCxYssIwjRc+5Ooxqj3PGP7mYqhYGDNMVAdKVN3AGBBQkoDYhws/PT/wj3r17t4IUMBUIeIbA+fPnxY9a/nErleQ0bdmyxTMTYVTNEZAS0ZmkqAjN2Q2D1U3g6NGjpqRJk5oiRIggBFDpyrK6DVaJdXIJEfPnz3fZI2dO1F2exIsHOuOftRDhDlMvuoupDUQAQoSBFhuuyktATULE69evTbFixRJXcvDjSd51xmjKE5BK5ZnKlSsnhDUpuZnp4sWLyhuBGVVLQErIK77rVGsgDNMcgVWrVpmk5M4mqfqOaqIctQJRLiGCT7Zdbc6cqLs6hzePc8Y/ayHCHabe9BdzG4cAckS4sp8Fx4CAREBNOSImT55MXMJwypQp1LVrV6wPCGiWwNSpU0U+CC4Jxwkp+X3tiXJvmgUEw0VlIN5PfunSJdAAAbcJcGLnAQMGUMKECWndunW6q7jgNqAfDOBOjoj379/TvXv3xAzSliuKGjXqD2az/bIzORRsj6DuZ53xTy6m6iYC6/RCAEKEXlYSfihOQC1ChKSbUs6cOUW5Ts5GjaRair8VMKEMBPjHLCek5Ju0n1iIEM2aNZNhZAyhNwIfPnzgaE6SosD05hr8UZAAV8aQtjTSokWLSMpBQ5s3b6bMmTMraIE+pnJHiJCLgDMn6nLNqeQ4evdPSZaYS10EIESoaz1gjYYIqEWI4MzeZcqUET+oZs2apSGCMBUE/keAK71MmjSJuPwsZ6vnSIhSpUoBDwiAAAh4hMDz58/Fd83BgwfF/0+ujMEREWjOE4AQ4TwzZ4+AEOEsMfTXCgEIEVpZKdipOgJqESIaNWpEK1eupNOnT1P+/PlVxwkGgUB4BPhzxFEQp06dsmzFSJMmTXiH4DUQAAEQcJkAb+n55ZdfRJnrtm3b0owZMyhKlCguj2f0A90RIq5cuUKDBw8WCP39/cVvGI524v8L27Zts5T2NDOWEolS4cKFicuEJkqUyPw02TtRv3//PvXq1Uv0k5Lc0qhRoyzH2Lrjyty8nWfjxo3EWyJCNy4z3aJFCypUqFCIl5w9xhn/bDHlyfmi1bRp04QdfPGKI4Lu3r1Lz549Ixbmvn37RjVq1BD/h62N/fjxI40ZM4aOHDkink6XLp2IIGJWx48fJ16TgIAARBNZQ8N9xwlIbyQ0EAABFwioIVnl06dPTdKeStPPP//sggc4BAS8R0AKrzcFBgaKLPWcfFCKiPCeMZgZBEDAEAS4+k7cuHFNkSJFMo0bN84QPnvaSXeSVR44cMBSdnP58uXCVK5eIp3FhHsbNGhQCLfsJXOUTqwt4zhSHtSVuX9ka9q0aUPYevPmTYtN9o4NfYwz/tliygZYj2FvXn7+7NmzFns5+bmPj88P7d2xY4flGNwBAWcIoGqGM7TQFwSsCKhBiJDUffEPAiWarBYGd1VP4PLly6YOHTqI927p0qVNQUFBqrcZBoIACGibwNixY4UAwUKElA9C286oyPrQQsSFCxdMfCItRbZZblLEifi+D32CbeukmQUi84ly5cqVTY0bN7bcEiRIIF6TruiHIGB9kr1//37xmhR1YBlHioAJ0d/eA1fmNttapUoVU+fOnS23EiVKWOZ/8OCBZUopJ4nleUePccY/W0x5cusxeG3y5MljkqJLTCVLlhTrZfaD7TO3Xbt2WWyNGDGiydfX19SqVStT7dq1Tblz57a8BiHCTAx/nSUAIcJZYugPAv9HwNtCBCvVUpZpk5Sc0iSFBGJdQEATBIKDg02VKlUSP2D4B4311RdNOAAjvU6AS7tKW9K8bgcM0AaBT58+mVq2bCm+czJkyIBywDIvW2ghgh/zSav5xNb678CBA0PMbuukWdoGYDn28ePHIfoXKFBAvMYnxNbN+iSbhYi///7blCpVKtE3fvz4Jmn7iHV3u/ddmdvs3/nz50OMK205tPghVQaxvGZtqyvH/Mg/W0x5cut5zWKN2ai9e/dabLUWIjhS0ezf6NGjzd3FXy55a34NQkQINHjgBAEIEU7AQlcQsCbgbSHCrFSzAo8GAlogMHPmTFO2bNmEeDZkyBDTq1evtGA2bFQZgWTJkpkKFiyoMqtgjhoJPHr0yFS0aFFxwsRX0aW98Go0U9M2hRYi2BkWCswnqZ06dTLxCb6UlNgk5SUI4autk2ZXxIDQJ9lS2WfL/M5EjLoyt9lPV0QFV45hESE8/2wxZeihGVkvhD0hwprHuXPnrA8xQYgIgQMPXCQAIcJFcDgMBLwtRPAVQf4HeObMGSwGCKiaAOcy6d+/vylGjBgmqTSn+EGkaoNhnKoJJEmSRIQUq9pIGOd1AlIiPVPKlCnF/0kW7EOfBHvdQJ0YYEuIYNHZfII+YcIEu57aOmmePn265dguXbqYvn79ajmet1hISSdN3bt3tzzHd6xPsnk+zgHC83P0nTPNlbnNfroiKrhyzI/8s8U0NCNHIyKshYjr16+HQAkhIgQOPHCRAIQIF8HhMBDwphDBV3WiRYtmkjIxYyFAQNUE+GSA9/jyjzX+Eblnzx5V2wvj1E8gceLEpiJFiqjfUFjoNQJSlQFT9OjRRTJnqay11+wwwsS2hAj+jRI5cmTxvc/bKew1WyfNUiUHE2+nMJ/gcySLVNnB3hDieWshwnxcnDhxTFLVjHCPC/2iK3Ob53NFVHDlGPN89vyzxZT9tGYEISL0yuOxtwhAiPAWecyreQLeFCLMew/5qgMaCKiVAF8xKV68uPhB2a1bN9OtW7fUairs0hABqWwfKgVpaL2UNJWvnpvD1nkLz8GDB5Wc3pBz2RIiGETVqlUtYgInKLbV7J00nzx50pLjgU+8pZKRptBbA6zHsz7JNp+oc3JSV5qzc5vnS5gwoagClTRpUvE3duzYFv/t5Yhw5RjzfPb8s8fUmhGECFfeGTjGEwQgRHiCKsY0BAFvChGc7ThmzJimN2/eGII1nNQWAT4Z4B9JHBadOnVqUSZPqlGuLSdgrWoJcOb8YsWKqdY+GOYdAn/99ZeJr57ziRpHCzp7Ndw7Vmt/VntCxOLFiy0n4v7+/jYdtXfSzJ05USV/zs0n3rFixTKtXr3a5jjWJ9nm/n5+fjb7OvKkM3Ob57P3lyO4rPMh2bI19LGOHGPPP3tMreeFEOHIuwB9lCAAIUIJyphDlwS8JUScOHFC/GNu0aKFLrnCKW0TuHHjhon39fIPKy4LtmbNGm07BOtVR4DDtjnSBg0EzAT4KjaXJOTvHf7f+PHjR/NL+OthAvaECK5cwXmBeE04ooErfYVu9k6azf244glXV7I+UQ9deYP7Wp9k85Yc7s95IriUqKvN0bnNtnGkKm89DH27c+dOCBOsbXXlmB/5Z4+p9bwQIkIsCR54kQCECC/Cx9TaJuAtIYIzUPM/vn379mkbIKzXHQGu5FK9enXx/mzatKmJRTM0EJCbAJ9k8kkCGggwAT7B4pOzKFGimLjcIJqyBOwJEWxFvXr1LCKCrW0y9k6aQ3tgnaCRf//wCbx1sz7J5tciRIgg5nU2WaX1mOb7P5rbLESEzvdgPj70X2tbXTnmR/7ZY2o9L4SI0KuCx94iACHCW+Qxr+YJeEOI4B/gHJbMWaNtXV3QPFQ4oFkC8+bNM+XOndvE4bMDBgwwcZg0GgiAAAh4isDnz59NXA2DTwQ5H0TokytPzYtxQxIIT4hYu3atRYjo0KFDyAOlR7ZOmocPHy4SXXKyS94iYW7bt283mfMu8BYc6xb6JJuFcLNAEBwcbN013PuuzG2eJ7SowKVjDx06ZOKEzda/16xtdeUYfp+H558tpuy09byhPyuOlO9E1Yxw3zp40UUCECJcBIfDQMAbQsSKFSvEP9dhw4ZhAUBAFQRevHhhGjRokIkzeOfIkcM0e/ZsVdgFI0AABPRLgE9+zfkDihYtauLHaN4hEJ4QwRdP4saNK3638EUUFo+sm62T5qFDh1pEBGshgo/jChx84v/zzz9bDxPmJJu3Q0SNGlX0zZkzp8nRHEWuzG1PiODIBfNr9pJVhhYiHDmGRYTw/LPFlGG5K0RcvXo1BHOU7wyBAw9cJAAhwkVwOAwEvCFEVKlSxRQxYkQTl5hCAwFvEzh9+rTYj80/tvi9yVes0EAABEDAkwT46i1HQPD3TseOHcOc3HpybowdlkB4QgT3btmypeWEfP369SEGsHXS7IoYYOsk+z//+Y9l3hkzZoSY194DV+Y2iw2uiAquHGOOZrDnny2m7K8tRmYO9iIiJk6caGHIUY/WDUKENQ3cd5UAhAhXyeE4wxNQWojgMD9OvlS2bFnDswcA7xPgH5S+vr6Wk4HQV0u8byEsAAEQ0BMBDm8fPXq0CNvnJIh8YoXmfQI/EiK2bdtmOZmtW7duCINtnTRbiwF88svbO8y3DBkyiLF+FBHBkzx79swSjcElNR2pMubK3GYhYu7cuSY+oTffzEmb+XV7ERGuHGMWIuz5Z4sp83BFiLBeuxQpUohtl/zbl29cktvs+44dO3gKNBBwmgCECKeR4QAQ+B8BpYUILofIX/oLFy7EEoCAVwnwVZK0adOakidPbho1ahQSB3p1NYw3ef78+U1t27Y1nuMG9vj169emWrVqif+BfDJ65swZA9NQl+s/EiK4nHOSJEnE2kWLFs3Ea2lutk6alyxZYjnBNZ/ohv7bqFEj8xDir72T7BEjRljG6tu3b4hjbD1wZe7QtoV+zHmTrKu4sJAQuk/ox6GPccY/W0zZV3tj8GssnphtWLRoET8lGm9pKVy4sOU1c5/QfyFEmInhr7MEIEQ4Swz9QeD/CCgtROTJk0ckAnz79i3WAAS8QoC3BJnDQfmK1PLly71iByY1NgHe+12+fHljQzCQ92fPnjVlypRJnAzVqFHD9PLlSwN5r35Xnz9/LraM8slp165dbRpsrvbFfTZu3Gjpw2VXzSe1l8LePQAAQABJREFU5lLPHLnA1ZfMOR7Mr5v/FixY0HT48GHLGHxn5cqVlnGsqzW9f//exFfy+ViurPLu3bsQx4V+4MrcLIrEjBnTMr/ZTv7LYv2YMWNCTPP9+3eTs8c4458tpmyAvTH4NU6oabb7v//9Lz9laby+vL3GvB3K3M/6L4QICy7ccZJABO4vvZnQQAAEnCQgfVmTlLmYJAWdmjVr5uTRznU/d+4c5cuXT8zD86GBgNIEpKssJCXSImlLBjVo0IAkQYKkZHFKm4H5QICkExQqXbo0ST9+QUPnBKTQfJJCwOnLly8kVTSgfv36kVSaUedewz0QUD+B1atXi98CbCl/F1eoUEH9RsNC1RGAEKG6JYFBWiGgpBDRu3dvGjduHEn79Uiqi60VRLBTJwQWL14sRIhLly4JAaJHjx70008/6cQ7uKE1AlGiRKFy5cqJ70Ot2Q57HSPw4cMHkvbYk7QVkaSrysT/b6WSjY4djF4gAAKyEJAiSOjIkSNirOzZs1Pq1Kkt40KIsKDAHTcIQIhwAx4ONTYBpYQIKUEXpUmThqRwPpL2YpKUsNLY4OG9YgSkbUBCgOBIiESJEgkRonPnzorNj4lAwBYB/g6sWLEiBQcH23oZz2mcgJT4lurXr08XL14kKSEuSVvASAqv17hXMB8EtEfg1KlTVKhQIWH49OnTSdpiY3ECQoQFBe64QQBChBvwcKixCSglROzZs0dc/eNQeClJoLGhw3vFCPBJAAsQHBot7ccXIkS1atUUmx8TgYA9AlIJY6pcuTJt3brVXhc8r1ECUu4lkkpyEkdESMkFadiwYRQ5cmSNegOzQUDbBKTcEVS0aFHhhJT4k1q0aGFxaPPmzWS+MIGtGRYsuOMkAQgRTgJDdxAwE1BKiGjXrp04Gfzjjz9Iyl5snh5/QcBjBPgHBosQu3fvJn7/sQiWM2dOj82HgUHAUQIcIcYRESyK8fsUTR8EpKoC1L17d5LKGVLixImJt4NVqVJFH87BCxDQKAGOikyYMCFJ1TPC9UBKKEt58+YNtw9eBAFbBCBE2KKC50DAAQJKCBGfP38WIan8w+z69esOWIUuIOAegWnTpgkR4tWrV0KAYBEiduzY7g2Ko0FARgJSOUAxGueKQNM+gStXrlDDhg3pwoULVLJkSbEVI1WqVNp3DB6AgA4IcK6W2bNn2xUjOHcLR+6igYArBCBEuEINx4CAREAJIWLDhg0k1U6nwYMH09ChQ8EdBDxG4NGjR5Z8EFKpWOKElM2bN/fYfBgYBEAABDgZpVTykTgiok+fPqIyBrZi4H0BAuoi8Ndff9GzZ8/CGBU/fnxKmTJlmOfxBAg4SgBChKOk0A8EQhFQQoho3LgxrVixgi5fvkycsRgNBDxBgLNi81YMTj5Vp04dEQlRqlQpT0yFMUEABECAOBs/7y/nctRJkyalRYsWibwfQAMCIAACIGAcAhAijLPW8FRmAp4WIjhZF/9Ay5QpE/H+OzQQ8AQBzkjPIsSJEycsWzG4SgsaCIAACHiCwJkzZ6hRo0ZiuyGHdS9duhTlgD0BGmOCAAiAgMoJQIhQ+QLBPPUS8LQQsWrVKrFvNjAwkPr3769eELBMkwQ4FHrSpElChIgRI4YQIXg7BhoIgAAIeIKAyWSiyZMni2oYnPxuyJAh5O/vj5LUnoCNMUEABEBAAwQgRGhgkWCiOgl4WoioV68erV27lm7evEkZM2ZUJwRYpUkCV69eFQLErFmzqHTp0kKEqFmzpiZ9gdHGIsACWoECBUQYP8oZa2fteX95mzZtRKWT1KlTE5fpxPYv7awfLAUBEAABTxCAEOEJqhjTEAQ8KUTw/tlkyZKJvBAnT540BE84qQyB7du3CxFi27Zt1LJlSyFC5MuXT5nJMQsIuEmAvxvjxIlD9evXJ44aQ1M/gV27donvGk6IW7t2bVGik0sCooEACIAACBibAIQIY68/vHeDgCeFiJUrV4o9tKNHjxaZxN0wE4eCgIUAl+DifBB8QsDbMLg0Z4IECSyv4w4IqJ0A17WPGzcuNWjQgPh7Ek29BL58+UKDBg2icePGUbRo0Wj8+PHUqVMn9RoMy0AABEAABBQlACFCUdyYTE8EPClE8NW+NWvW0K1btyhDhgx6wgZfvECAS2+xAMG3zJkzCwGidevWXrAEU4KAewTevHlDXDKOkx1yolU0dRK4ceMGNWnShDiiL3fu3GKtcubMqU5jYRUIgAAIgIBXCECI8Ap2TKoHAp4SIszVMrJmzUqnTp3SAyr44EUCXA2DBQh+v9aoUUOIEGXLlvWiRZgaBFwn8Pr1axHFw6WN+T2Npj4CCxYsoO7du9P79++pa9euNGbMGIoePbr6DIVFIAACIAACXiUAIcKr+DG5lgl4SojgBJWcqDIgIEBkFNcyI9juXQIcVcMixOHDh8UJAW/FQOJT764JZnePwKtXr4jzC/DVdk54iKYeArw2HTt2FLk7kiRJQvPnz6fq1aurx0BYAgIgAAIgoCoCECJUtRwwRksEPCVENG3aVFzpu3LlCmXLlk1LSGCrSghwaTwuzclVBSJEiCCiIDgnROTIkVViIcwAAdcIvHz5khIlSkTNmjWjJUuWuDYIjpKdwN69e0VCygcPHlClSpWIoyJSpEgh+zwYEARAAARAQD8EIEToZy3hicIEPCFEcHKvpEmTUsqUKenSpUsKe4Tp9ECA84pwFMTUqVOpRIkSQoTgCBs0ENALgX/++Ue4EjFiRL24pFk/Pn/+TAMHDqQJEyZQ1KhRaeTIkSIRLgugaCAAAiAAAiAQHgEIEeHRwWsgEA4BTwgRXFKxSpUq4ofd8OHDw5kdL4FAWAJ79uwRIsSmTZtE6DpvxShcuHDYjngGBEAABNwkcP78eWrevDnx3zx58tDSpUtFYko3h8XhIAACIAACBiEAIcIgCw035SfgCSGC99fOmjVLZBovWLCg/EZjRN0S4P3YHAnBEREsQPBWDI6uQQMBEAABOQl8//5dlOQcMmQIff36lXr27EkjRowQJTrlnAdjgQAIgAAI6JsAhAh9ry+88yABuYUIDjdOlSoVRYkShe7evSv29nvQfAytEwKcII4FCL7xlh4WIfz8/HTiHdwAARBQE4GbN29Sq1atRALcdOnS0cKFC8nX11dNJsIWEAABEAABjRCAEKGRhYKZ6iMgtxBx7NgxKlasmKhuMGXKFPU5DItUR+Ds2bNCgFi0aBFVrlxZiBCcKA4NBEAABOQkYDKZaPr06dS3b19RlrNt27YiL0TcuHHlnAZjgQAIgAAIGIgAhAgDLTZclZeA3EKEv7+/SPS1c+dOKl++vLzGYjTdEQgKChKVMfbt2ydK5nEkRNasWXXnJxwCAWsCT548IR8fH2rYsCEhj441Gc/dv3fvHrHwsHv3blEJY/bs2SjL6TncGBkEQAAEDEMAQoRhlhqOyk1AbiEiV65c9PDhQ3r27JnYniG3vRhPPwS4NCdvxfj48aOIgmARInr06PpxEJ6AgB0CXB4yTZo0YvsR59NB8xwBjoJg0aF379709u1baty4sajGkzBhQs9NipFBAARAAAQMQwBChGGWGo7KTUBOIeL27duUMWNGcZVvxYoVcpuK8XRC4P79+5Z8EFwNgwUIPjlAAwGjEODPQNq0aalDhw40c+ZMo7ituJ+cp6hdu3YiCiJZsmRiW0adOnUUtwMTggAIgAAI6JcAhAj9ri088zABOYWIyZMniyoHXP6sadOmHrYcw2uRwIEDB8RWjHXr1lGDBg2ECME5RdBAwEgEeJsAJ0nkCkMzZswwkuuK+MpJk5lrv3796N27d0Lo5P9PiRMnVmR+TAICIAACIGAcAhAijLPW8FRmAnIKEZxgkPffPn36lBIlSiSzpRhO6wSWLFkiIiEuXLggBAguzckVMtBAwGgE7ty5QxkyZKBOnTqJq/RG89+T/l6/fl1EQRw8eFDkguDklLVq1fLklBgbBEAABEDAwAQgRBh48eG6ewTkEiL4qhNfbeJQe/4BiAYCZgL83jCX5kyQIIEQIbp06WJ+GX9BwHAEzNvY+HMwdepUw/nvCYe/fftG48ePp6FDh4q8My1btqSJEycSf+eggQAIgAAIgICnCECI8BRZjKt7AnIJEVz9oHbt2hQYGEj9+/fXPTc46BiBixcviq0Yc+fOFVVUOB9EtWrVHDsYvUBApwRu3bpFWbJkIRYieMsAmnsETp8+LaIgzpw5I3JvcAJQlAB2jymOBgEQAAEQcIwAhAjHOKEXCIQhIJcQwUnXODP52bNnKW/evGHmwRPGI7BlyxYRCbFr1y5RNo9FCK6qggYCIAACchD48OEDDRkyRHzPcF6Irl27UkBAAMWOHVuO4TEGCIAACIAACPyQAISIHyJCBxCwTUAuIYJL0fEPQS5LFyFCBNuT4VnDEOB92bwd48WLF2IrBosQceLEMYz/cBQEQMCzBLZv306dO3cm3ubCAuecOXOoaNGinp0Uo4MACIAACIBAKAIQIkIBwUMQcJSAHEIEh9/nzp1bXPXmEHw04xJ49OiR2IrBIgSfHLAA0bx5c+MCgecgAAKyEuBkyD179iT+3xU9enQaOHAg9e7dm6JGjSrrPBgMBEAABEAABBwhACHCEUroAwI2CMghRHCCsN9++41Wr15N9erVszELnjICgaNHj4ooiFWrVol8ISxC+Pj4GMF1+AgCIOBhAhxxN2/ePOrbty+9evWKypQpQzNnzhS5Njw8NYYHARAAARAAAbsEIETYRYMXQCB8AnIIERUqVKB9+/bRs2fPKH78+OFPiFd1SWDFihVChDh+/LhlK0batGl16SucAgEQUJYAl/zlUqeHDx8W1ZnGjRtHLVq0wDZAZZcBs4EACIAACNggACHCBhQ8BQKOEHBXiOBkYYkSJaKCBQvSoUOHHJkSfXRE4NOnT5atGBwmzVEQPXr00JGHcAUE5Cdw/fp1qlKlCvn5+Ykr/PLPoI8RufQvl+OcNGkScXnO1q1b05gxY8T/HH14CC9AAARAAAS0TgBChNZXEPZ7jYC7QsS2bdvED2r+sTh48GCv+YGJlSdw7do1EQXB4dG+vr5ChKhVq5byhmBGENAYAb7CnydPHurTpw+NHj1aY9YrY+66devEdwonQM6ZMyfNmDGDSpUqpczkmAUEQAAEQAAEHCQAIcJBUOgGAqEJuCtE9OrViyZMmEBHjhyhYsWKhR4ej3VKYMeOHUKECA4OFiHSHAmRP39+nXoLt0BAXgLnz58XZY4538GoUaPkHVzjo928eZO6d+9O/N0SK1YsIXD/+uuvFCVKFI17BvNBAARAAAT0SABChB5XFT4pQsBdISJv3rx07949ev78OUWOHFkRmzGJdwnMnj1bhEo/fPjQshUjYcKE3jUKs4OAhgicPXtWCHf9+vWjkSNHashyz5n68eNHwWLs2LHEW77q1KlDEydOJC4NjQYCIAACIAACaiUAIUKtKwO7VE/AHSGCy6ilSJGCatasSevXr1e9rzDQPQKcjJTLcvItY8aMQoRo06aNe4PiaBAwIIEzZ85QgQIFyN/fnwICAgxIIKTLQUFBxFEPd+/epUyZMtHkyZPFlr+QvfAIBEAABEAABNRHAEKE+tYEFmmEgDtCxPLly6lJkyY0ZcoU6tq1q0Y8hpmuEDh58qQQIJYtW0bVq1cXIkS5cuVcGQrHgIDhCZw6dYoKFSpEAwYMoBEjRhiWByft5OS2nGsoZsyY1L9/f+rduzdFixbNsEzgOAiAAAiAgLYIQIjQ1nrBWhURcEeIaNeunajrfvnyZcqePbuKvIIpchJYu3atECG4KgoLTpwPgiMi0EAABFwjwEJE8eLFxYn377//7togGj7q7du3QoDh6KovX76IbRicawglfzW8qDAdBEAABAxKAEKEQRcebrtPwB0hgk9GeS/vn3/+6b4hGEF1BL5//27ZimEymYQAwSIEcoGobqlgEAhoggB/jyxdupQ4N8ajR4+EgM2lOStUqKAJ+2EkCIAACIAACIQmACEiNBE8BgEHCbgqRPBe3vTp04utGRyuj6YvArdv3xYiBG+74Su3LEDUr19fX07CGxAAAcUInDhxQlTDOHbsGMWLF09Uw+jWrRuqYSi2ApgIBEAABEDAEwQgRHiCKsY0BAFXhYiFCxdS69atac6cOcRbNND0Q2Dv3r1ChNi4caMQmliEKFy4sH4chCcgAAKKEXj8+LHYgrJkyRIxZ6tWrSgwMJCSJUummA2YCARAAARAAAQ8RQBChKfIYlzdE3BViOAfk4sWLaIbN26ILOe6B2UQBxcsWCBECF5XFiD4ljRpUoN4DzdBAATkIsDb9jjvA5cnfffuHZUoUUJ8t3CSTjQQAAEQAAEQ0AsBCBF6WUn4oTgBV4UI3pbx7ds3evDggeI2Y0L5Cbx+/VqcJHDyOC7JygJEhw4d5J8II4IACOiaAOeBWL16NfXt21eU40yTJg2NGjWKGjVqRBEiRNC173AOBEAABEDAeAQgRBhvzeGxTARcESLu3btH6dKlo6ZNm4rEYzKZgmG8RODcuXNChODtNpUrVxbl9PgvGgiAgGcIcL6EevXqUZ8+fahLly6emcQLo/7xxx/Us2dPOnz4MMWKFUv499tvv4nSnF4wB1OCAAiAAAiAgMcJQIjwOGJMoFcCrggRvNe3RYsWNGvWLPLz89MrGkP4tWHDBiFC7Nu3T0RAcCREtmzZDOE7nAQBbxE4ePAg+fj4iFwJ/fv395YZss17//598vf3J/5/wlEPzZs3p4CAAEqZMqVsc2AgEAABEAABEFAjAQgRalwV2KQJAq4IESw+cJLKy5cvi/JrmnAURoYhMHnyZCFCvH//3pIPIkaMGGH64QkQAAF5Cezfv59Kly4ttizwFgattr///lv4wFu6Pn78SL6+vjR+/HgqWLCgVl2C3SAAAiAAAiDgFAEIEU7hQmcQ+JeAK0JEjhw56Pnz5/T06VPs+f0XpWbu8dXLSZMmCRGCE8dxFETjxo01Yz8MBQGtE+AIpDJlytDo0aPF9gWt+cP5gWbPnk1Dhw6lv/76izJnzix8qV27ttZcgb0gAAIgAAIg4BYBCBFu4cPBRibgrBDBAgRXUahVqxatW7fOyOg06TuHhPPVS167+vXrCxGiePHimvQFRoOAVgns2bOHypUrR2PHjiXOoaClFhQURP369aNr165RokSJaPDgwdSpUyeKEiWKltyArSAAAiAAAiAgCwEIEbJgxCBGJOCsEME5BViEGDduHPXq1cuIyDTr89KlS4UIwckpOQqCb9jDrdnlhOEaJrB7924qX768pr5Hjx07Rr1796ZDhw5R9OjRqXv37sT5LeLHj6/hlYDpIAACIAACIOAeAQgR7vHD0QYm4KwQwfuZx4wZQ0ePHqWiRYsamJx2XH/37p1lKwafNLAAoadM/dpZCVgKAv8jwBER1atXp5EjR4oqNWrmcv36dZGIkqOoOBFlkyZNaMSIEZQ2bVo1mw3bQAAEQAAEQEARAhAiFMGMSfRIwFkhomTJknT69Gl6/fo1RY0aVY9IdOXTpUuXRBTE3LlzRSg4ixB8AoQGAiAAAuERePLkicgBMW/ePPr69StVqFBB5IHInz9/eIfhNRAAARAAARAwFAEIEYZabjgrJwFnhIjPnz+LMNzChQvTgQMH5DQDY3mAwNatW4UIsXPnTmrTpo2IhMidO7cHZsKQIAACeiHw5s0bsWVk4sSJxBV1WHjgpJosRKCBAAiAAAiAAAiEJAAhIiQPPAIBhwk4I0TwHuFixYqJLO/8wxRNvQRmzJghRAhOLtqjRw8hQsSNG1e9BsMyEAABrxL49OkTTZ8+XWwX4e+NDBky0PDhw6lRo0YUMWJEr9qGyUEABEAABEBArQQgRKh1ZWCX6gk4I0TwFbKePXvS+vXrRcJK1TtnQAMfP34sBAiujJEzZ04hQLRo0cKAJOAyCICAIwS4FOfixYvp999/pwcPHlCyZMlo4MCB5Ofnh+13jgBEHxAAARAAAUMTgBBh6OWH8+4QcEaIaNiwIa1atYr4ZDd58uTuTItjPUCAI1ZYgFi5cqUQijgfhK+vrwdmwpAgAAJaJ2AymWjNmjWi/ObVq1eJI6a4lOivv/5KsWPH1rp7sB8EQAAEQAAEFCEAIUIRzJhEjwScESLSpUsnsqbfuXNHjyg07ROLDyxCsBjBAgRvx+D1QgMBEFAfAc7b0rp1a7ENonnz5oobuG3bNhowYIBIPMylOLmKTr9+/Shx4sSK24IJQQAEQAAEQEDLBCBEaHn1YLtXCTgqRHAG9RQpUhBHRaxYscKrNmPyfwlwAlEWIPgWLVo0iwjBZfbQQAAE1Elg48aNVLNmTeJcLh07dlTMSE4yzNsuDh48SFGiRBFiyKBBgyhVqlSK2YCJQAAEQAAEQEBPBCBE6Gk14YuiBBwVIjZs2CDC/SdMmCBCdxU1EpPZJHD9+nUhQPDJjI+PjxAhateubbMvngQBEFAPgaCgIOLP6qxZs0QuBk9b9scffxALDjt27BCJJzkB5dChQylTpkyenhrjgwAIgAAIgICuCUCI0PXywjlPEnBUiOAw3sDAQDp06BCVKFHCkyZhbAcIcGg3R0FwiU5ORslbMQoUKODAkegCAiDgbQKc8LdOnTo0e/Zsat++vcfMOXv2LA0ZMoQ2bdok5qhVqxYNGzaMcuXK5bE5MTAIgAAIgAAIGIkAhAgjrTZ8lZWAo0JExYoVae/evcQ15mPGjCmrDRjMOQJz5swRIgRnuOd8EHxLmDChc4OgNwiAgNcIrFu3jurWrUv8WW7Xrp3sdly6dElUwVi7di1xUsoqVaoIAaJQoUKyz4UBQQAEQAAEQMDIBCBEGHn14btbBBwRIviHbKJEiShNmjTEV9jQvEPg+fPnQoDgSIj06dMLAaJt27beMQazggAIuEyAq1XUr1+f5s2bR23atHF5nNAHcvULjnjg5LX//PMPlS1bVjxGFFtoUngMAiAAAiAAAvIQgBAhD0eMYkACjggRN2/epMyZM4srd3wFD015AqdOnRIixNKlS6l69epiK0b58uWVNwQzggAIuE2At2bwlqrp06eTHFUzOF/M8OHDafny5fT9+3cqVaqUECBKly7ttq0YAARAAARAAARAwD4BCBH22eAVEAiXgCNCBF9d4+RmM2fOpA4dOoQ7Hl6UnwCHV3MUBOfn4DJ7vBUDSebk54wRQUBrBG7cuCEECP4eZwGiePHiIgklREqtrSTsBQEQAAEQ0CoBCBFaXTnY7XUCjggRffr0obFjx9KJEycIe4yVWzIOrWYBgm98kmHOB8Fl99BAAASMS4AjIEaMGEFmAaJo0aIiJ0SlSpWMCwWegwAIgAAIgIAXCECI8AJ0TKkPAo4IEeXKlRN159++fUvRokXTh+Mq9+LOnTtCgJg8ebK4yskiBO8pRwMBEDAuAc4BERAQYNmCwQIEV8WoXLmycaHAcxAAARAAARDwIgEIEV6Ej6m1TeBHQoQ5UWXatGnpzJkz2nZWI9ZzdRKOgti4cSM1btxYREIUKVJEI9bDTBAAAbkJcBUMFiBWrVoloqOKFSsmBAhEQMhNGuOBAAiAAAiAgHMEIEQ4xwu9QcBC4EdCBF+Zz5Ahg8jszhne0TxLYOHChUKEuHbtmmUrRrJkyTw7KUYHARBQJYFz586JLRhc7pO3apUsWZIGDx5MFSpUUKW9MAoEQAAEQAAEjEYAQoTRVhz+OkygY8eOxFUvbLUtW7YQJ0Js2rQpLVmyhJo1a0bt27cnFh/M7dmzZ3T+/HnKmjUrXbhwgULnJ+Dykffu3TN3D/F3x44dFDFixBDPtW7dmh48eBDiOfODXbt2me9a/nJm+UePHlkem+9EihSJtm/fbn5o+cs+PHnyxPLYfIftDg4ONj+0/OWIA/YxdOMtKMwndGvYsCG9ePEi9NMUM2ZMEcEQ+gXeTvHq1avQT1Ps2LEpKCjI8vybN2+EAMFXPaNGjUqpU6emlClTWl6PGzcu8clI6FarVi169+5d6KcpQYIEtHr16jDP//LLL/Thw4cwz3N5Vk5KGrpVq1aNPn/+HPppSpIkiQgPD/1ClSpV6OvXr6GfpuTJkxNX/Ajd+Iou578I3X766SdavHhx6KfJXhK+VKlSEYs41o1P3CpWrGj9lOU+R/iEFtbYbrbfVuNyqaErxjAX5mOrZcyYkWbNmhXipY8fP1KNGjVCPGd+kCVLFlFBwfyY//K68vraatmyZaOpU6eGeOnvv/+mOnXqhHjO/CBHjhzE23ys2+vXr6levXrWT1nu586dmyZOnGh5zHf4fc/vf1stb968NH78+BAv8eeKP1+2Wv78+UXeGevXnj59Kr6LrJ8z3+fcNKNGjTI/FH/5e4G/H2w1jiAKDAwM8dLDhw+pVatWIZ4zP+AtDpxzwbrdv3/fbmlNLoc5dOhQ6+7ie5O/P201rmLBWyjMjT+bnHg2RYoUxN+JvPXKuh0/flzYv2nTJuKoNK5+MWjQIFGO07of7oMACIAACIAACHiZgPSPGg0EQMAGgcKFC5ukE1ubN+mE1LRs2TKT9PE1SUKEOLpAgQIh+kon/OJ16UTeJJ14hZlBOgEJ0d96rm/fvoXpnytXLrv9w3SWnpBOuGz2jxEjhq3uJqnMqM3+0om/zf5StIfN/vHixbPZXzqBtdk/YcKENvtLJ8g2+0sn8pb+Z8+eNUknSIKzJICYIkeOHOYY6YTF0t/6TtKkScP05TXgeW01SXCw2Z/9stXix49vsz9zs9WYs/V7wHyf18VW43U097H+y+tuq1n3sb6fM2fOMN35/Wfdx/p+njx5wvTn97d1H+v70olzmP78+bHuY32fP3ehm5RjxW5/6UQ4dHeTJBTY7S+dCIfp//z5c7v9fXx8wvSXTvzt9i9TpkyY/tKJv93+kkAUpr8kONrtLwlQYfrfvXvXbv+qVauG6X/r1i27/SXBLUx/KcGj3f61a9cO0//KlSt2+0sCTpj+Fy9etNtfEnBC9JdEM/F55+/XOHHimGbPni1el8RYk5STR7zG38uSkGY6cOBAiGPxAARAAARAAARAQD0EEBHhZSEI02uXwI+2ZtSsWZP4qhxfPeWr8mjyEuA8EJwPgvNC+Pn5iSuj2bNnl3cSjAYCIKAqAhy9w5EQHOUwfPhwatmyJUnCB/3xxx8iioy/d/39/VGlSFWrBmNAAARAAARAICwBCBFhmeAZEHCIwI+EiHTp0pF0hd7u9g6HJkEnmwSmTJkiRAgOwe/Ro4cQIXiLBxoIgIC+CcyfP594Wxtv1WGhlxtvH+OtLH379iXeSoMGAiAAAiAAAiCgfgIQItS/RrBQpQTCEyI4CkLackBS2LLIJaFSFzRnFufI4CgIvhUsWFAIEE2aNNGcHzAYBEDAeQKcD6Zdu3a0Zs0ay8GchJJzqHDuEjQQAAEQAAEQAAHtEIAQoZ21gqUqIxCeEHHw4EGS9pbT77//HiLRmspc0JQ5hw4dEgIEJwnlRIGcpI4T36GBAAjomwAny5w0aRJJ+SCIE4ty4ySU+/bto3HjxlGvXr30DQDegQAIgAAIgIAOCUCI0OGiwiVlCIQnREybNo26du0qoiHsZeNXxkp9zCIlBhUihJScUggQvB2Dqz2ggQAI6JcAf965oghXpeHKLFwOmcXHDRs2UP/+/UU1EK7Ywd+1aCAAAiAAAiAAAtoiACFCW+sFa1VEIDwholOnTjRz5kySss2TVPVARVZry5T3798LAYKvhnLCT46CwEmHttYQ1oKAMwSkXN6iXPCECRNo9+7d4lAuKfrbb7+JEqtcfhgNBEAABEAABEBA+wQgRGh/DeGBlwiEJ0SUKlWKTp8+LcKI8cPZtQW6fPmyECHmzJlDZcuWFSIEJ6hDAwEQ0B+Bjx8/0uLFi8UWDK6CETFiRJGQkrdd8PcpGgiAAAiAAAiAgL4IQIjQ13rCGwUJhCdEJEiQgDJmzEgnT55U0CL9TBUcHCxEiB07dohSfRwJkSdPHv04CE9AAAQEgT///JOmT58u8j88f/6cYsWKRa1atRLVcBBNhjcJCIAACIAACOiXAIQI/a4tPPMwAXtCBP+w5vwFLVq0oEWLFnnYCv0NP2PGDHFV9K+//hJRECxC8LYMNBAAAf0Q+OOPP8TnfPXq1SL/A39n8rar9u3bi4pD+vEUnoAACIAACIAACNgiACHCFhU8BwIOELAnROzcuZMqVqxIo0ePpj59+jgwErowgSdPnogoCC7NmT17diFCtGzZEnBAAAR0QoATTrLwMGXKFDp27Jjw6ueffxaf9bp161KUKFF04incAAEQAAEQAAEQ+BEBCBE/IoTXQcAOAXtCBCdW5Kv4mzZtourVq9s5Gk9bEzh+/LgQIVasWEE1a9YU/Lg8HxoIgID2CbDIyKU3OYHv48ePheDAJXi5+g0LEc40zhkzYMAA8vf3p4CAABo6dCh17tzZmSHQFwRAAARAAARAQAUEIESoYBFggjYJ2BMiOnToIH5037x5U+SJ0KZ3ylnNpflYvDl69Kg4MWERJ126dMoZgJlAAAQ8QoA/01OnTqU1a9bQly9fKFmyZOTn50cdO3akn376yaU5zULvqFGjqF+/fjRu3DjihJZoIAACIAACIAAC2iIAIUJb6wVrVUTAnhDh6+tLvP/53bt3hIoZ9heMT0x4GwbfOCSbBQi+RYgQwf5BeAUEQEDVBLj6xfLly2natGmichAby+U3Of9DgwYNKFq0aG7ZP3HiROrZsydBiHALIw4GARAAARAAAa8TgBDh9SWAAVolYE+I4Kt+yZMnp3PnzmnVNY/bfePGDSFAcLZ8Hx8fEQlRp04dj8+LCUAABDxDgD/TvPVi4cKF9PLlS4oePboQHrp06SKECLlmnTBhgoiAGDNmjMjBg4gIuchiHBAAARAAARBQlgCECGV5YzYdEbAlRPAP8ESJEokf4LzlAC0sAU7myeHVW7ZsoebNm4soiAIFCoTtiGdAAARUTeDbt2+0efNm4ko3/7+9c4Gbqdr//zdCckkuRZFS0o3STZHrkVySJJXcdb9xOvTvRinxUzp1CnV0ikNJJSQiKkWELrqRTqKolBCRWy7zX9/1O3v/9szsmWdmnpnn2TPPe71e29577bXWXuu9nucx6zPf9f3q73UoFLLbqnR72jXXXCNVqlRJe/9VeLjjjjtkxIgR9owQkXbENAgBCEAAAhAoEAIIEQWCmZfkIgE/IUL3RDds2FAGDRokDz74YC4OO19jevbZZ60lxNq1a92tGCrckCAAgewhoCGK9XdZjx9//FGKFSsmF110kXUa2aZNm4xuSVMBQqMRqQAxYMAAfERkz48NPYUABCAAAQiEEUCICMPBDQQSJ+AnRIwfP1569eolL7zwgnTt2jXxxnK85ObNm11/EDVr1rQixLXXXpvjo2Z4EMgdAgcOHJC5c+fKmDFjrBWEWkOoxUOfPn2sA8patWoVyGCffPJJGylDhd777rvPCr66/YMEAQhAAAIQgEB2EUCIyK75orcBIuAnRGhYuWHDhomGo1QHbSSRTz75xG7FeP7556Vdu3ZWhGjZsiVoIACBLCCg4TbHjRtnrR++++4760y2cePGNvKF+nXJr/PJLEBAFyEAAQhAAAIQyAABhIgMQKXJokHAT4hQr/CTJ0+WLVu2SIUKFYoGiDijnDp1qrWEeP/9963ZtkbFqF27dpwaPIIABAqbgGP98Mwzz1jrh71790rFihWtTxcNv3nKKacUdhd5PwQgAAEIQAACWU4AISLLJ5DuFx4BPyGifv36ovunf/3118LrWADerE7rnNCcasLdr18/awlRsmTJAPSOLkAAAn4EfvjhB2v9MHbsWFE/LpouuOACu/Xi8ssvl9KlS/tVIw8CEIAABCAAAQgkTQAhImlkVIDA/xKIFCJ08V2+fHmpW7eufPDBB0UWk5pva1QMPc4//3wrQKilCAkCEAgeAbV2mDFjhjz33HMyZ84c2b9/v1SuXNlaP1x33XVy8sknB6/T9AgCEIAABCAAgawngBCR9VPIAAqLQKQQ8csvv0i1atXsB/gJEyYUVrcK9b3vvfeetYSYPn26XHXVVVaEaNCgQaH2iZdDAALRBL7++msrPqjvlg0bNljfDy1atBB1ItuxY0d8P0QjIwcCEIAABCAAgTQSQIhII0yaKloEIoWIRYsWWTPmwYMHy/3331+0YJjRasQQ3Y6hCxxnK0bVqlWLHAcGDIGgEti+fbu88sorolsvHKut6tWrS8+ePW30i4KKfJEfPo888og8/PDDMnz4cLnzzjtlyJAhQtSM/BClLgQgAAEIQKBwCCBEFA533poDBCKFCP1msUePHqLWEN27d8+BESY2hN9//91uw1AR4ogjjrBWEDfeeGNilSkFAQhklIBuGZs/f778+9//lldffVV27Ngh6qvl4osvlmuuuUYuuugiKV68eEb7kM7GVeh94IEHZNSoUXLrrbfKo48+Kv3790/nK2gLAhCAAAQgAIECIIAQUQCQeUVuEogUIvTDsX5IXrhwoTRq1Cg3Bx0xqi+++MJaQWh4v1atWlkRok2bNhGluIUABAqawOrVq60oqgKp+m3RpP5revfuLd26dZMqVaoUdJfS8j61NnvwwQdl9OjR1hICISItWGkEAhCAAAQgUOAEECIKHDkvzBUCkUJEr1697PaE9evXW18RuTLOWONQB3dqBTFv3jxRp3YampOwfrFokQ+BzBPYunWrDR+sVlm6VUytISpVqiRdunQR/ft01llnZb4TGX7DoEGD5KGHHpKnnnrKhgRGiMgwcJqHAAQgAAEIZIgAQkSGwNJs7hOIFCKaNm0qH330kTV9Puigg3IawMiRI+12jG3btlkBQkWIQw89NKfHzOAgEEQCGvVi9uzZ8sILL9joF7t375YSJUpI27Zt7VYx3YKRS2FzBw4cKEOHDpWnn35abrrpJrZmBPGHkj5BAAIQgAAEEiCAEJEAJIpAwI9ApBBRs2ZNuxhfuXKlX/GcyPvxxx+tFYRaQtSvX9+KEF27ds2JsTEICGQLAbV0UGeTEydOtBYQmzZtsl0/99xzrX+aK6+8Mmu3XuQ1B/fee68MGzZM/vnPf4r6osEiIi9iPIcABCAAAQgEkwBCRDDnhV5lAQGvEKEf/EuXLi0tW7aUN998Mwt6n3wX1dRbBQh1eNepUycrQlxwwQXJN0QNCEAgJQIrVqwQ/bszadIk1+/DcccdJyoGqt+HOnXqpNRuNlVSa4gnnnjCChADBgywjivVMoIEAQhAAAIQgEB2EUCIyK75orcBIuAVInRBrguC66+/XsaMGROgXqanKzpWFSGWLVtmBQgNz1mjRo30NE4rEIBATALqaPLll1+24oM6h9VUuXJlueKKK+Tqq6+Whg0bSq5vBYsJhwcQgAAEIAABCGQtAYSIrJ06Ol7YBLxChC7KmzVrZvcu33PPPYXdtbS9f+fOne5WjHLlylkR4rbbbktb+zQEAQhEE1CHt5MnT5aXXnpJli5dap1Oli1bVjp06GDFhwsvvND6gYiuSQ4EIAABCEAAAhDIDgIIEdkxT/QygAS8QoTu2e7Ro4doqDw1kc6FpL4u1ArimWeekebNm1sR4pJLLsmFoTEGCASOwK+//mq3Pb3yyivy/vvvy4EDB6RUqVKi4XA16oU6ncQhbOCmjQ5BAAIQgAAEIJAiAYSIFMFRDQJeIWLdunWiTtTee+890egZ2Z7Uz8Xjjz8uc+fOld69e1sRol69etk+LPoPgUAR2Lhxo0ydOlVUfJg/f77s37/fWjqorxn1O3PppZfKYYcdFqg+0xkIQAACEIAABCCQDgIIEemgSBtFkoBXiFBHjurFffXq1VKrVq2s5qHjUEuIDRs2WAFCQ3OyGMrqKaXzASKgv1fTpk2z1g8qPuzbt08OPvhga3Wkfh86duwolSpVClCP6QoEIAABCEAAAhBIPwGEiPQzpcUiQsArRKgzuTfeeEN27dplzamzEYEukFSA0EO976sA0atXr2wcCn2GQKAIqM8HtXyYMmWK3Xahlg8qPqhfmc6dO1vxoUqVKoHqc1A7c9ddd1nR96mnnhKNlqFRNG699dagdpd+QQACEIAABCAQgwBCRAwwZEMgLwJeIeKxxx6Tn376yVoR5FUviM/VIZ6GxNOwgOoQT0UIXSSRIACB1AhotAsVH/RYsmSJ9flQokQJadGihVx++eV224VGvyAlR0Aj9jz55JMyfvx46dmzpw3j2b9//+QaoTQEIAABCEAAAoVOACGi0KeADmQrAa8QoR+Ejz76aBveMtvGo/vT1Qpi8eLF0rdvXytCaChSEgQgkByB5cuX220XuvXi008/tZXV4aRGuejUqZOos9eKFSsm1yilwwjo36iRI0ciRIRR4QYCEIAABCCQfQQQIrJvzuhxQAg4QsS4ceOkT58+0rZtW5k5c2ZAepd3N/bu3etuxVAzcf2mUS0hihUrlndlSkAAAtbKQa2JXnvtNStArFq1ylLRUJsa7eKyyy6zfxfKly8PrTQR0PDBo0aNshGKunfvjkVEmrjSDAQgAAEIQKCgCSBEFDRx3pczBBwhQq0JdAF/3XXX2VCX2TBAXTDpVozRo0dL48aNbf910USCAATiE9izZ4/MmzfPig8zZsyQn3/+2VZQB5Pt27e3/h7UAqJ06dLxG+JpSgRuueUWUf8QL7zwgg2V/OijjwpbM1JCSSUIQAACEIBAoRJAiChU/Lw8mwk4QsT9998vDzzwgOh58ODBgR/S22+/bS0h1Llmt27drAhx1llnBb7fdBAChUXgt99+k1mzZsn06dNlzpw5sn37dtuVmjVrWp8qGmZTBT21LCJllsDNN98sTz/9NEJEZjHTOgQgAAEIQCDjBBAiMo6YF+QqAUeIUGsItYrQD8c33nhjoIf73HPP2b6qIz3ttx44zAv0lNG5QiLw7bffilo8vP7667Jw4UIbZlO7cvrpp1tHk+rU9YwzzpCDDjqokHpYNF+rUTPUUaVac6l1hArAQf+7WzRnilFDAAIQgAAE4hNAiIjPh6cQiEnAESJ69+4t6idC94nr4iSISb/RVbFEj2OOOcYKENdee20Qu0qfIFAoBDSkpjpsVfFBj5UrV9p+aKSLpk2bWkeTuvXi2GOPLZT+8VIIQAACEIAABCCQSwQQInJpNhlLgRJwhIiOHTtaR3W6iDnvvPMKtA+JvGzZsmVWgHj++eet4zy1gtA97CQIFHUCW7ZssVstdJvSm2++KZs2bbJIDj/8cOtsUoWH1q1bS4UKFYo6KsYPAQhAAAIQgAAE0koAISKtOGmsKBFwhIgWLVpY53Vr1qyRoIW91DCCagWxYMECuemmm6wlxIknnliUpomxQsAlEAqF5IsvvrD+HmbPnm0tIPbt22ef6+/FxRdfbB1ONmrUSNQSggQBCEAAAhCAAAQgkBkCCBGZ4UqrRYCAI0ScffbZ8vHHH8uOHTvk0EMPDczIna0Yf/75pxUgNDxnqVKlAtM/OgKBgiCgVg/qoFUtHtTR5E8//WRfq78LTZo0sVZC7dq1k9q1axdEd3gHBCAAAQhAAAIQgIAhgBDBjwEEUiTgCBH6Ter69etdT/opNpe2at9//721gtDwnLpVRLdiXHnllWlrn4YgEGQC6uvhww8/lLlz59pDrx2rB41yoVst2rRpI3/5y1+kbNmyQR4KfYMABCAAAQhAAAI5SwAhImenloFlmoAjRFSrVk0OOeQQ0a0ZhZ3mz59vRQh1nKnig4oQQfRbUdiceH9uEdDfvbfeesse8+bNE7WC0FS6dGlr9XDRRReJHqecckpuDbwIjub666+XSZMmifq80fDDw4YNk759+xZBEgwZAhCAAAQgkN0EECKye/7ofSEScIQI/VZVFzhLly4txN6ITJgwwYoQX331lRUgVISoWrVqofaJl0MgEwTUqaQKDrrl4p133nFFQA2leeqpp0qrVq3soVsvVIwg5Q6Bnj172r91U6ZMkU6dOsmjjz4q/fv3z50BMhIIQAACEIBAESGAEFFEJpphpp+AI0To4kdNvdXzfmGkbdu2WQFCfUJUqVLFihDqmJIEgVwhsH37dnn//fet+KDCgzqcPHDggB2eWiS1bNnSRoLR7RZHHXVUrgybcfgQ6N69u7zwwgsydepUueyyyxAifBiRBQEIQAACEMgGAggR2TBL9DGQBBwhQjvXo0cPGT9+fIH388svv7QixNixY+1CTK0g2rZtW+D94IUQSCeBXbt2yaJFi+Tdd9+1hzqD3bt3r31F+fLlpVmzZtbHgwoPao2kYiCpaBDQ7RgTJ060IZM1dDIWEUVj3hklBCAAAQjkHgGEiNybU0ZUQAS8QsTtt98ujz32WAG9+X9fM3PmTCtC6DfE1113nbWEYA98gU4BL0sTARUeFi9eLO+995491MHknj17bOu6tULDaWqY3ObNm4tGqTn44IPT9GaayTYCV199tfURoX5wLr30UoSIbJtA+gsBCEAAAhD4LwGECH4UIJAiAa8QMWTIEBk4cGCKLSVfbdSoUVaE+P33311/EGXKlEm+IWpAoBAI/PHHH/LBBx/IggULRB2sfvTRR67woGE11cGqig5q+aDXhJ0thEkK6Cu7dOkiL730kkyfPl06dOiAEBHQeaJbEIAABCAAgbwIIETkRYjnEIhBwCtEjB49Wm6++eYYJdOX/dNPP7n+IE4//XQrQqipMgkCQSbw22+/ycKFC62fB/X1sGzZMnerhUacadCggRUdmjZtaoUHHEwGeTYLt2+33HKLFSHGjRsnvXv3lvvuu080kgYJAhCAAAQgAIHsIoAQkV3zRW8DRMArROi1flOXyaTfIKtDysmTJ1tv8f369ZPGjRtn8pW0DYGUCPzwww9WdFDxQY8VK1a4ziXVcuf8888XFR00qsW5555rw9+m9CIqQQACEIAABCAAAQhkJQGEiKycNjodBAJeIWL27NnSunXrjHVL36UixCeffOJuxahRo0bG3kfDEEiUgEavUKep6lzSOdauXetWr1ixolxwwQVWNFPh7Mwzz5QSJUq4z7mAAAQgAAEIQAACECh6BBAiit6cM+I0EfAKEepoT/eypzupEz8VIPTQb5I1Kkbfvn3T/Rrag0DCBDSU5tKlS62PB7XSWbJkiaivEifVrFnTCg8qPuihDlSLFSvmPOYMAQhAAAIQgAAEIAABQYjghwACKRLwChErV66Uk046KcWW/Kt9/fXXVoAYM2aMddynWzHUORsJAgVJYM2aNVZ0ULFNhQe1fti/f7/tgkavqFevno1qoZEt9KhevXpBdo93QQACEIAABCAAAQhkIQGEiCycNLocDAJeIWL9+vVSrVq1tHXszTfftCLEnDlzpFevXtYSQp1TkiCQSQI7duywESzUysE5NmzY4L6yQoUK1vKnYcOGooc6mSxbtqz7nAsIQAACEIAABCAAAQgkQgAhIhFKlIGADwGvEKHhCNMVPlMtIHQrxs8//+z6g9AFIAkC6SSwb98+Wb58uRUePvzwQ9Hjq6++Es3XdNBBB0mdOnWsY0kVHdTB5Mknn8w2i3ROAm0lTaBz587yxhtv2MgZl1xyiQwfPlzUWowEAQhAAAIQgEB2EUCIyK75orcBIuAIEbr/XRdvunDLT9Jvnp944gkrQpx44olWhFBrCBIE8ktAt1LoVh91dvrxxx/b4/PPP5edO3e6TatTSY1goVYO6u9ErzWPBIEgEVDxYcaMGaLWYhdddJE8+uij0r9//yB1kb5AAAIQgAAEIJAAAYSIBCBRBAJ+BBwh4tBDDxU1ac9P0m+j1Qpi0qRJoh+01Sll8+bN89MkdYsogT///NNaNixbtkz0+PTTT0VFB+/PqP7M1q9fX8455xz3OOGEE/ItphVR5Ay7AAm0b99eZs6cKXPnzpVWrVohRBQge14FAQhAAAIQSCcBhIh00qStIkXAESIqVaokmzZtSnnskydPtiKEOgK87bbbrAhRq1atlNujYtEhsHXrVisyfPbZZ6KHCg66vWLPnj0uBBUdzjjjDBs286yzzhI9dIuFOpokQSDbCLRr105mzZolb731llx44YUIEdk2gfQXAhCAAAQg8F8CCBH8KEAgRQKOEHHUUUfJTz/9lHQre/fudbdi6PYOtYLQvc7FixdPui0q5DYB3VqxatUq+eKLL8KOdevWSSgUcgd/+OGHW0sHtXZQ8UHPGs2FnykXERdZTqBt27aiznxViGjZsiVCRJbPJ92HAAQgAIGiSwAhoujOPSPPJwFHiFDrhdWrVyfV2rfffmutIEaPHi0XXHCBFSE6deqUVBsUzk0CKmqpE0kNk+mcNTzsrl273AGrPxL9udNIKio46FmPY445hu0VLiUucpFA69atrQihWzMQInJxhhkTBCAAAQgUFQIIEUVlphln2gk4QoSauas5fKLpnXfesSKE7nPu2rWrFSHOPvvsRKtTLkcI/PLLL/bnZsWKFeI9tmzZEjZCtXKoW7euPerVq2fPp512mpQrVy6sHDcQKAoEevToIYsWLZIJEybYv5/33nuvXHfddUVh6IwRAhCAAAQiCKhVqFoYq9P4yMMv3y9P66UjP9NtzJ49Wxo3bhxBILtvESKye/7ofSESmDhxonTr1s1+E6378xNJY8eOtSLEmjVr3K0YVapUSaQqZbKQgP4H+eOPP4paNKhY5T1v3rw5bETqy0FFLRUZvEf16tXDynEDAQhAAAIQgAAE/AgcOHAgakEea6GdzMI5VtlMth3rnZH5un01G5Juw1b/XCVKlLBnvXYOv7zIso899pi1gs2GsSbaR4SIRElRDgIRBMaNGyd9+vSxYQ6XLl0a8TT89rfffnP9QejCUv1B8C1eOKNsvtNIFbo9R4UGDZPpPbZv3x42tNKlS1u/Daeeeqqccsop4px1q4X+J0WCAAQgAAEIQCA9BPQLgchvytOxeHbacBbFzjnyXcnkJ1PWeU9kHb1XMSIbkn7miVyAR94ns1BPtaz60fJ7b6J5kYKBtx+RbfM5L/wnEyEinAd3EEiYwJgxY+TGG2+URo0aycKFC2PW0/CJGppTTYnbtGljRQgNO0fKPgK//vqr/Oc//4k61MJFPxR402GHHWYtHNTKwXscd9xxCA5eUFxDAAIQgECBEfBbmEcuZp1FtrPYdc5+5eI9i1U+mfxkysbqt+ZnQ9JFq7OIjbW4TTbfbzEdq41YZZMt79eOX562y8I8G34yM9dHhIjMsaXlHCcwcuRI6du3rzRv3lzmzZvnO9rXXnvNihDz58+3ooVaQtSpU8e3LJnBILB7925RZ6JeweGbb76x95H+G9RpZI0aNayFg0ancA6dY42mQoIABCAAgWAT8C7Mk1n0xiobazEcq7xfvl9esu3GK59tpuy6YHWOWAtav3y/vHQsqr1tOO9wzk4/vWW8ebHynfr6uYIEgaJCACGiqMw040w7Ad2r1b9/f1Hrhjlz5kS1r1YQTzzxhOjCVgUIPUqVKhVVjoyCJ7Bp0ya7lUItGbyHbq/QqBWRZo1lypSxIoMKDN6jdu3aos9IEIAABHKFgLMw91sM++XFW/DqM7/Dr51E82K9L1a+X7tOn5xn2bowdxav3oVuonmxFsTpyvfrR6y2Y5XV8oSfzpW/LIwDAtEEECKimZADgYQIPPLII3LnnXdKu3btRCNgOGnt2rXWCkKFiAYNGlgB4qqrrnIec84wAf1AuX79elm3bp3oXPidI/02aJdKlixpQ2KeeOKJogKDc+j90UcfTVjMDM8bzUMgqARw/hbUmRFr1q2LVb8FbqzFbTryC7oN7/swZQ/uzyM9gwAEkiOAEJEcL0pDwCUwdOhQGThwoHTo0EF0C4amBQsWWBFi2rRpcuWVV1/+vYYAACfgSURBVEq/fv3k/PPPd+twkT8C6hRSRQaNRKGWC3qOvP7555+j/DXoW9XcsVq1aqI+GpxDHUQ61yo28M1L/uaH2kWDgN/C3Plm2fmmOda307HyY9VXYTHWM++7nOtEy/qVi9WGlo20kgrqTCfj/M1v8R5rUZ9s2VjlvQtq5135LcvCPKg/jfQLAhCAQHwCCBHx+fAUAjEJDB48WB544AG5/PLLZfLkydYZpW7FWL58ubsVQxe+pLwJ6PaVX375RVREUKFBz97DydMtFWo27JfKli0rxxxzjPXZoGfvtfpx0IOtMX7kyMsvAe/CPNYC1y/fLy+ZhXqssrHyk3lfXm1ky8K8sJ2/xVpkJ5vvt4D3y9N2WZjn9zea+hCAAAQgUBAEECIKgjLvyEkCgwYNkoceesgKEfXq1bOWEJUqVbIixM0335yTY05mUHv27JENGzaEHSo2RObp/datW2MKDPqh+ogjjrDbI9RqwXuoQ0jnvkKFCsl0j7IZJOAszCMXvpH3uth1Dr9nfnmxyidTNtYiO1a+tu33zbz3ndm4MI+1kE0mP1Nl07FQd9rA+VsGf9lpGgIQgAAEIJAiAYSIFMFRDQJ33323DB8+XI4//njr+LBly5ZWhFCfEbmYdNGlFgkawnLjxo1R58i833//PS6GQw45RI488ki7XUItR6pWrWqvI89aRhcU2Zx0EessoL1n70I2r3y/sn55sRbTyeYn07Zf2WxamMdaTDsLWT17j1jlk8n3K+uXF6sPyeZ722Zhns1/Teg7BCAAAQhAIDcIIETkxjwyikIgoFsypkyZYt987bXXWhHi1FNPLYSeJP7KXbt2iYagVAsEPRK91nIqLMTaFuH0QLdHqHCgh1oxRF47eZUrV7bRJrwL9MjFbOR9Kgv1gl58x3tftizMvQtu77V3IZtXfqbKOu/1az/RPG0jsiwLc+c3mDMEIAABCEAAAhAoGAIIEQXDmbfkGIHRo0dbR5W6mD/zzDNl/vz5oovwVJOzIPcuvtVvglogbN68WTTKw7Zt2+x5x44d7vmPP/4Qvd+5c6d7qNjgHNqGHrpNQg99TzJJI0moXwVduOm1nvXQfdfO4d2P7JjkO6KBdzyReXmJGsn0M5NlncWvc45cxDr5fgvcZPJilU1Xfqx+++WzMM/kTxRtQwACEIAABCAAAQggRPAzAIEYBDQahkZk0AW0LuD10IW1CgIqEOhiTRfepUuXtiKEXmsZPesiW8/ea83zHvpa5z5GFwKZrQtj5/BbxMZaOCdTNpNtpNJ2ICeCTkEAAhCAAAQgAAEIQCBLCSBEZOnE0e3MEzj00EOtZUF+36SChXOo9YD3UKsCvXesC3SRrNd6dg5dwKtVgnOobwW9VgHEObSvel2mTBl76LVT3zlHCgGR9045Pfs98+bllwn1IQABCEAAAhCAAAQgAIGiSwAhoujOPSPPg8C7775rtzt4tyY412r5sGjRIrn11ltl5MiR0q1btzBBwSsu5PEaHkMAAhCAAAQgAAEIQAACEChSBBAiitR0M9h0EnjppZekS5cuMn78eOnRo0c6m6YtCEAAAhCAAAQgkHUE1HfWgAEDbL/btGkjnTp1ijkG/UJn3Lhx1mp04MCBUrNmzZhleZCdBFatWiUPP/yw7Xy/fv2kbt262TkQep0RAggRGcFKo0WBwKRJk+Tqq6+WCRMmSPfu3YvCkBkjBCAAAQhAAAJZREAdWuti0JsqVaokNWrU8Gal7Xr9+vVy9NFH2/Y0rPlbb70Vs221KlXn35rmzZsnzZs3j1mWB9lJ4P3335cmTZrYzk+cONF+bs7OkdDrTBBAiMgEVdosEgRefPFF6dq1qzz//PN2a0aRGDSDhAAEIAABCEAgawgsWLBAWrVqZSNnOZ1Wv1JvvPGGNGvWzMlK29krROh71EJCfUz5pdNOO01WrFhhHyFE+BHK/jyEiOyfw0yOACEik3RpO6cJzJkzR+6//34ZPHiwtG7dOqfHyuAgAAEIQAACEMhOArNnz5aOHTsWiBjhFSKU1sKFC6VRo0ZR4DZu3ChHHnmkjR6mDxEiohDlRAZCRE5MY8YGgRCRMbQ0DAEIQAACEIAABCAAgcInUFBiRKQQ8dBDD8m9994bBeDVV1+Vzp07u/kIES6KnLpAiMip6Uz7YBAi0o6UBiEAAQhAAAIQgAAEIBAsAgUhRkQKERdeeKHMnTs3CsRtt90mo0aNcvOzTYjQiGnqtLxChQoyffp0GzLdHQwXLgGECBcFFz4EECJ8oJAFAQhAAAIQgAAEIACBXCOQaTEiUogoU6aMbNmyJcpPhEZPWL58uYs324SI/v37y2OPPWb7rw5B1R8GKZoAQkQ0E3L+jwBCxP+x4AoCEIAABCAAAQhAAAI5TSCTYkSkEKEgNUxnw4YNXaaR/iH0AUKEiyenLhAicmo60z4YhIi0I6VBCEAAAhCAAAQgAAEIBJdApsQIPyFi6NChcs8997gwpkyZIpdffrl7rxcIEWE4cuYGISJnpjIjA0GIyAhWGoUABCAAAQhAAAIQgEBwCWRCjPATIiL9RET6h1BCCBHB/TnJT88QIvJDL/frIkTk/hwzQghAAAIQgAAEIAABCEQRSLcY4SdERPqJqFevnnz55ZdhffETItQZpDqCVB8MkUnbbN++vVx99dXuI23jH//4h71v3ry57N27V7777jvRrSCbN2+29+3atZO7777braMX8d5TtWpV6dmzpxuCdOLEifLyyy/LihUrZM2aNbadVq1aSalSpaRy5coyduxYm/fGG2/Yclu3brX33n8qVqwoXbp0kYsuusjN9va9cePGdsza919++UW2bdsmTZo0kYEDB0q5cuXk448/lgcffNDW7d27tw3N6jZkLnQ8L774os3617/+ZcOkep/rdaptJDuuWEKEd7wjRoyQOnXquF386quv5K677rL3gwYNknPOOcd9lsxcuZW4CC6BEAkCEIAABCAAAQhAAAIQKJIEZs2aFTIL6ZBZrbiHcb4Yevfdd5Pm8dNPP7ltnH322e71Bx98YNsyokDooIMOsvne52ZhGvauVatWuXW9/Yq8/vrrr916//73vxOqs3TpUrdOIu+pVq1a6MCBA7aOEQNivqN69eq2jHHOGSpRokTMcjqG0qVLh/744w+3H4n0XctoWrdundt2165d3Taci0svvdQ+L1myZGjnzp1Odtg50Tb052LXrl22birjWrBggdtXI+K4ffCOd/HixW6+XhjxwrdOsnMV1ig3gSSARYT5a0CCAAQgAAEIQAACEIBANhDQb+KnTZuW1q6qZcQ777wT1qZGgtBvwJs1axaWH+/GaxExYMAAefzxx2X//v0ybNgwa4kwdepU6dSpk21Cv/UePny4vdZvyNWKwUkTJkywlgh6r+8/4ogjnEfyzTffyGeffWbv1QJBrQI0jR8/Xnr16mWva9WqJWp5oJYKevzwww9iFrL22bPPPivXXHONvfa+xyzqpUqVKjZf/9F3vPfee/ZemR933HF2C8mYMWPsM+2HJh1P8eLFpVKlSvLUU0/J22+/LbodRZMRBeTYY4+11/rPt99+KzNnzrT3CxcudC0tIvuu1hWHHHKIGNFG5s+fb8v/7W9/k7///e/2+oQTTpDVq1eLnp1x2QfmHyOcWEuKRo0aib4jVjr++OOtVUe8NtQ6w4gJtolUxhXLIsI7XiNEyHnnned2U/us79WkFiiO1Uuyc+U2yEVwCQRSHqFTEIAABCAAAQhAAAIQgEAUgddff939xtisMDJ6naxlhNciYsiQISGzwLT9M9sX7DiMfwh7bxbtIWNm7/Y90iLC+415pGWG9xtzIyq4fPJbxwgPblt6MXLkSLd/RkAIe2ZEAfeZ2ToS9mzu3LnuM7U28SbjqNN9puNwUqy+a9vOHOs7ndSnTx83f9OmTU526Pvvv3fzzRYUN9/vIpE21ALESamMK50WEV5GycyV03/OwSMgwesSPYIABCAAAQhAAAIQgAAE/AgUpBChi2Dj08GvG755kUKEs5XB+HQIGZ8Nobp169qFcufOnUOvvPKKu2jOVSHCWJqEcUqXEGGsA1x2xmrFfYdX3Il8t1vovxfGKiHPNowVhFvNK0REth1rXAgRLj4ufAggRPhAIQsCEIAABCAAAQhAAAJBJFCQQkSNGjVCkdYA8ZhEChFma4O72J0xY4brH8Jsb8hZIcI4mLTWHiq07NmzJwxXrAW799t+rwXI7t27QyriqCDktYhYu3aty9U4dHTf8de//tXmm60iIePk0s33u/BaT/i1oX4uvNYeqYwLIcKPPHkOAYQIhwRnCEAAAhCAAAQgAAEIBJyAOnzUb6rTebRt29Zd2DpbAdT5YjIihGKLFCJ0Ia7bO7RNE/3AfYe2m6sWEfF+fJIVIrQtFQNM9A3XaaTTvvFZYXk6214039kKc9ZZZznF4p6N/4qYbTRs2DBuXe/DWONCiPBS4jqSAEJEJBHuIQABCEAAAhCAAAQgUEQIGAeIrkCQHxFCcUUKEZpnwlSGta+LX01BEyLKly8fMg4u3cNhoedIQSaejwi1YjAONENHHXWU25bTbtmyZV0WifiIsKBi/KPv0L5VqFDBRvXQ9zrRT26//fYYtcKzjXPPmG1E+phIZVyZEiKSmavwEXMXJAIIEUGaDfoCAQhAAAIQgAAEIACBAiKQThFCu+wnRIwYMcJdfOvC+dprr7WjC5oQ4RUevNfqWHPz5s1hMxJPiJg+fXrYeL1tea/zK0R4t3OsXLkypGEwnfZNVJWw/sa6GTdunFsnso05c+aEVUtlXJkSIpxxRp795ipsENwEigBCRKCmg85AAAIQgAAEIAABCEAg8wTSLUJoj/2EiE8//dRd7OrCUR0qagqaEPHcc8+FTKjMqEN9KUSmeELEI4884o5XHUkuXbrUPR5++GH3WX6FCK+PBxUlTKhU27YJ+RnyRtKI7Lv3/rvvvnP7423j4IMPDm3fvt1bNJTKuDIlRCQzV2GD4CZQBBAiAjUddAYCEIAABCBQdAkcOHAg9McffxRdAIwcAgVEIBMihHbdT4jQ3+vKlSu7i+Rff/3VjjJoQkRkSMh4U5GoEKE8vCmWLwWvdYPXWaW3rt+14+PhxhtvDF155ZWW8WmnneZXNGbeMcccY+t522jQoEFUea8Qkei4MiVEJDNXUQMhIzAEECICMxV0BAIQgAAEIBAcAioI3HnnnSkfkd+mxRqZhoG77LLLQvrh+ZBDDrEfiNVL/EknnWS9xH/55ZexqpIPAQikQCBTIoR2xU+I0PwrrrjC/m6ffvrpemtT0IWIXbt2hXQhrYdee1NQhIiePXtarvXr1w/VrFnTXt98883eruZ53aNHj6g2/t//+39R9YIsRMSbq6iBkBEYAggRgZkKOgIBCEAAAhAIDoFFixbZD6eRe3ATvddQb/HS119/HWrRokWe71Az4zvuuCMqDF68tnkGAQj4E8ikCKFvjCVEPPPMM/Z3vX///m7Hgi5EPP300+7fp2ScVaayYE/VIsLr48H52+xsfXFB53Gh2xycus551qxZUbVSGVdBWUTEm6uogZARGAIIEYGZCjoCAQhAAAIQCA6BUaNGRX04dT6kJnKOJ0T88MMPIQ0NmEg7Tpn27duH9u/fHxxA9AQCWUYg0yKE4oglRKxevdr+vqsFlJOCLkSMHDnS/RsVVCFizZo1bh+dv5Xr1693ECd0dubGqV+8ePHQ77//HlU3yEJEvLmKGggZgSGAEBGYqaAjEIAABCAAgeAQUM/2zgfTVM6xhAjdsqHbMCLbPProo0NXXXVVqF+/fqFzzjknpB+GI8vce++9wQFETyCQRQQKQoRQHLGECH02ePDgMB8wiQoR99xzT+iFF15wj0GDBrl/G5599llt2qZ4VgXqGNL5exKrjlptzJs3zz1uu+02t048IULraf/efPNN2w/vgv2xxx4LPf/886GxY8eGxowZE7ruuuvcNvPrrPK/ww45Ph50fCeccIKTndTZKwyfffbZvnVTGVciFhEDBgwI/eMf/wipI88HH3ww5GwV0fFMnDjR7Yt3fpOZK7cBLgJHACEicFNChyAAAQhAAAKFT0A/jDof3PWsAoF+kE702Llzp+8ghg8fHtautt2tW7fQn3/+GVb+448/dh3cOf049NBDQ1u2bAkrxw0EIBCfQEGJENqLeEJEZC/jCRHeBazz++93VuHASd6FaqTDx1hCRCLvKV26dJiAou/zsxjTxbwmbz/8+uzkpUuI8C7c+/TpY/uQ7D/6N9jpl3f7jLedVMbl5esVFTSaiPO+eGdvHW9bser4zZV3DFwHiwBCRLDmg95AAAIQgAAECp3A3r17XceRzge+devW5btf6lDsyCOPDPsA2qtXr5B61fdLK1asiCqvIepIEIBAYgQmT54c9vumv8+6YI78hj+x1vIupWEjixUrZt85ZMiQuBW8QoR3Ua6VdBtWly5dQio+On+DvGfNVwuqffv2ue/wLpQ1ZKY3ffLJJ24748ePdx/l9R79ezVs2DC3vHOhFl+tWrUKaZhLp1/HHXecfawM1Cmnk69OeNVqoWnTpqHzzjvPzV+yZInTXJh4Edl3t1CMC++2BGWQSvrXv/7l9mvGjBm+TaQyLhWUHQ46307avXt3GIuSJUuG1CquUaNGoYYNG/rWSXWunHdyDh6Bg7RL5geEBAEIQAACEIAABCyB5cuXS926dV0aVapUERNyz71P9cKYRIsxTXarm8WEmDj2csQRR7h5kReRdU488UQxji7FOLGMLMo9BCAAgcAQMAt3Md/Qi4kClNE+3X777WK2Nth3rF27VozokfT7jBgsxirN1itVqlTcv6/pHNdvv/0mRoSQsmXLJt1nKmQ/AYSI7J9DRgABCEAAAhBIKwGz31m6d+/uttm6dWsxTubc+1QvzDecYjy6u9VN6Dkx3+C5934XxjrDChVbt251H8+dO1cuvPBC9z6dF+ZbN/nPf/4j+oG+Vq1aUrt2bTHf8KbzFRlpy2xZEfNNqlStWlXq1KljF0CJvMhsobHCzoYNG+xYjz/++LiLkETapAwEIFBwBIz1hXzxxRf275VxPFlwL+ZNEMgnAYSIfAKkOgQgAAEIQCDXCBjnYWL2lbvDGjhwoBgza/c+1Qtjuizff/+9W10Fj65du7r3sS46dOggr7/+uvvYOJGTJ5980r3P74WJ4iFDhw4VY74tag1izIbdJvXbTLUOMSbDYpzkyWGHHeY+87t44IEHZOrUqe4j4xND2rRp497HujBm2+IVW6ZMmSLG8VxYceMsTsyeaTdv2rRpYra7iPHfIfPnzxdjpm6f6TeaZt+4GCd/cuyxx7rlnQu1KLn//vvlww8/tIKL1zjWGW+DBg3seCtVquRU4wwBCASMwMaNG8VsH9Gt9mIcDIvZYhGwHtIdCMQhoFszSBCAAAQgAAEIQMAh8Je//MXdo2s+QoTMgtd5lPJZ91RrW97DiBIJtafe1L31tH/pSi+++GKoQoUKYe173+W91n3eZsEf99WR0UbUC3wiqXLlymF9+PLLL6OqqcNQb39mzpwZMttawvK8z41YE9aGETpCxow7VKJEiZh1vPWNdUXICEBhbXADAQgEh8DLL7/s/i7r3zISBLKJABYR5n9cEgQgAAEIQAAC/0fALIpl8+bNboZxVCmff/65GMd3snLlSnvoFga1FDjjjDOkfv36Yryux93n+/bbb4dtpzCLYWt5kMi2B33vFVdc4fanWrVqsn79evc+lQu1HtCtIebDe1LVtb9qTXDffff51lMfGOrXwklGiLCWBc59rLP64dC9104yQoSYMKfOrT3/9a9/lSeeeMLNM87dxEQpcO+9F8aJnvz444/221LN37Fjh5x11ll224m3XCLXfNOaCCXKQKDgCdxwww1iQlnaF//88892a1bB94I3QiA1AggRqXGjFgQgAAEIQCAnCeg2hUhnZ+eee6414483YN12of4emjRp4lvs1Vdflc6dO7vP1BeB8dzv3se7UN8Hxtt8WBEVEooXLx6Wl8yNOndTJ2/epO316tXLbsOoWbOmfPPNN7J48WK7HUKFFyepo8xFixbJ+eef72S554IUItyX+ly0a9dOjMWE+0THZaIFuPd6Ybz5WwHpnHPOkRo1aoiJUiIm7KHMmjUrrJzeTJgwIcxvSFQBMiAAgQInoM57V61aJaeccor9/S3wDvBCCOSHQDaZb9BXCEAAAhCAAAQyS0BN8c3nipQOs0APGf8Svh00VgJhbWqYtkSTccAWVlf7t23btkSrR5UzEUCitmMYB4+hWGHzjDVHKHLrxNlnn+0bdrQgt2Y482R8UISMeBAyViwh458ipH0wDj3dcT///PNR/IwTztBnn33mlvFeGEEpKmyibgExDjG9xbiGAAQKmYDxaRMy1mqhRLe5FXJ3eT0EwgiocxMSBCAAAQhAAAIQsATUp4GzwPU7G0uBkLGQCJUvXz5mOV3IRibj/DKsfMuWLSOLxLw32zDC6mq/jBlyzPJ5PTBWC2HtmTCiIfOtYtxqJpJGSGPde5mMHTs2qk5BCxEqoJjIF1H98GaYrSxh/TbO7ULqLyJemjdvXlgdHfdNN90UrwrPIAABCEAAAgkTQIhIGBUFIQABCEAAArlPoGPHjlEL0MMPPzxkvLGH1qxZ4wIwcedDJupCyPiI8C2vzim9yfhVCCvXvn177+O41ybWfFhdXRSbbR1x68R6qFYDxs9DWHuPP/54rOJh+X379g2rZ7Y0hD3Xm4IWIvJynqkCi1c80etIJ5ZRg/hvhtneEVbXbOUImS0qsYqTDwEIQAACEEiYAD4izP/IJAhAAAIQgAAE/peAs+fY4aGOIY2Zf5TjROf53r175cYbbxRjHeBk2fNVV10lkyZNcvNM5Au566673PsWLVrIO++8497HuzDbMKLCZhoLBdG+JpuWLFkS5dvBbNUQdRaZV1J/EQ0bNnSLaShPb8hNfVCQPiLUIaWG79RzrDRu3Djp06eP+7h69epitrqIse5w82JdfPHFF3L66aeHPTZilKg/EBIEIAABCEAgPwQQIvJDj7oQgAAEIACBHCOgETJ0ofrdd9+JOq7s3r271KpVK+4oNSKDOkvTuk4qV66c/P7776KOHTUNHTpUBg4c6DwW49fA1ymiW8BzsXHjRjE+Cjw5YqNmqEiSbDL+EqRHjx5uNe3fxx9/7N7Hu9BxRjrjjBQxClKISMThp4oQKkY46bLLLpMpU6Y4t3meVWxRIchJs2fPltatWzu3nCEAAQhAAAIpEUCISAkblSAAAQhAAAIQ8BKYOHGijcDgzVMx49hjj7VZGnZSw086qXnz5mL8EDi3cc8qcGgUC29SUcD4dvBmJXStYTeHDBmSUNlECmn0DK+VREEKESoIqDAQL2loVeOU0i3yt7/9TYy/Dvc+rwu1iFDLCCeZbSxh8+jkc4YABCAAAQgkQwAhIhlalIUABCAAAQhAwJfA2rVrXdHBKTBjxgy5+OKL7e1zzz0nxn+C80hM1An56KOP3Pt4FxpW8rTTTnOL6FYE3RKSSurSpYu89NJLqVT1raMhS3v27Ok+K0gh4tZbb5WRI0e67/a7OOmkk0S3sTgpWSGhQ4cOYiKpONUlkXe6hbmAAAQgAAEIxCKQsDcJCkIAAhCAAAQgAIEYBNR5ZenSpcOcG44YMcItPW3atLBnGrkh0WS+9Q+rW7FixUSrRpXTUJfmM1HajtGjR4e9I1VnlTomb7++/PLLsHb1pl+/fmFljM+NqDKRGRpm1NvuI488Elkk7v0ll1wSVt9YtcQtz0MIQAACEIBAIgSwiIil0JAPAQhAAAIQgEBSBCL9Cfzzn/+UG264wbah38rrt/NOUt8M6mixVKlSTlbM8zPPPOO2o4V0u4B3u0HMij4PbrnlFnnqqafcJ9on7737IMELEz5TjjrqKLd0pEXE4MGDxUQMcZ/HulAOf/75p/vYCBFhViD6QLe26BYXJ6nzz//5n/9xbn3PJjqJzJw5032WSB23sLmI3NoxbNgwufvuu71FuIYABCAAAQgkTQAhImlkVIAABCAAAQjkJgETclM+//xzUQeMephwjaIL90TShg0bpGrVqmFF33vvPWnatKnNM2EfrU8H72Jbt2boFo28UqR4cP3118uYMWPyqub7PNJXRX5EDb8XRAoR99xzj3XU6VfWyVNBJtLfRbqECPUJodsxnBQZzcTJj3U2lhqyZcsW97EJ4xq2xcZ9wAUEIAABCEAgGQKJmE1QBgIQgAAEIACB3Cdg/A2EmeEbXwwhE/kioYG/++67YXXNZ5GQETbC6p5xxhlhZRLdJmAicoTVM/4mwtpN5mbWrFlhbZUoUSJkhICEmjBiSmjOnDmhhQsXhkxEkZDeR6abbroprH3dTpFX+vTTT8PqKLt0bc0w1h5hbZ988skh3UaTSDLORsPqar+M349EqlIGAhCAAAQgEJeAxH3KQwhAAAIQgAAEigwBE8YyauH56quvJjT+tm3bhtWtXLlyVD0TsSKsjPovyCuZiA1hdXQx/NVXX+VVLebzb7/9Nqq9RAWRV155JayuihgqSniT+lDQPjqHCZfpfex7/eijj7rlnXrpEiLeeuutqLYnT57s24/ITBP6M6yu2T6SsDAV2Rb3EIAABCAAAS8BhAgvDa4hAAEIQAACRZiAfsNfqVKlsMWnWiPs3LkzLhX9ltxZQDvnoUOHRtVZvnx5VLkpU6ZElXMy9Jt74+MgrE6DBg2cxymddYxmO0ZYm2XKlAmZEKFx29u9e3fIRO4Iq1e9evWQid4RVk/H7TDQc8mSJUMm6kdYGe/N1q1bQ9WqVQuro/XSJURs3749ZHxYhLVv/GKE9u3b5+1G1LXx6REqXrx4WD2dCxIEIAABCEAgHQQQItJBkTYgAAEIQAACOULAhKIMW3zqorhXr14h49vBd4TGEWKUeHH00UfHFC8aNmwY1r7xQxF64403otrWhbJfX1577bWosslmLFiwIKwPOkbdNrJy5UrfprQvHTt2jKpjHEVGldetG9qe9zj//PN9t3EYvxqhxo0bh5V16qVLiNAOTpw4MeodasGyadOmqP5rxieffBKqVatWVJ2pU6f6licTAhCAAAQgkCwBnFWa//FJEIAABCAAAQj8LwGzOJUzzzxTjA+EMCTGMkIeeughOffcc61jRbNYFbMwFY2MYT58hJUdO3as9O7dOyzPuVm2bJmcc845YqwdnCwxWxxEozmY0Jpy/PHHi9nuIM8++6yYsJ1uGb0wYoFofY24kd/UrVs3MQv0sGZM+FHbj2bNmkm9evVk27ZtsmjRIuts0lg1hJU1VgxiLDxEnTl6k7KoXbu2rF692pstRnAQ4y/COvRUh51GsLBj3Lx5c1g558YIEWmJmuG016RJE3n//fedW3s+5phjbAQMndOaNWuKvvPdd9+Vhx9+WPbs2RNW9uqrr47iFVaAGwhAAAIQgEASBBAikoBFUQhAAAIQgEBRILBkyRLRhavZdpD0cG+99VYxTi/j1lNBY9CgQXHLRD7Uhf/ixYvtgjnyWSr3P//8sxhLBVm7dm3S1Q8//HCZP3++1K1b17fu3//+dxkwYIDvs1iZ2qY3OkW6hQjja0NatGghsYSPWP3SfB2nikPly5ePV4xnEIAABCAAgYQJIEQkjIqCEIAABCAAgaJDwGyXEBUVvv/++4QGbfwJyJ133plnqEqnMeP4UYwzRNmxY4eTFfNs/FaIcboo9evXj1kmlQfGf4LccccdSYUCVUHE+LWwIkasd6qAc8UVV4jZRhKriJuv3IxfCSsQjBgxws1PtxChDWt41htuuEFef/119z15XZhtOTJ69Oio8KJ51eM5BCAAAQhAIC6BZPdyUB4CEIAABCAAgaJBQMNaDhkyJFSuXLkofwHmw4XNU2eM6sRQQ1Amm8xiO3TBBReE1E+E0573bLZKhMyWjZA6dMxkmjt3bshsF4nZD+2TOnx84oknkgr1abaohIw1QahYsWK+49OxO1E3jCDiljFbT0LGUiNqyMaKxC2jfVI2qaTx48eHNIxnpDNKh72GbdVoH8qFBAEIQAACEMgEASwizP+6JAhAAAIQgAAEYhNQfw4mqoR8/fXXYqIpiFoSHHnkkWIW59b3QX5N9o0zSFEfDCZ8qJhFsKiVgPpZMIvlAt0OYCJqWN8O6vth1apVUqFCBTFOG+2hPhS0b6kktfpQ3xZGrBF9h4m2Yf1wqD+MwkzqB8KEQrW+IZS5zoOO89RTT5UqVaoUZtd4NwQgAAEI5DgBhIgcn2CGBwEIQAACEIAABCAAAQhAAAIQCBIBhIggzQZ9gQAEIAABCEAAAhCAAAQgAAEI5DgBhIgcn2CGBwEIQAACEIAABCAAAQhAAAIQCBIBhIggzQZ9gQAEIAABCEAAAhCAAAQgAAEI5DgBhIgcn2CGBwEIQAACEIAABCAAAQhAAAIQCBIBhIggzQZ9gQAEIAABCEAAAhCAAAQgAAEI5DgBhIgcn2CGBwEIQAACEIAABCAAAQhAAAIQCBIBhIggzQZ9gQAEIAABCEAAAhCAAAQgAAEI5DgBhIgcn2CGBwEIQAACEIAABCAAAQhAAAIQCBIBhIggzQZ9gQAEIAABCEAAAhCAAAQgAAEI5DgBhIgcn2CGBwEIQAACEIAABCAAAQhAAAIQCBIBhIggzQZ9gQAEIAABCEAAAhCAAAQgAAEI5DgBhIgcn2CGBwEIQAACEIAABCAAAQhAAAIQCBIBhIggzQZ9gQAEIAABCEAAAhCAAAQgAAEI5DgBhIgcn2CGBwEIQAACEIAABCAAAQhAAAIQCBIBhIggzQZ9gQAEIAABCEAAAhCAAAQgAAEI5DgBhIgcn2CGBwEIQAACEIAABCAAAQhAAAIQCBIBhIggzQZ9gQAEIAABCEAAAhCAAAQgAAEI5DgBhIgcn2CGBwEIQAACEIAABCAAAQhAAAIQCBIBhIggzQZ9gQAEIAABCEAAAhCAAAQgAAEI5DgBhIgcn2CGBwEIQAACEIAABCAAAQhAAAIQCBIBhIggzQZ9gQAEIAABCEAAAhCAAAQgAAEI5DgBhIgcn2CGBwEIQAACEIAABCAAAQhAAAIQCBIBhIggzQZ9gQAEIAABCEAAAhCAAAQgAAEI5DgBhIgcn2CGBwEIQAACEIAABCAAAQhAAAIQCBIBhIggzQZ9gQAEIAABCEAAAhCAAAQgAAEI5DgBhIgcn2CGBwEIQAACEIAABCAAAQhAAAIQCBIBhIggzQZ9gQAEIAABCEAAAhCAAAQgAAEI5DgBhIgcn2CGBwEIQAACEIAABCAAAQhAAAIQCBIBhIggzQZ9gQAEIAABCEAAAhCAAAQgAAEI5DgBhIgcn2CGBwEIQAACEIAABCAAAQhAAAIQCBIBhIggzQZ9gQAEIAABCEAAAhCAAAQgAAEI5DgBhIgcn2CGBwEIQAACEIAABCAAAQhAAAIQCBIBhIggzQZ9gQAEIAABCEAAAhCAAAQgAAEI5DgBhIgcn2CGBwEIQAACEIAABCAAAQhAAAIQCBIBhIggzQZ9gQAEIAABCEAAAhCAAAQgAAEI5DgBhIgcn2CGBwEIQAACEIAABCAAAQhAAAIQCBKB/w9w+Pep2iGBoQAAAABJRU5ErkJggg==;" vertex="1" parent="1">
          <mxGeometry x="640" y="610" width="298.41" height="220" as="geometry" />
        </mxCell>
        <mxCell id="SDUCGOUq9v9T7dZsSmm8-36" style="edgeStyle=orthogonalEdgeStyle;rounded=0;orthogonalLoop=1;jettySize=auto;html=1;entryX=0.5;entryY=0;entryDx=0;entryDy=0;fontSize=14;targetPerimeterSpacing=6;" edge="1" parent="1" source="SDUCGOUq9v9T7dZsSmm8-32" target="SDUCGOUq9v9T7dZsSmm8-35">
          <mxGeometry relative="1" as="geometry" />
        </mxCell>
        <mxCell id="SDUCGOUq9v9T7dZsSmm8-32" value="Prospect Theory" style="ellipse;whiteSpace=wrap;html=1;fontSize=14;align=center;opacity=80;fontStyle=1;fillColor=#f8cecc;strokeColor=#b85450;" vertex="1" parent="1">
          <mxGeometry x="30" y="330" width="120" height="80" as="geometry" />
        </mxCell>
        <mxCell id="SDUCGOUq9v9T7dZsSmm8-34" value="Kahneman" style="text;html=1;strokeColor=none;fillColor=none;align=center;verticalAlign=middle;whiteSpace=wrap;rounded=0;fontSize=14;opacity=80;" vertex="1" parent="1">
          <mxGeometry x="45" y="584" width="90" height="30" as="geometry" />
        </mxCell>
        <mxCell id="SDUCGOUq9v9T7dZsSmm8-39" style="edgeStyle=orthogonalEdgeStyle;rounded=0;orthogonalLoop=1;jettySize=auto;html=1;exitX=1;exitY=0.5;exitDx=0;exitDy=0;entryX=0;entryY=0.5;entryDx=0;entryDy=0;fontSize=14;targetPerimeterSpacing=6;" edge="1" parent="1" source="SDUCGOUq9v9T7dZsSmm8-35" target="SDUCGOUq9v9T7dZsSmm8-37">
          <mxGeometry relative="1" as="geometry" />
        </mxCell>
        <mxCell id="SDUCGOUq9v9T7dZsSmm8-42" style="edgeStyle=orthogonalEdgeStyle;rounded=0;orthogonalLoop=1;jettySize=auto;html=1;exitX=0;exitY=0.5;exitDx=0;exitDy=0;entryX=1;entryY=0.5;entryDx=0;entryDy=0;fontSize=14;targetPerimeterSpacing=6;" edge="1" parent="1" source="SDUCGOUq9v9T7dZsSmm8-35" target="SDUCGOUq9v9T7dZsSmm8-40">
          <mxGeometry relative="1" as="geometry" />
        </mxCell>
        <mxCell id="SDUCGOUq9v9T7dZsSmm8-35" value="2 systems" style="ellipse;whiteSpace=wrap;html=1;fontSize=14;align=center;opacity=80;fillColor=#dae8fc;strokeColor=#6c8ebf;" vertex="1" parent="1">
          <mxGeometry x="30" y="510" width="120" height="80" as="geometry" />
        </mxCell>
        <mxCell id="SDUCGOUq9v9T7dZsSmm8-44" style="edgeStyle=orthogonalEdgeStyle;rounded=0;orthogonalLoop=1;jettySize=auto;html=1;entryX=0;entryY=0.5;entryDx=0;entryDy=0;fontSize=14;targetPerimeterSpacing=6;" edge="1" parent="1" source="SDUCGOUq9v9T7dZsSmm8-37" target="SDUCGOUq9v9T7dZsSmm8-43">
          <mxGeometry relative="1" as="geometry" />
        </mxCell>
        <mxCell id="SDUCGOUq9v9T7dZsSmm8-53" style="edgeStyle=orthogonalEdgeStyle;rounded=0;orthogonalLoop=1;jettySize=auto;html=1;exitX=0.5;exitY=1;exitDx=0;exitDy=0;entryX=0.5;entryY=0;entryDx=0;entryDy=0;fontSize=14;targetPerimeterSpacing=6;" edge="1" parent="1" source="SDUCGOUq9v9T7dZsSmm8-37" target="SDUCGOUq9v9T7dZsSmm8-52">
          <mxGeometry relative="1" as="geometry" />
        </mxCell>
        <mxCell id="SDUCGOUq9v9T7dZsSmm8-37" value="Heuristic" style="rounded=1;whiteSpace=wrap;html=1;fontSize=14;align=center;opacity=80;fillColor=#fff2cc;strokeColor=#d6b656;" vertex="1" parent="1">
          <mxGeometry x="200" y="532.5" width="100" height="35" as="geometry" />
        </mxCell>
        <mxCell id="SDUCGOUq9v9T7dZsSmm8-38" value="Pattern matching&lt;br&gt;Fast&lt;br&gt;Unreliable" style="text;html=1;strokeColor=none;fillColor=none;align=center;verticalAlign=middle;whiteSpace=wrap;rounded=0;fontSize=14;opacity=80;" vertex="1" parent="1">
          <mxGeometry x="180" y="494" width="140" height="30" as="geometry" />
        </mxCell>
        <mxCell id="SDUCGOUq9v9T7dZsSmm8-40" value="Analytical" style="rounded=1;whiteSpace=wrap;html=1;fontSize=14;align=center;opacity=80;fillColor=#fff2cc;strokeColor=#d6b656;" vertex="1" parent="1">
          <mxGeometry x="-140" y="532.5" width="100" height="35" as="geometry" />
        </mxCell>
        <mxCell id="SDUCGOUq9v9T7dZsSmm8-41" value="Slow&lt;br&gt;Conscious&lt;br&gt;Reliable" style="text;html=1;strokeColor=none;fillColor=none;align=center;verticalAlign=middle;whiteSpace=wrap;rounded=0;fontSize=14;opacity=80;" vertex="1" parent="1">
          <mxGeometry x="-160" y="494" width="140" height="30" as="geometry" />
        </mxCell>
        <mxCell id="SDUCGOUq9v9T7dZsSmm8-47" style="edgeStyle=orthogonalEdgeStyle;rounded=0;orthogonalLoop=1;jettySize=auto;html=1;exitX=0.5;exitY=0;exitDx=0;exitDy=0;entryX=0.5;entryY=1;entryDx=0;entryDy=0;fontSize=14;targetPerimeterSpacing=6;" edge="1" parent="1" source="SDUCGOUq9v9T7dZsSmm8-43" target="SDUCGOUq9v9T7dZsSmm8-46">
          <mxGeometry relative="1" as="geometry" />
        </mxCell>
        <mxCell id="SDUCGOUq9v9T7dZsSmm8-48" style="edgeStyle=orthogonalEdgeStyle;rounded=0;orthogonalLoop=1;jettySize=auto;html=1;exitX=0.5;exitY=1;exitDx=0;exitDy=0;entryX=0.5;entryY=0;entryDx=0;entryDy=0;fontSize=14;targetPerimeterSpacing=6;" edge="1" parent="1" source="SDUCGOUq9v9T7dZsSmm8-43" target="SDUCGOUq9v9T7dZsSmm8-45">
          <mxGeometry relative="1" as="geometry" />
        </mxCell>
        <mxCell id="SDUCGOUq9v9T7dZsSmm8-43" value="Bias" style="ellipse;whiteSpace=wrap;html=1;fontSize=14;align=center;opacity=80;fontStyle=1;fillColor=#f8cecc;strokeColor=#b85450;" vertex="1" parent="1">
          <mxGeometry x="400" y="530" width="80" height="40" as="geometry" />
        </mxCell>
        <mxCell id="SDUCGOUq9v9T7dZsSmm8-45" value="Availability" style="text;html=1;strokeColor=none;fillColor=none;align=center;verticalAlign=middle;whiteSpace=wrap;rounded=0;fontSize=14;opacity=80;" vertex="1" parent="1">
          <mxGeometry x="410" y="590" width="60" height="30" as="geometry" />
        </mxCell>
        <mxCell id="SDUCGOUq9v9T7dZsSmm8-46" value="Confirmation" style="text;html=1;strokeColor=none;fillColor=none;align=center;verticalAlign=middle;whiteSpace=wrap;rounded=0;fontSize=14;opacity=80;" vertex="1" parent="1">
          <mxGeometry x="410" y="480" width="60" height="30" as="geometry" />
        </mxCell>
        <mxCell id="SDUCGOUq9v9T7dZsSmm8-50" value="Bayes&#39;&lt;br&gt;Theorem" style="ellipse;whiteSpace=wrap;html=1;fontSize=14;align=center;opacity=80;fontStyle=1;fillColor=#f8cecc;strokeColor=#b85450;" vertex="1" parent="1">
          <mxGeometry x="190" y="760" width="120" height="80" as="geometry" />
        </mxCell>
        <mxCell id="SDUCGOUq9v9T7dZsSmm8-54" style="edgeStyle=orthogonalEdgeStyle;rounded=0;orthogonalLoop=1;jettySize=auto;html=1;exitX=0.5;exitY=1;exitDx=0;exitDy=0;entryX=0.5;entryY=0;entryDx=0;entryDy=0;fontSize=14;targetPerimeterSpacing=6;" edge="1" parent="1" source="SDUCGOUq9v9T7dZsSmm8-52" target="SDUCGOUq9v9T7dZsSmm8-50">
          <mxGeometry relative="1" as="geometry" />
        </mxCell>
        <mxCell id="SDUCGOUq9v9T7dZsSmm8-52" value="Ignores" style="text;html=1;strokeColor=none;fillColor=none;align=center;verticalAlign=middle;whiteSpace=wrap;rounded=0;fontSize=14;opacity=80;" vertex="1" parent="1">
          <mxGeometry x="220" y="650" width="60" height="30" as="geometry" />
        </mxCell>
        <mxCell id="SDUCGOUq9v9T7dZsSmm8-55" value="P(B | A)P(A)&lt;hr&gt;P(B)" style="text;html=1;strokeColor=none;fillColor=none;align=center;verticalAlign=middle;whiteSpace=wrap;rounded=0;fontSize=14;opacity=80;" vertex="1" parent="1">
          <mxGeometry x="255" y="840" width="85" height="60" as="geometry" />
        </mxCell>
        <mxCell id="SDUCGOUq9v9T7dZsSmm8-56" value="P(A | B) =" style="text;html=1;strokeColor=none;fillColor=none;align=center;verticalAlign=middle;whiteSpace=wrap;rounded=0;fontSize=14;opacity=80;" vertex="1" parent="1">
          <mxGeometry x="170" y="855" width="90" height="30" as="geometry" />
        </mxCell>
        <mxCell id="SDUCGOUq9v9T7dZsSmm8-61" style="edgeStyle=orthogonalEdgeStyle;rounded=0;orthogonalLoop=1;jettySize=auto;html=1;exitX=0.5;exitY=0;exitDx=0;exitDy=0;entryX=0.5;entryY=1;entryDx=0;entryDy=0;fontSize=14;targetPerimeterSpacing=6;" edge="1" parent="1" source="SDUCGOUq9v9T7dZsSmm8-57" target="SDUCGOUq9v9T7dZsSmm8-60">
          <mxGeometry relative="1" as="geometry" />
        </mxCell>
        <mxCell id="SDUCGOUq9v9T7dZsSmm8-73" style="edgeStyle=orthogonalEdgeStyle;rounded=0;orthogonalLoop=1;jettySize=auto;html=1;exitX=1;exitY=0.5;exitDx=0;exitDy=0;entryX=0;entryY=0.5;entryDx=0;entryDy=0;fontSize=14;targetPerimeterSpacing=6;" edge="1" parent="1" source="SDUCGOUq9v9T7dZsSmm8-57" target="SDUCGOUq9v9T7dZsSmm8-72">
          <mxGeometry relative="1" as="geometry" />
        </mxCell>
        <mxCell id="SDUCGOUq9v9T7dZsSmm8-57" value="Signal Detection Theory" style="ellipse;whiteSpace=wrap;html=1;fontSize=14;align=center;opacity=80;fontStyle=1;fillColor=#f8cecc;strokeColor=#b85450;" vertex="1" parent="1">
          <mxGeometry x="890" y="125" width="150" height="100" as="geometry" />
        </mxCell>
        <mxCell id="SDUCGOUq9v9T7dZsSmm8-59" value="Born in WW2 for radars" style="text;html=1;strokeColor=none;fillColor=none;align=center;verticalAlign=middle;whiteSpace=wrap;rounded=0;fontSize=14;opacity=80;" vertex="1" parent="1">
          <mxGeometry x="885" y="220" width="160" height="30" as="geometry" />
        </mxCell>
        <mxCell id="SDUCGOUq9v9T7dZsSmm8-65" style="edgeStyle=orthogonalEdgeStyle;rounded=0;orthogonalLoop=1;jettySize=auto;html=1;exitX=0;exitY=0.5;exitDx=0;exitDy=0;entryX=1;entryY=0.5;entryDx=0;entryDy=0;fontSize=14;targetPerimeterSpacing=6;" edge="1" parent="1" source="SDUCGOUq9v9T7dZsSmm8-60" target="SDUCGOUq9v9T7dZsSmm8-64">
          <mxGeometry relative="1" as="geometry" />
        </mxCell>
        <mxCell id="SDUCGOUq9v9T7dZsSmm8-67" style="edgeStyle=orthogonalEdgeStyle;rounded=0;orthogonalLoop=1;jettySize=auto;html=1;exitX=1;exitY=0.5;exitDx=0;exitDy=0;entryX=0;entryY=0.5;entryDx=0;entryDy=0;fontSize=14;targetPerimeterSpacing=6;" edge="1" parent="1" source="SDUCGOUq9v9T7dZsSmm8-60" target="SDUCGOUq9v9T7dZsSmm8-66">
          <mxGeometry relative="1" as="geometry" />
        </mxCell>
        <mxCell id="SDUCGOUq9v9T7dZsSmm8-70" style="edgeStyle=orthogonalEdgeStyle;rounded=0;orthogonalLoop=1;jettySize=auto;html=1;entryX=0.5;entryY=1;entryDx=0;entryDy=0;fontSize=14;targetPerimeterSpacing=6;" edge="1" parent="1" source="SDUCGOUq9v9T7dZsSmm8-60" target="SDUCGOUq9v9T7dZsSmm8-68">
          <mxGeometry relative="1" as="geometry" />
        </mxCell>
        <mxCell id="SDUCGOUq9v9T7dZsSmm8-71" style="edgeStyle=orthogonalEdgeStyle;rounded=0;orthogonalLoop=1;jettySize=auto;html=1;entryX=0.5;entryY=1;entryDx=0;entryDy=0;fontSize=14;targetPerimeterSpacing=6;" edge="1" parent="1" source="SDUCGOUq9v9T7dZsSmm8-60" target="SDUCGOUq9v9T7dZsSmm8-69">
          <mxGeometry relative="1" as="geometry" />
        </mxCell>
        <mxCell id="SDUCGOUq9v9T7dZsSmm8-60" value="4 states" style="rounded=1;whiteSpace=wrap;html=1;fontSize=14;align=center;opacity=80;fillColor=#dae8fc;strokeColor=#6c8ebf;" vertex="1" parent="1">
          <mxGeometry x="925" y="30" width="80" height="30" as="geometry" />
        </mxCell>
        <mxCell id="SDUCGOUq9v9T7dZsSmm8-64" value="Hit" style="rounded=1;whiteSpace=wrap;html=1;fontSize=14;align=center;opacity=80;fillColor=#fff2cc;strokeColor=#d6b656;" vertex="1" parent="1">
          <mxGeometry x="840" y="30" width="50" height="30" as="geometry" />
        </mxCell>
        <mxCell id="SDUCGOUq9v9T7dZsSmm8-66" value="Miss" style="rounded=1;whiteSpace=wrap;html=1;fontSize=14;align=center;opacity=80;fillColor=#fff2cc;strokeColor=#d6b656;" vertex="1" parent="1">
          <mxGeometry x="1040" y="30" width="70" height="30" as="geometry" />
        </mxCell>
        <mxCell id="SDUCGOUq9v9T7dZsSmm8-68" value="False alarm" style="rounded=1;whiteSpace=wrap;html=1;fontSize=14;align=center;opacity=80;fillColor=#fff2cc;strokeColor=#d6b656;" vertex="1" parent="1">
          <mxGeometry x="865" y="-50" width="95" height="40" as="geometry" />
        </mxCell>
        <mxCell id="SDUCGOUq9v9T7dZsSmm8-69" value="Correct rejection" style="rounded=1;whiteSpace=wrap;html=1;fontSize=14;align=center;opacity=80;fillColor=#fff2cc;strokeColor=#d6b656;" vertex="1" parent="1">
          <mxGeometry x="980" y="-50" width="95" height="40" as="geometry" />
        </mxCell>
        <mxCell id="SDUCGOUq9v9T7dZsSmm8-76" style="edgeStyle=orthogonalEdgeStyle;rounded=0;orthogonalLoop=1;jettySize=auto;html=1;exitX=0.5;exitY=1;exitDx=0;exitDy=0;entryX=0.5;entryY=0;entryDx=0;entryDy=0;fontSize=14;targetPerimeterSpacing=6;" edge="1" parent="1" source="SDUCGOUq9v9T7dZsSmm8-72" target="SDUCGOUq9v9T7dZsSmm8-75">
          <mxGeometry relative="1" as="geometry" />
        </mxCell>
        <mxCell id="SDUCGOUq9v9T7dZsSmm8-77" style="edgeStyle=orthogonalEdgeStyle;rounded=0;orthogonalLoop=1;jettySize=auto;html=1;exitX=0.5;exitY=0;exitDx=0;exitDy=0;entryX=0.5;entryY=1;entryDx=0;entryDy=0;fontSize=14;targetPerimeterSpacing=6;" edge="1" parent="1" source="SDUCGOUq9v9T7dZsSmm8-72" target="SDUCGOUq9v9T7dZsSmm8-74">
          <mxGeometry relative="1" as="geometry" />
        </mxCell>
        <mxCell id="SDUCGOUq9v9T7dZsSmm8-72" value="2 fundamentals" style="rounded=1;whiteSpace=wrap;html=1;fontSize=14;align=center;opacity=80;fillColor=#dae8fc;strokeColor=#6c8ebf;" vertex="1" parent="1">
          <mxGeometry x="1140" y="162.5" width="120" height="25" as="geometry" />
        </mxCell>
        <mxCell id="SDUCGOUq9v9T7dZsSmm8-74" value="Criterion" style="rounded=1;whiteSpace=wrap;html=1;fontSize=14;align=center;opacity=80;fillColor=#fff2cc;strokeColor=#d6b656;" vertex="1" parent="1">
          <mxGeometry x="1150" y="110" width="100" height="30" as="geometry" />
        </mxCell>
        <mxCell id="SDUCGOUq9v9T7dZsSmm8-75" value="Sensitivity" style="rounded=1;whiteSpace=wrap;html=1;fontSize=14;align=center;opacity=80;fillColor=#fff2cc;strokeColor=#d6b656;" vertex="1" parent="1">
          <mxGeometry x="1150" y="210" width="100" height="30" as="geometry" />
        </mxCell>
        <mxCell id="SDUCGOUq9v9T7dZsSmm8-78" value="Distance between&amp;nbsp;&lt;span style=&quot;font-family: &amp;#34;arial&amp;#34; , sans-serif ; text-align: left ; background-color: rgb(255 , 255 , 255)&quot;&gt;μ&lt;/span&gt;(N) and&amp;nbsp;&lt;span style=&quot;font-family: &amp;#34;arial&amp;#34; , sans-serif ; text-align: left ; background-color: rgb(255 , 255 , 255)&quot;&gt;μ(N+S)&lt;/span&gt;" style="text;html=1;strokeColor=none;fillColor=none;align=center;verticalAlign=middle;whiteSpace=wrap;rounded=0;fontSize=14;opacity=80;" vertex="1" parent="1">
          <mxGeometry x="1090" y="225" width="220" height="70" as="geometry" />
        </mxCell>
        <mxCell id="SDUCGOUq9v9T7dZsSmm8-79" value="&lt;span style=&quot;font-size: 16px; color: rgb(32, 33, 36); font-family: arial, sans-serif; text-align: left;&quot;&gt;β, may be liberal, neutral, conservative&lt;/span&gt;" style="text;html=1;strokeColor=none;fillColor=none;align=center;verticalAlign=middle;whiteSpace=wrap;rounded=0;fontSize=14;fontColor=#000000;opacity=80;labelBackgroundColor=none;" vertex="1" parent="1">
          <mxGeometry x="1120" y="70" width="160" height="30" as="geometry" />
        </mxCell>
      </root>
    </mxGraphModel>
  </diagram>
</mxfile>
